<svg xmlns="http://www.w3.org/2000/svg" xmlns:xlink="http://www.w3.org/1999/xlink" width="500" zoomAndPan="magnify" viewBox="0 0 375 374.999991" height="500" preserveAspectRatio="xMidYMid meet" version="1.0"><defs><g/><clipPath id="574c98b4c4"><path d="M 33.019531 48.824219 L 342.019531 48.824219 L 342.019531 337.574219 L 33.019531 337.574219 Z M 33.019531 48.824219 " clip-rule="nonzero"/></clipPath><clipPath id="fef210454f"><path d="M 0 120.257812 L 375 120.257812 L 375 244.757812 L 0 244.757812 Z M 0 120.257812 " clip-rule="nonzero"/></clipPath><clipPath id="84944c0b50"><path d="M 110.1875 84.238281 L 264.6875 84.238281 L 264.6875 181 L 110.1875 181 Z M 110.1875 84.238281 " clip-rule="nonzero"/></clipPath><clipPath id="6510999001"><path d="M 148 101 L 229 101 L 229 182.488281 L 148 182.488281 Z M 148 101 " clip-rule="nonzero"/></clipPath></defs><rect x="-37.5" width="450" fill="#ffffff" y="-37.499999" height="449.999989" fill-opacity="1"/><rect x="-37.5" width="450" fill="#ffffff" y="-37.499999" height="449.999989" fill-opacity="1"/><rect x="-37.5" width="450" fill="#ffffff" y="-37.499999" height="449.999989" fill-opacity="1"/><g clip-path="url(#574c98b4c4)"><path fill="#000000" d="M 33.023438 48.824219 L 33.023438 337.574219 L 342.019531 337.574219 L 342.019531 48.824219 L 33.023438 48.824219 M 338.640625 334.191406 L 36.332031 334.191406 L 36.332031 52.132812 L 338.640625 52.132812 L 338.640625 334.191406 " fill-opacity="1" fill-rule="nonzero"/></g><g clip-path="url(#fef210454f)"><path fill="#ffffff" d="M -74.066406 120.257812 L 449.394531 120.257812 L 449.394531 244.757812 L -74.066406 244.757812 L -74.066406 120.257812 " fill-opacity="1" fill-rule="nonzero"/></g><path fill="#1a1a1a" d="M 176.875 155.222656 C 173.277344 152.011719 171.011719 147.335938 171.011719 142.136719 C 171.011719 141.695312 171.027344 141.257812 171.058594 140.824219 C 171.09375 140.777344 171.132812 140.730469 171.167969 140.683594 C 171.304688 140.507812 171.445312 140.332031 171.582031 140.164062 C 171.640625 140.09375 171.695312 140.023438 171.753906 139.957031 C 171.878906 139.800781 172.007812 139.648438 172.136719 139.496094 C 172.214844 139.40625 172.289062 139.316406 172.367188 139.230469 C 172.480469 139.101562 172.59375 138.972656 172.710938 138.847656 C 172.828125 138.714844 172.953125 138.582031 173.074219 138.449219 C 173.144531 138.375 173.214844 138.296875 173.289062 138.21875 C 175.519531 135.882812 177.777344 134.269531 179.945312 133.175781 C 178.183594 135.277344 177.144531 137.433594 176.550781 139.035156 C 174.726562 143.949219 174.839844 149.378906 176.875 155.222656 " fill-opacity="1" fill-rule="nonzero"/><path fill="#1a1a1a" d="M 171.597656 138.300781 C 171.523438 138.382812 171.453125 138.464844 171.378906 138.550781 C 172.5 133.148438 176.105469 128.65625 180.949219 126.320312 C 181.023438 126.332031 181.101562 126.339844 181.171875 126.351562 C 181.265625 126.363281 181.355469 126.378906 181.449219 126.390625 C 185.933594 127.0625 189.359375 128.464844 191.980469 130.179688 C 190.875 129.988281 189.742188 129.894531 188.59375 129.894531 C 186.734375 129.894531 184.570312 130.152344 182.25 130.921875 L 182.230469 130.929688 C 182.164062 130.949219 182.09375 130.976562 182.027344 131 L 181.964844 131.019531 C 178.210938 132.328125 174.765625 134.738281 171.683594 138.203125 L 171.597656 138.300781 " fill-opacity="1" fill-rule="nonzero"/><path fill="#1a1a1a" d="M 194.085938 158.796875 C 192.351562 159.375 190.5 159.683594 188.570312 159.683594 C 184.910156 159.683594 181.507812 158.566406 178.695312 156.644531 C 178.660156 156.566406 178.628906 156.492188 178.601562 156.417969 C 178.550781 156.296875 178.503906 156.171875 178.457031 156.050781 C 176.828125 151.882812 176.335938 148.25 176.515625 145.148438 C 177.453125 147.710938 178.792969 149.675781 179.882812 150.988281 C 183.230469 155.027344 187.996094 157.644531 194.085938 158.796875 " fill-opacity="1" fill-rule="nonzero"/><path fill="#1a1a1a" d="M 183.085938 125.460938 C 184.8125 124.890625 186.65625 124.585938 188.570312 124.585938 C 192.238281 124.585938 195.640625 125.707031 198.457031 127.628906 C 198.480469 127.691406 198.507812 127.75 198.53125 127.8125 C 198.585938 127.9375 198.632812 128.0625 198.679688 128.1875 C 198.90625 128.765625 199.113281 129.332031 199.292969 129.886719 L 199.3125 129.933594 C 200.441406 133.386719 200.78125 136.441406 200.625 139.105469 C 199.6875 136.542969 198.347656 134.578125 197.261719 133.265625 C 193.917969 129.234375 189.160156 126.617188 183.085938 125.460938 " fill-opacity="1" fill-rule="nonzero"/><path fill="#1a1a1a" d="M 205.53125 145.96875 C 205.609375 145.878906 205.6875 145.789062 205.765625 145.699219 C 204.652344 151.101562 201.050781 155.597656 196.214844 157.9375 C 196.140625 157.925781 196.066406 157.917969 195.992188 157.90625 C 195.859375 157.886719 195.726562 157.867188 195.597656 157.847656 C 194.984375 157.753906 194.390625 157.648438 193.8125 157.53125 L 193.765625 157.519531 C 190.207031 156.769531 187.390625 155.535156 185.160156 154.074219 C 186.265625 154.265625 187.398438 154.359375 188.546875 154.359375 C 190.40625 154.359375 192.574219 154.101562 194.898438 153.328125 L 194.929688 153.320312 C 194.996094 153.296875 195.066406 153.269531 195.136719 153.246094 L 195.160156 153.238281 C 198.925781 151.929688 202.382812 149.511719 205.476562 146.03125 L 205.53125 145.96875 " fill-opacity="1" fill-rule="nonzero"/><path fill="#1a1a1a" d="M 206.128906 142.136719 C 206.128906 142.570312 206.113281 143 206.082031 143.429688 C 206.042969 143.480469 206 143.53125 205.960938 143.585938 C 205.832031 143.75 205.699219 143.914062 205.566406 144.078125 C 205.503906 144.160156 205.4375 144.242188 205.367188 144.320312 C 205.253906 144.464844 205.132812 144.609375 205.011719 144.746094 C 204.921875 144.851562 204.832031 144.957031 204.738281 145.0625 C 204.640625 145.175781 204.539062 145.285156 204.445312 145.398438 C 204.292969 145.5625 204.144531 145.722656 203.996094 145.882812 C 203.953125 145.929688 203.90625 145.976562 203.863281 146.023438 C 201.628906 148.367188 199.367188 149.984375 197.195312 151.078125 C 198.957031 148.976562 199.996094 146.820312 200.59375 145.21875 C 202.414062 140.308594 202.304688 134.886719 200.273438 129.054688 C 203.867188 132.265625 206.128906 136.9375 206.128906 142.136719 " fill-opacity="1" fill-rule="nonzero"/><g clip-path="url(#84944c0b50)"><path fill="#1a1a1a" d="M 262.898438 180.90625 C 262.898438 180.90625 262.859375 179.664062 262.789062 177.34375 C 262.726562 175.019531 262.601562 171.617188 262.503906 167.28125 C 262.402344 162.945312 262.28125 157.683594 262.140625 151.644531 C 262.015625 145.609375 261.871094 138.792969 261.761719 131.363281 C 261.640625 123.933594 261.507812 115.882812 261.421875 107.367188 L 261.414062 106.570312 L 261.410156 106.167969 L 261.390625 105.84375 L 261.363281 105.441406 C 261.355469 105.304688 261.328125 105.242188 261.3125 105.136719 L 261.265625 104.855469 C 261.25 104.757812 261.210938 104.648438 261.183594 104.546875 C 260.960938 103.707031 260.558594 102.910156 260.007812 102.226562 C 258.917969 100.839844 257.210938 99.964844 255.441406 99.890625 L 255.105469 99.878906 L 254.667969 99.871094 L 253.820312 99.863281 C 253.257812 99.851562 252.695312 99.84375 252.125 99.835938 C 250.992188 99.8125 249.855469 99.785156 248.710938 99.761719 C 246.421875 99.699219 244.113281 99.625 241.78125 99.535156 C 237.121094 99.347656 232.382812 99.113281 227.570312 98.707031 C 225.160156 98.488281 222.738281 98.253906 220.261719 97.859375 C 219.003906 97.617188 217.769531 97.441406 216.390625 96.902344 C 215.132812 96.429688 213.96875 95.867188 212.816406 95.226562 C 211.667969 94.578125 210.550781 93.847656 209.464844 92.875 C 208.929688 92.375 208.367188 91.78125 207.90625 90.976562 L 207.046875 89.382812 C 206.785156 88.910156 206.523438 88.558594 206.324219 88.367188 C 206.109375 88.203125 206.054688 88.164062 205.820312 88.144531 L 205.730469 88.140625 C 205.703125 88.132812 205.589844 88.136719 205.527344 88.136719 L 205.0625 88.136719 L 204.140625 88.140625 L 202.289062 88.144531 C 197.351562 88.15625 192.394531 88.167969 187.4375 88.179688 C 182.480469 88.167969 177.523438 88.15625 172.585938 88.148438 L 169.8125 88.140625 L 169.234375 88.140625 C 169.089844 88.140625 169.300781 88.132812 169.238281 88.136719 L 169.007812 88.152344 C 168.855469 88.167969 168.753906 88.207031 168.554688 88.371094 C 168.355469 88.558594 168.089844 88.914062 167.828125 89.386719 L 166.960938 90.988281 C 166.621094 91.625 165.914062 92.425781 165.414062 92.875 C 164.324219 93.847656 163.207031 94.578125 162.058594 95.226562 C 160.90625 95.867188 159.742188 96.433594 158.488281 96.902344 C 157.871094 97.136719 157.191406 97.355469 156.460938 97.503906 C 155.859375 97.621094 155.285156 97.746094 154.671875 97.851562 L 152.777344 98.132812 C 152.144531 98.222656 151.550781 98.277344 150.9375 98.355469 C 149.71875 98.503906 148.511719 98.59375 147.304688 98.714844 C 142.492188 99.117188 137.753906 99.351562 133.09375 99.539062 C 130.761719 99.628906 128.453125 99.703125 126.167969 99.765625 C 125.023438 99.792969 123.882812 99.816406 122.75 99.84375 C 122.183594 99.851562 121.617188 99.859375 121.054688 99.867188 L 120.207031 99.878906 L 119.832031 99.882812 L 119.414062 99.898438 C 119.097656 99.898438 118.945312 99.945312 118.75 99.96875 C 118.570312 99.980469 118.339844 100.054688 118.128906 100.101562 C 117.699219 100.210938 117.292969 100.378906 116.894531 100.570312 C 116.109375 100.96875 115.421875 101.546875 114.871094 102.230469 C 114.320312 102.914062 113.921875 103.707031 113.695312 104.546875 C 113.628906 104.753906 113.59375 104.96875 113.5625 105.183594 C 113.515625 105.394531 113.503906 105.613281 113.492188 105.832031 C 113.484375 105.945312 113.472656 106.035156 113.472656 106.167969 L 113.464844 106.570312 L 113.457031 107.367188 C 113.402344 111.625 113.355469 115.765625 113.304688 119.773438 C 113.238281 123.78125 113.175781 127.648438 113.117188 131.363281 C 113.007812 138.792969 112.863281 145.609375 112.734375 151.644531 C 112.59375 157.683594 112.472656 162.945312 112.371094 167.28125 C 112.273438 171.617188 112.148438 175.019531 112.085938 177.34375 C 112.015625 179.664062 111.976562 180.90625 111.976562 180.90625 C 111.976562 180.90625 111.941406 179.664062 111.871094 177.34375 C 111.808594 175.019531 111.683594 171.617188 111.585938 167.28125 C 111.480469 162.945312 111.359375 157.683594 111.222656 151.644531 C 111.089844 145.609375 110.949219 138.792969 110.839844 131.363281 C 110.78125 127.648438 110.71875 123.78125 110.652344 119.773438 C 110.601562 115.765625 110.550781 111.625 110.5 107.367188 L 110.488281 106.570312 L 110.484375 106.167969 C 110.480469 106.035156 110.492188 105.859375 110.5 105.703125 C 110.507812 105.386719 110.519531 105.066406 110.578125 104.75 C 110.617188 104.433594 110.667969 104.117188 110.753906 103.804688 C 111.054688 102.554688 111.625 101.355469 112.417969 100.316406 C 114 98.222656 116.507812 96.820312 119.25 96.640625 C 121.496094 96.554688 123.761719 96.464844 126.050781 96.375 C 128.324219 96.28125 130.621094 96.175781 132.933594 96.054688 C 137.554688 95.800781 142.253906 95.503906 146.964844 95.039062 C 148.136719 94.910156 149.324219 94.804688 150.488281 94.640625 C 151.070312 94.5625 151.671875 94.496094 152.234375 94.40625 L 153.917969 94.136719 C 154.496094 94.035156 155.101562 93.902344 155.691406 93.78125 C 156.148438 93.6875 156.632812 93.539062 157.144531 93.335938 C 158.167969 92.953125 159.199219 92.449219 160.171875 91.898438 C 161.144531 91.347656 162.074219 90.710938 162.808594 90.050781 C 163.195312 89.660156 163.328125 89.550781 163.59375 89.117188 C 163.863281 88.632812 164.132812 88.085938 164.46875 87.480469 C 164.808594 86.882812 165.226562 86.199219 165.917969 85.535156 C 166.621094 84.871094 167.6875 84.332031 168.769531 84.28125 L 169 84.265625 L 169.234375 84.257812 L 170.738281 84.257812 L 172.585938 84.25 C 177.523438 84.242188 182.480469 84.230469 187.4375 84.222656 C 192.394531 84.234375 197.351562 84.246094 202.289062 84.253906 L 204.140625 84.257812 L 205.0625 84.261719 L 205.527344 84.261719 C 205.613281 84.261719 205.65625 84.257812 205.78125 84.265625 L 206.152344 84.285156 C 206.648438 84.324219 207.183594 84.453125 207.675781 84.679688 C 208.175781 84.894531 208.59375 85.214844 208.957031 85.539062 C 209.644531 86.199219 210.066406 86.886719 210.402344 87.480469 C 210.570312 87.78125 210.726562 88.074219 210.867188 88.34375 L 211.285156 89.128906 C 211.433594 89.394531 211.710938 89.714844 212.066406 90.050781 C 212.800781 90.714844 213.726562 91.351562 214.703125 91.902344 C 215.675781 92.449219 216.707031 92.953125 217.726562 93.339844 C 218.605469 93.71875 219.789062 93.90625 220.902344 94.132812 C 223.195312 94.535156 225.558594 94.800781 227.90625 95.042969 C 232.621094 95.507812 237.320312 95.804688 241.941406 96.058594 C 244.253906 96.179688 246.546875 96.285156 248.824219 96.378906 C 251.121094 96.46875 253.394531 96.558594 255.644531 96.648438 C 256.992188 96.742188 258.304688 97.128906 259.472656 97.765625 C 260.644531 98.394531 261.660156 99.285156 262.449219 100.320312 C 263.246094 101.359375 263.8125 102.554688 264.113281 103.808594 C 264.152344 103.964844 264.195312 104.113281 264.222656 104.28125 L 264.296875 104.796875 C 264.316406 104.960938 264.351562 105.15625 264.355469 105.289062 L 264.371094 105.691406 L 264.378906 105.894531 L 264.382812 105.992188 L 264.382812 106.167969 L 264.378906 106.570312 L 264.371094 107.367188 C 264.285156 115.882812 264.152344 123.933594 264.03125 131.363281 C 263.921875 138.792969 263.777344 145.609375 263.648438 151.644531 C 263.511719 157.683594 263.390625 162.945312 263.289062 167.28125 C 263.191406 171.617188 263.066406 175.019531 263.003906 177.34375 C 262.933594 179.664062 262.898438 180.90625 262.898438 180.90625 " fill-opacity="1" fill-rule="nonzero"/></g><path fill="#1a1a1a" d="M 188.574219 102.554688 C 166.734375 102.554688 148.96875 120.3125 148.96875 142.136719 C 148.96875 163.957031 166.734375 181.710938 188.574219 181.710938 C 210.40625 181.710938 228.171875 163.957031 228.171875 142.136719 C 228.171875 120.3125 210.40625 102.554688 188.574219 102.554688 Z M 188.574219 178.875 C 168.300781 178.875 151.808594 162.394531 151.808594 142.136719 C 151.808594 121.875 168.300781 105.394531 188.574219 105.394531 C 208.839844 105.394531 225.332031 121.875 225.332031 142.136719 C 225.332031 162.394531 208.839844 178.875 188.574219 178.875 " fill-opacity="1" fill-rule="nonzero"/><g clip-path="url(#6510999001)"><path fill="#1a1a1a" d="M 186.039062 101.890625 C 185.628906 101.917969 185.320312 102.269531 185.34375 102.679688 C 185.371094 103.085938 185.722656 103.398438 186.132812 103.375 C 186.542969 103.347656 186.855469 102.996094 186.828125 102.585938 C 186.800781 102.175781 186.449219 101.867188 186.039062 101.890625 Z M 183.519531 102.128906 C 183.109375 102.179688 182.820312 102.550781 182.875 102.957031 C 182.925781 103.363281 183.296875 103.652344 183.703125 103.601562 C 184.109375 103.550781 184.398438 103.179688 184.347656 102.773438 C 184.296875 102.367188 183.925781 102.074219 183.519531 102.128906 Z M 181.015625 102.523438 C 180.613281 102.597656 180.347656 102.988281 180.425781 103.390625 C 180.5 103.792969 180.890625 104.058594 181.292969 103.980469 C 181.699219 103.902344 181.960938 103.515625 181.886719 103.113281 C 181.808594 102.710938 181.417969 102.445312 181.015625 102.523438 Z M 178.542969 103.074219 C 178.144531 103.175781 177.90625 103.582031 178.007812 103.976562 C 178.109375 104.375 178.515625 104.613281 178.914062 104.511719 C 179.3125 104.410156 179.550781 104.007812 179.449219 103.609375 C 179.347656 103.210938 178.941406 102.972656 178.542969 103.074219 Z M 176.109375 103.78125 C 175.722656 103.90625 175.507812 104.328125 175.632812 104.714844 C 175.761719 105.105469 176.179688 105.320312 176.570312 105.195312 C 176.960938 105.066406 177.175781 104.648438 177.046875 104.257812 C 176.921875 103.867188 176.5 103.652344 176.109375 103.78125 Z M 173.722656 104.640625 C 173.34375 104.792969 173.15625 105.226562 173.308594 105.605469 C 173.457031 105.988281 173.890625 106.171875 174.273438 106.023438 C 174.65625 105.871094 174.839844 105.441406 174.6875 105.054688 C 174.535156 104.675781 174.105469 104.488281 173.722656 104.640625 Z M 171.398438 105.652344 C 171.027344 105.828125 170.867188 106.269531 171.042969 106.640625 C 171.21875 107.011719 171.660156 107.167969 172.03125 106.996094 C 172.402344 106.820312 172.5625 106.375 172.386719 106.007812 C 172.210938 105.636719 171.769531 105.476562 171.398438 105.652344 Z M 169.140625 106.804688 C 168.78125 107.003906 168.648438 107.457031 168.847656 107.816406 C 169.046875 108.171875 169.5 108.304688 169.859375 108.105469 C 170.214844 107.90625 170.347656 107.457031 170.148438 107.097656 C 169.953125 106.738281 169.5 106.609375 169.140625 106.804688 Z M 166.957031 108.097656 C 166.613281 108.320312 166.511719 108.777344 166.734375 109.125 C 166.953125 109.472656 167.410156 109.570312 167.757812 109.351562 C 168.101562 109.132812 168.207031 108.671875 167.984375 108.324219 C 167.765625 107.980469 167.304688 107.878906 166.957031 108.097656 Z M 164.863281 109.523438 C 164.535156 109.765625 164.460938 110.230469 164.703125 110.5625 C 164.945312 110.894531 165.410156 110.96875 165.738281 110.726562 C 166.074219 110.484375 166.144531 110.019531 165.902344 109.691406 C 165.664062 109.355469 165.199219 109.285156 164.863281 109.523438 Z M 162.867188 111.082031 C 162.546875 111.339844 162.503906 111.8125 162.765625 112.125 C 163.027344 112.441406 163.496094 112.488281 163.8125 112.222656 C 164.128906 111.960938 164.171875 111.496094 163.910156 111.179688 C 163.648438 110.863281 163.179688 110.820312 162.867188 111.082031 Z M 160.964844 112.753906 C 160.667969 113.035156 160.652344 113.507812 160.933594 113.804688 C 161.214844 114.105469 161.683594 114.121094 161.984375 113.839844 C 162.28125 113.558594 162.296875 113.089844 162.015625 112.789062 C 161.734375 112.492188 161.265625 112.476562 160.964844 112.753906 Z M 159.175781 114.546875 C 158.894531 114.84375 158.90625 115.316406 159.207031 115.59375 C 159.503906 115.878906 159.976562 115.863281 160.257812 115.5625 C 160.539062 115.265625 160.523438 114.792969 160.226562 114.515625 C 159.925781 114.230469 159.453125 114.246094 159.175781 114.546875 Z M 157.5 116.445312 C 157.238281 116.761719 157.28125 117.226562 157.597656 117.492188 C 157.914062 117.753906 158.382812 117.707031 158.640625 117.390625 C 158.90625 117.074219 158.859375 116.605469 158.546875 116.347656 C 158.226562 116.085938 157.757812 116.128906 157.5 116.445312 Z M 155.945312 118.441406 C 155.703125 118.773438 155.777344 119.238281 156.105469 119.480469 C 156.441406 119.722656 156.902344 119.648438 157.144531 119.316406 C 157.386719 118.984375 157.3125 118.519531 156.984375 118.277344 C 156.652344 118.035156 156.1875 118.109375 155.945312 118.441406 Z M 154.519531 120.53125 C 154.296875 120.878906 154.398438 121.335938 154.746094 121.558594 C 155.09375 121.78125 155.550781 121.675781 155.773438 121.332031 C 155.992188 120.984375 155.890625 120.527344 155.542969 120.304688 C 155.199219 120.085938 154.738281 120.1875 154.519531 120.53125 Z M 153.226562 122.707031 C 153.027344 123.066406 153.15625 123.519531 153.515625 123.71875 C 153.878906 123.914062 154.328125 123.785156 154.527344 123.425781 C 154.726562 123.066406 154.59375 122.617188 154.234375 122.417969 C 153.878906 122.21875 153.425781 122.347656 153.226562 122.707031 Z M 152.074219 124.960938 C 151.898438 125.328125 152.054688 125.773438 152.425781 125.949219 C 152.800781 126.125 153.242188 125.964844 153.417969 125.59375 C 153.59375 125.222656 153.433594 124.78125 153.0625 124.605469 C 152.691406 124.429688 152.25 124.589844 152.074219 124.960938 Z M 151.066406 127.277344 C 150.914062 127.660156 151.097656 128.089844 151.480469 128.242188 C 151.863281 128.394531 152.292969 128.207031 152.445312 127.828125 C 152.597656 127.445312 152.410156 127.015625 152.03125 126.863281 C 151.648438 126.710938 151.214844 126.894531 151.066406 127.277344 Z M 150.203125 129.660156 C 150.074219 130.050781 150.289062 130.46875 150.679688 130.597656 C 151.070312 130.722656 151.488281 130.507812 151.617188 130.121094 C 151.742188 129.730469 151.53125 129.308594 151.140625 129.183594 C 150.75 129.058594 150.332031 129.269531 150.203125 129.660156 Z M 149.496094 132.089844 C 149.390625 132.488281 149.632812 132.894531 150.027344 132.996094 C 150.425781 133.097656 150.832031 132.859375 150.933594 132.460938 C 151.035156 132.0625 150.796875 131.660156 150.398438 131.554688 C 150.003906 131.453125 149.597656 131.695312 149.496094 132.089844 Z M 148.941406 134.558594 C 148.863281 134.964844 149.128906 135.351562 149.53125 135.429688 C 149.933594 135.507812 150.324219 135.242188 150.402344 134.839844 C 150.476562 134.4375 150.214844 134.046875 149.808594 133.96875 C 149.40625 133.894531 149.019531 134.15625 148.941406 134.558594 Z M 148.542969 137.0625 C 148.496094 137.46875 148.78125 137.839844 149.1875 137.890625 C 149.597656 137.945312 149.96875 137.65625 150.019531 137.246094 C 150.070312 136.839844 149.785156 136.46875 149.375 136.417969 C 148.96875 136.367188 148.597656 136.65625 148.542969 137.0625 Z M 148.308594 139.582031 C 148.28125 139.992188 148.59375 140.34375 149.003906 140.371094 C 149.410156 140.394531 149.765625 140.085938 149.792969 139.675781 C 149.816406 139.265625 149.503906 138.914062 149.097656 138.886719 C 148.6875 138.859375 148.332031 139.171875 148.308594 139.582031 Z M 148.226562 142.113281 C 148.226562 142.523438 148.558594 142.855469 148.96875 142.855469 C 149.378906 142.855469 149.714844 142.523438 149.714844 142.113281 C 149.714844 141.703125 149.382812 141.371094 148.96875 141.371094 C 148.558594 141.371094 148.226562 141.703125 148.226562 142.113281 Z M 148.304688 144.644531 C 148.328125 145.050781 148.683594 145.363281 149.09375 145.335938 C 149.5 145.3125 149.8125 144.960938 149.789062 144.550781 C 149.761719 144.140625 149.410156 143.828125 149 143.855469 C 148.589844 143.878906 148.28125 144.234375 148.304688 144.644531 Z M 148.539062 147.164062 C 148.589844 147.570312 148.960938 147.859375 149.371094 147.808594 C 149.777344 147.757812 150.066406 147.386719 150.015625 146.976562 C 149.964844 146.570312 149.59375 146.28125 149.183594 146.332031 C 148.777344 146.382812 148.488281 146.753906 148.539062 147.164062 Z M 148.933594 149.664062 C 149.007812 150.066406 149.398438 150.332031 149.800781 150.253906 C 150.207031 150.179688 150.46875 149.789062 150.394531 149.386719 C 150.316406 148.984375 149.929688 148.71875 149.523438 148.796875 C 149.121094 148.871094 148.855469 149.261719 148.933594 149.664062 Z M 149.484375 152.132812 C 149.585938 152.53125 149.992188 152.773438 150.386719 152.671875 C 150.785156 152.566406 151.027344 152.164062 150.921875 151.765625 C 150.820312 151.367188 150.417969 151.128906 150.019531 151.230469 C 149.621094 151.332031 149.378906 151.738281 149.484375 152.132812 Z M 150.191406 154.566406 C 150.316406 154.957031 150.734375 155.167969 151.125 155.042969 C 151.515625 154.917969 151.730469 154.5 151.601562 154.109375 C 151.476562 153.71875 151.058594 153.503906 150.664062 153.628906 C 150.277344 153.757812 150.0625 154.175781 150.191406 154.566406 Z M 151.050781 156.953125 C 151.199219 157.335938 151.632812 157.519531 152.015625 157.367188 C 152.394531 157.21875 152.582031 156.785156 152.429688 156.40625 C 152.28125 156.023438 151.847656 155.835938 151.46875 155.988281 C 151.085938 156.140625 150.898438 156.570312 151.050781 156.953125 Z M 152.058594 159.277344 C 152.234375 159.648438 152.675781 159.808594 153.046875 159.632812 C 153.421875 159.457031 153.578125 159.015625 153.402344 158.644531 C 153.230469 158.273438 152.785156 158.117188 152.414062 158.289062 C 152.042969 158.464844 151.882812 158.910156 152.058594 159.277344 Z M 153.214844 161.535156 C 153.410156 161.894531 153.863281 162.023438 154.222656 161.828125 C 154.582031 161.628906 154.714844 161.179688 154.515625 160.820312 C 154.316406 160.460938 153.863281 160.328125 153.503906 160.527344 C 153.144531 160.726562 153.015625 161.175781 153.214844 161.535156 Z M 154.507812 163.714844 C 154.726562 164.0625 155.183594 164.164062 155.53125 163.945312 C 155.878906 163.722656 155.980469 163.265625 155.761719 162.917969 C 155.539062 162.574219 155.082031 162.46875 154.734375 162.691406 C 154.386719 162.910156 154.285156 163.371094 154.507812 163.714844 Z M 155.933594 165.808594 C 156.175781 166.140625 156.640625 166.214844 156.96875 165.972656 C 157.304688 165.730469 157.375 165.265625 157.132812 164.933594 C 156.890625 164.605469 156.429688 164.53125 156.09375 164.773438 C 155.765625 165.015625 155.691406 165.476562 155.933594 165.8125 Z M 157.488281 167.808594 C 157.746094 168.125 158.214844 168.167969 158.535156 167.90625 C 158.847656 167.648438 158.890625 167.179688 158.628906 166.863281 C 158.371094 166.546875 157.902344 166.5 157.585938 166.765625 C 157.269531 167.027344 157.226562 167.492188 157.488281 167.808594 Z M 159.164062 169.707031 C 159.445312 170.007812 159.914062 170.023438 160.210938 169.742188 C 160.511719 169.460938 160.527344 168.992188 160.246094 168.691406 C 159.964844 168.394531 159.492188 168.378906 159.195312 168.660156 C 158.894531 168.941406 158.882812 169.410156 159.164062 169.707031 Z M 160.953125 171.5 C 161.25 171.78125 161.722656 171.765625 162.003906 171.46875 C 162.285156 171.167969 162.269531 170.699219 161.972656 170.417969 C 161.671875 170.136719 161.199219 170.152344 160.921875 170.449219 C 160.640625 170.75 160.652344 171.21875 160.953125 171.5 Z M 162.851562 173.175781 C 163.164062 173.4375 163.632812 173.394531 163.898438 173.078125 C 164.160156 172.761719 164.117188 172.296875 163.800781 172.03125 C 163.484375 171.769531 163.015625 171.816406 162.753906 172.128906 C 162.488281 172.445312 162.535156 172.914062 162.851562 173.175781 Z M 164.847656 174.730469 C 165.179688 174.972656 165.644531 174.898438 165.886719 174.566406 C 166.128906 174.234375 166.054688 173.769531 165.722656 173.527344 C 165.394531 173.289062 164.929688 173.359375 164.6875 173.691406 C 164.445312 174.023438 164.515625 174.488281 164.847656 174.730469 Z M 166.941406 176.15625 C 167.285156 176.375 167.746094 176.277344 167.964844 175.929688 C 168.1875 175.582031 168.085938 175.125 167.738281 174.902344 L 167.738281 174.90625 C 167.390625 174.683594 166.933594 174.785156 166.714844 175.132812 C 166.492188 175.476562 166.59375 175.9375 166.941406 176.15625 Z M 169.113281 177.449219 C 169.476562 177.648438 169.925781 177.519531 170.125 177.160156 C 170.324219 176.796875 170.191406 176.347656 169.835938 176.148438 C 169.476562 175.953125 169.023438 176.082031 168.824219 176.4375 C 168.625 176.796875 168.753906 177.25 169.113281 177.449219 Z M 171.367188 178.601562 C 171.738281 178.777344 172.179688 178.617188 172.355469 178.25 C 172.53125 177.878906 172.375 177.433594 172.003906 177.257812 L 172.003906 177.261719 C 171.632812 177.085938 171.191406 177.242188 171.015625 177.613281 C 170.835938 177.984375 170.996094 178.425781 171.367188 178.601562 Z M 173.6875 179.609375 C 174.066406 179.765625 174.5 179.578125 174.652344 179.195312 C 174.804688 178.816406 174.617188 178.382812 174.238281 178.230469 C 173.855469 178.078125 173.421875 178.265625 173.273438 178.644531 C 173.121094 179.027344 173.304688 179.460938 173.6875 179.609375 Z M 176.070312 180.472656 C 176.457031 180.601562 176.878906 180.390625 177.007812 179.996094 C 177.132812 179.605469 176.921875 179.1875 176.53125 179.0625 C 176.140625 178.933594 175.722656 179.148438 175.59375 179.539062 C 175.464844 179.925781 175.679688 180.347656 176.070312 180.472656 Z M 178.5 181.183594 C 178.898438 181.285156 179.304688 181.046875 179.40625 180.648438 C 179.507812 180.253906 179.269531 179.847656 178.871094 179.746094 C 178.476562 179.640625 178.070312 179.882812 177.964844 180.277344 C 177.863281 180.675781 178.105469 181.082031 178.5 181.183594 Z M 180.972656 181.738281 C 181.375 181.8125 181.765625 181.550781 181.84375 181.148438 C 181.921875 180.746094 181.65625 180.355469 181.253906 180.277344 C 180.851562 180.199219 180.460938 180.464844 180.382812 180.867188 C 180.304688 181.269531 180.570312 181.660156 180.972656 181.738281 Z M 183.472656 182.136719 C 183.882812 182.1875 184.253906 181.898438 184.304688 181.492188 C 184.355469 181.082031 184.070312 180.710938 183.664062 180.660156 C 183.253906 180.609375 182.882812 180.898438 182.828125 181.304688 C 182.78125 181.710938 183.066406 182.082031 183.472656 182.136719 Z M 185.996094 182.375 C 186.40625 182.402344 186.757812 182.089844 186.785156 181.679688 C 186.8125 181.269531 186.5 180.917969 186.089844 180.890625 C 185.679688 180.863281 185.328125 181.175781 185.300781 181.585938 C 185.273438 181.996094 185.585938 182.347656 185.996094 182.375 Z M 188.527344 182.453125 C 188.9375 182.453125 189.269531 182.125 189.269531 181.710938 C 189.273438 181.304688 188.941406 180.96875 188.53125 180.96875 C 188.121094 180.96875 187.785156 181.300781 187.785156 181.710938 C 187.785156 182.121094 188.117188 182.453125 188.527344 182.453125 Z M 191.058594 182.378906 C 191.46875 182.355469 191.78125 182.003906 191.753906 181.59375 C 191.730469 181.183594 191.378906 180.871094 190.96875 180.894531 C 190.558594 180.921875 190.246094 181.273438 190.273438 181.683594 C 190.296875 182.09375 190.648438 182.40625 191.058594 182.378906 Z M 193.582031 182.144531 C 193.988281 182.09375 194.277344 181.722656 194.226562 181.316406 C 194.175781 180.910156 193.804688 180.621094 193.398438 180.671875 C 192.988281 180.722656 192.699219 181.09375 192.75 181.5 C 192.800781 181.90625 193.171875 182.195312 193.582031 182.144531 Z M 196.085938 181.753906 C 196.488281 181.675781 196.753906 181.289062 196.675781 180.886719 C 196.597656 180.484375 196.210938 180.21875 195.808594 180.292969 C 195.40625 180.371094 195.140625 180.757812 195.214844 181.164062 C 195.289062 181.566406 195.679688 181.828125 196.085938 181.753906 Z M 198.558594 181.203125 C 198.953125 181.101562 199.195312 180.699219 199.09375 180.300781 C 198.992188 179.902344 198.585938 179.664062 198.1875 179.765625 C 197.792969 179.867188 197.550781 180.273438 197.652344 180.667969 C 197.753906 181.066406 198.160156 181.308594 198.558594 181.203125 Z M 200.992188 180.5 C 201.378906 180.375 201.59375 179.957031 201.46875 179.566406 C 201.339844 179.175781 200.921875 178.960938 200.53125 179.085938 C 200.140625 179.214844 199.929688 179.632812 200.054688 180.023438 C 200.183594 180.414062 200.601562 180.625 200.992188 180.5 Z M 203.378906 179.640625 C 203.761719 179.492188 203.945312 179.058594 203.796875 178.679688 C 203.644531 178.296875 203.210938 178.109375 202.832031 178.261719 C 202.449219 178.410156 202.261719 178.84375 202.414062 179.222656 C 202.5625 179.605469 202.996094 179.792969 203.378906 179.640625 Z M 205.707031 178.632812 C 206.078125 178.460938 206.234375 178.015625 206.0625 177.644531 C 205.886719 177.273438 205.445312 177.117188 205.074219 177.292969 C 204.699219 177.464844 204.542969 177.910156 204.714844 178.28125 C 204.894531 178.652344 205.335938 178.808594 205.707031 178.632812 Z M 207.964844 177.484375 C 208.324219 177.285156 208.457031 176.832031 208.257812 176.472656 C 208.058594 176.113281 207.609375 175.984375 207.25 176.179688 C 206.886719 176.378906 206.757812 176.832031 206.957031 177.191406 C 207.152344 177.550781 207.605469 177.679688 207.964844 177.484375 Z M 210.148438 176.191406 C 210.492188 175.972656 210.597656 175.511719 210.375 175.164062 C 210.15625 174.820312 209.695312 174.71875 209.351562 174.9375 C 209.003906 175.15625 208.902344 175.617188 209.121094 175.960938 C 209.339844 176.308594 209.800781 176.410156 210.148438 176.191406 Z M 212.242188 174.765625 C 212.574219 174.527344 212.648438 174.0625 212.40625 173.730469 C 212.167969 173.398438 211.699219 173.324219 211.367188 173.566406 C 211.035156 173.804688 210.960938 174.273438 211.203125 174.601562 C 211.445312 174.9375 211.910156 175.007812 212.242188 174.765625 Z M 214.246094 173.214844 C 214.558594 172.953125 214.605469 172.484375 214.34375 172.167969 C 214.082031 171.851562 213.613281 171.808594 213.296875 172.070312 C 212.980469 172.332031 212.9375 172.800781 213.199219 173.117188 C 213.460938 173.433594 213.925781 173.476562 214.246094 173.214844 Z M 216.144531 171.539062 C 216.445312 171.261719 216.460938 170.789062 216.179688 170.492188 C 215.898438 170.191406 215.429688 170.175781 215.128906 170.457031 C 214.828125 170.738281 214.8125 171.207031 215.097656 171.507812 C 215.375 171.808594 215.847656 171.820312 216.144531 171.539062 Z M 217.941406 169.753906 C 218.21875 169.453125 218.207031 168.984375 217.90625 168.703125 C 217.609375 168.421875 217.136719 168.4375 216.855469 168.734375 C 216.574219 169.035156 216.589844 169.503906 216.890625 169.785156 C 217.1875 170.066406 217.65625 170.050781 217.941406 169.753906 Z M 219.617188 167.859375 C 219.878906 167.542969 219.835938 167.070312 219.519531 166.8125 C 219.203125 166.546875 218.734375 166.59375 218.472656 166.90625 C 218.210938 167.222656 218.253906 167.691406 218.570312 167.953125 C 218.886719 168.214844 219.355469 168.171875 219.617188 167.859375 Z M 221.175781 165.859375 C 221.414062 165.527344 221.34375 165.0625 221.011719 164.824219 C 220.679688 164.582031 220.214844 164.652344 219.972656 164.984375 C 219.730469 165.316406 219.804688 165.78125 220.132812 166.023438 C 220.464844 166.261719 220.929688 166.191406 221.175781 165.859375 Z M 222.601562 163.773438 C 222.820312 163.425781 222.71875 162.96875 222.375 162.746094 C 222.03125 162.523438 221.570312 162.625 221.347656 162.972656 C 221.128906 163.316406 221.226562 163.777344 221.574219 164 C 221.921875 164.21875 222.378906 164.117188 222.601562 163.773438 Z M 223.894531 161.597656 C 224.09375 161.238281 223.964844 160.789062 223.605469 160.589844 C 223.246094 160.390625 222.792969 160.519531 222.59375 160.878906 C 222.394531 161.238281 222.527344 161.6875 222.886719 161.886719 C 223.246094 162.085938 223.695312 161.957031 223.894531 161.597656 Z M 225.050781 159.347656 C 225.226562 158.976562 225.066406 158.535156 224.699219 158.359375 C 224.328125 158.179688 223.882812 158.339844 223.707031 158.710938 C 223.53125 159.082031 223.691406 159.523438 224.0625 159.699219 C 224.429688 159.875 224.875 159.71875 225.050781 159.347656 Z M 226.0625 157.027344 C 226.214844 156.648438 226.027344 156.214844 225.648438 156.0625 C 225.265625 155.914062 224.835938 156.097656 224.679688 156.480469 C 224.53125 156.859375 224.714844 157.292969 225.097656 157.445312 C 225.476562 157.59375 225.910156 157.410156 226.0625 157.027344 Z M 226.925781 154.648438 C 227.054688 154.257812 226.839844 153.839844 226.449219 153.710938 C 226.0625 153.582031 225.640625 153.796875 225.511719 154.1875 C 225.386719 154.578125 225.597656 154.996094 225.988281 155.125 C 226.378906 155.25 226.796875 155.039062 226.925781 154.648438 Z M 227.636719 152.21875 C 227.738281 151.820312 227.5 151.417969 227.101562 151.3125 C 226.707031 151.210938 226.300781 151.449219 226.195312 151.847656 L 226.199219 151.847656 C 226.09375 152.246094 226.335938 152.648438 226.730469 152.75 C 227.128906 152.855469 227.535156 152.617188 227.636719 152.21875 Z M 228.191406 149.75 C 228.269531 149.34375 228.007812 148.957031 227.605469 148.878906 C 227.199219 148.800781 226.808594 149.066406 226.734375 149.46875 C 226.65625 149.871094 226.917969 150.261719 227.324219 150.335938 C 227.726562 150.414062 228.113281 150.152344 228.191406 149.75 Z M 228.589844 147.25 C 228.644531 146.84375 228.355469 146.46875 227.949219 146.417969 C 227.539062 146.367188 227.167969 146.65625 227.117188 147.0625 C 227.066406 147.46875 227.351562 147.839844 227.761719 147.890625 C 228.167969 147.941406 228.539062 147.65625 228.589844 147.25 Z M 228.832031 144.730469 C 228.859375 144.320312 228.546875 143.964844 228.136719 143.941406 C 227.726562 143.914062 227.375 144.226562 227.347656 144.636719 C 227.324219 145.042969 227.632812 145.398438 228.042969 145.421875 C 228.453125 145.449219 228.804688 145.136719 228.832031 144.730469 Z M 228.914062 142.199219 C 228.914062 141.789062 228.582031 141.453125 228.171875 141.453125 C 227.761719 141.453125 227.425781 141.785156 227.425781 142.195312 C 227.425781 142.605469 227.757812 142.9375 228.171875 142.941406 C 228.582031 142.941406 228.914062 142.609375 228.914062 142.199219 Z M 228.839844 139.667969 C 228.816406 139.257812 228.464844 138.949219 228.050781 138.972656 C 227.640625 138.996094 227.332031 139.347656 227.355469 139.757812 C 227.382812 140.167969 227.734375 140.480469 228.144531 140.453125 C 228.550781 140.429688 228.867188 140.078125 228.839844 139.667969 Z M 228.609375 137.148438 C 228.558594 136.742188 228.1875 136.453125 227.777344 136.503906 C 227.371094 136.554688 227.082031 136.925781 227.132812 137.332031 C 227.183594 137.738281 227.554688 138.027344 227.960938 137.976562 C 228.367188 137.925781 228.660156 137.554688 228.609375 137.148438 Z M 228.21875 134.644531 C 228.140625 134.242188 227.753906 133.976562 227.347656 134.054688 C 226.945312 134.132812 226.679688 134.519531 226.757812 134.921875 C 226.832031 135.324219 227.21875 135.589844 227.625 135.515625 C 228.027344 135.4375 228.292969 135.050781 228.21875 134.644531 Z M 227.667969 132.175781 C 227.566406 131.777344 227.164062 131.535156 226.765625 131.636719 C 226.367188 131.738281 226.125 132.144531 226.230469 132.539062 C 226.332031 132.9375 226.734375 133.179688 227.132812 133.078125 C 227.53125 132.976562 227.769531 132.570312 227.667969 132.175781 Z M 226.964844 129.742188 C 226.839844 129.351562 226.417969 129.136719 226.03125 129.265625 C 225.640625 129.390625 225.425781 129.808594 225.550781 130.199219 C 225.679688 130.589844 226.097656 130.804688 226.488281 130.679688 C 226.878906 130.550781 227.09375 130.132812 226.964844 129.742188 Z M 226.109375 127.355469 C 225.957031 126.972656 225.523438 126.785156 225.144531 126.9375 C 224.761719 127.085938 224.574219 127.519531 224.726562 127.898438 C 224.875 128.28125 225.308594 128.46875 225.691406 128.316406 C 226.070312 128.167969 226.257812 127.734375 226.109375 127.355469 Z M 225.101562 125.027344 C 224.925781 124.65625 224.484375 124.496094 224.113281 124.671875 C 223.742188 124.847656 223.582031 125.289062 223.757812 125.660156 C 223.929688 126.03125 224.375 126.191406 224.746094 126.015625 C 225.117188 125.84375 225.273438 125.398438 225.101562 125.027344 Z M 223.949219 122.769531 C 223.753906 122.410156 223.300781 122.277344 222.941406 122.476562 C 222.582031 122.671875 222.449219 123.125 222.648438 123.484375 C 222.84375 123.84375 223.296875 123.976562 223.65625 123.777344 C 224.015625 123.582031 224.148438 123.128906 223.949219 122.769531 Z M 222.660156 120.589844 C 222.441406 120.242188 221.980469 120.140625 221.632812 120.359375 C 221.285156 120.578125 221.183594 121.035156 221.40625 121.386719 C 221.625 121.730469 222.082031 121.832031 222.429688 121.613281 C 222.777344 121.394531 222.878906 120.933594 222.660156 120.589844 Z M 221.234375 118.492188 C 220.992188 118.160156 220.53125 118.085938 220.195312 118.328125 C 219.867188 118.570312 219.789062 119.035156 220.03125 119.367188 C 220.273438 119.699219 220.738281 119.773438 221.070312 119.53125 C 221.402344 119.289062 221.476562 118.824219 221.234375 118.492188 Z M 219.683594 116.492188 C 219.421875 116.171875 218.953125 116.128906 218.636719 116.390625 C 218.320312 116.652344 218.273438 117.121094 218.535156 117.4375 C 218.796875 117.753906 219.265625 117.796875 219.582031 117.535156 C 219.898438 117.273438 219.941406 116.804688 219.683594 116.492188 Z M 218.007812 114.589844 C 217.730469 114.289062 217.257812 114.273438 216.957031 114.554688 C 216.660156 114.835938 216.644531 115.304688 216.921875 115.605469 C 217.203125 115.90625 217.675781 115.921875 217.976562 115.640625 C 218.273438 115.359375 218.289062 114.890625 218.007812 114.589844 Z M 216.222656 112.796875 C 215.921875 112.515625 215.449219 112.527344 215.171875 112.828125 C 214.886719 113.128906 214.902344 113.597656 215.199219 113.878906 C 215.5 114.160156 215.96875 114.144531 216.253906 113.847656 C 216.53125 113.546875 216.519531 113.078125 216.222656 112.796875 Z M 214.324219 111.117188 C 214.007812 110.855469 213.539062 110.902344 213.277344 111.214844 C 213.015625 111.53125 213.058594 112 213.375 112.261719 C 213.6875 112.523438 214.15625 112.480469 214.421875 112.164062 C 214.683594 111.851562 214.640625 111.382812 214.324219 111.117188 Z M 212.328125 109.5625 C 211.996094 109.320312 211.53125 109.390625 211.289062 109.722656 C 211.046875 110.054688 211.117188 110.519531 211.449219 110.761719 C 211.78125 111.003906 212.246094 110.929688 212.488281 110.601562 C 212.730469 110.269531 212.660156 109.804688 212.328125 109.5625 Z M 210.238281 108.132812 C 209.890625 107.914062 209.433594 108.015625 209.210938 108.359375 C 208.988281 108.703125 209.09375 109.164062 209.4375 109.386719 C 209.785156 109.605469 210.246094 109.503906 210.464844 109.160156 C 210.6875 108.8125 210.582031 108.355469 210.238281 108.132812 Z M 208.066406 106.839844 C 207.703125 106.640625 207.253906 106.769531 207.050781 107.128906 C 206.855469 107.488281 206.984375 107.9375 207.34375 108.136719 C 207.703125 108.335938 208.152344 108.207031 208.351562 107.851562 C 208.550781 107.488281 208.421875 107.039062 208.066406 106.839844 Z M 205.8125 105.683594 C 205.441406 105.507812 205 105.664062 204.824219 106.035156 C 204.648438 106.40625 204.804688 106.851562 205.175781 107.027344 C 205.546875 107.203125 205.988281 107.042969 206.167969 106.671875 C 206.34375 106.300781 206.183594 105.859375 205.8125 105.683594 Z M 203.496094 104.671875 C 203.113281 104.519531 202.679688 104.703125 202.53125 105.085938 C 202.375 105.464844 202.5625 105.898438 202.945312 106.050781 C 203.324219 106.203125 203.757812 106.019531 203.910156 105.636719 C 204.058594 105.253906 203.875 104.824219 203.496094 104.671875 Z M 201.113281 103.808594 C 200.722656 103.679688 200.304688 103.890625 200.175781 104.28125 C 200.046875 104.671875 200.261719 105.089844 200.648438 105.21875 C 201.039062 105.347656 201.460938 105.132812 201.589844 104.746094 C 201.714844 104.355469 201.503906 103.933594 201.113281 103.808594 Z M 198.683594 103.09375 C 198.285156 102.992188 197.878906 103.230469 197.777344 103.628906 C 197.671875 104.027344 197.910156 104.429688 198.308594 104.53125 C 198.707031 104.636719 199.113281 104.398438 199.214844 104 C 199.320312 103.605469 199.082031 103.199219 198.683594 103.09375 Z M 196.210938 102.539062 C 195.808594 102.460938 195.417969 102.722656 195.339844 103.128906 C 195.261719 103.53125 195.527344 103.917969 195.929688 103.996094 C 196.332031 104.074219 196.722656 103.8125 196.800781 103.410156 C 196.878906 103.003906 196.613281 102.617188 196.210938 102.539062 Z M 193.710938 102.136719 C 193.304688 102.085938 192.929688 102.375 192.878906 102.78125 C 192.828125 103.1875 193.113281 103.558594 193.523438 103.613281 C 193.929688 103.664062 194.300781 103.375 194.351562 102.96875 C 194.402344 102.5625 194.117188 102.191406 193.710938 102.136719 Z M 191.1875 101.894531 C 190.777344 101.871094 190.425781 102.179688 190.398438 102.589844 C 190.371094 103 190.683594 103.351562 191.09375 103.378906 C 191.503906 103.40625 191.855469 103.09375 191.882812 102.683594 C 191.90625 102.277344 191.597656 101.921875 191.1875 101.894531 Z M 188.65625 101.8125 C 188.246094 101.8125 187.914062 102.144531 187.914062 102.554688 C 187.910156 102.964844 188.242188 103.296875 188.652344 103.296875 C 189.0625 103.296875 189.398438 102.96875 189.398438 102.558594 C 189.398438 102.148438 189.066406 101.8125 188.65625 101.8125 Z M 188.574219 101.8125 C 188.160156 101.8125 187.828125 102.144531 187.828125 102.554688 C 187.828125 102.964844 188.160156 103.296875 188.574219 103.296875 C 188.984375 103.296875 189.316406 102.964844 189.316406 102.554688 C 189.316406 102.144531 188.984375 101.8125 188.574219 101.8125 " fill-opacity="1" fill-rule="nonzero"/></g><path fill="#1a1a1a" d="M 188.570312 159.09375 C 179.199219 159.09375 171.601562 151.503906 171.601562 142.136719 C 171.601562 132.769531 179.199219 125.175781 188.570312 125.175781 C 197.941406 125.175781 205.539062 132.769531 205.539062 142.136719 C 205.539062 151.503906 197.941406 159.09375 188.570312 159.09375 Z M 188.574219 118.886719 C 175.726562 118.886719 165.3125 129.296875 165.3125 142.136719 C 165.3125 154.972656 175.726562 165.382812 188.574219 165.382812 C 201.417969 165.382812 211.828125 154.972656 211.828125 142.136719 C 211.828125 129.296875 201.417969 118.886719 188.574219 118.886719 " fill-opacity="1" fill-rule="nonzero"/><path fill="#1a1a1a" d="M 188.570312 147.753906 C 185.464844 147.753906 182.949219 145.238281 182.949219 142.136719 C 182.949219 139.03125 185.464844 136.515625 188.570312 136.515625 C 191.671875 136.515625 194.191406 139.03125 194.191406 142.136719 C 194.191406 145.238281 191.671875 147.753906 188.570312 147.753906 " fill-opacity="1" fill-rule="nonzero"/><path fill="#1a1a1a" d="M 139.015625 117.984375 C 139.015625 120.070312 137.324219 121.761719 135.234375 121.761719 L 127.472656 121.761719 C 125.382812 121.761719 123.691406 120.070312 123.691406 117.984375 L 123.691406 110.226562 C 123.691406 108.140625 125.382812 106.449219 127.472656 106.449219 L 135.234375 106.449219 C 137.324219 106.449219 139.015625 108.140625 139.015625 110.226562 L 139.015625 117.984375 " fill-opacity="1" fill-rule="nonzero"/><path fill="#1a1a1a" d="M 205 94.15625 C 205 95.179688 204.167969 96.015625 203.140625 96.015625 L 171.21875 96.015625 C 170.191406 96.015625 169.359375 95.179688 169.359375 94.15625 C 169.359375 93.128906 170.191406 92.296875 171.21875 92.296875 L 203.140625 92.296875 C 204.167969 92.296875 205 93.128906 205 94.15625 " fill-opacity="1" fill-rule="nonzero"/><g fill="#1a1a1a" fill-opacity="1"><g transform="translate(71.621235, 234.248575)"><g><path d="M 58.046875 -60.589844 C 58.222656 -61.183594 57.808594 -61.832031 57.21875 -61.953125 C 56.625 -62.128906 55.976562 -61.773438 55.855469 -61.125 C 47.457031 -28.222656 31.894531 -16.863281 23.3125 -13.019531 C 20.945312 -11.953125 18.164062 -11.003906 15.503906 -10.53125 C 17.574219 -19.347656 19.644531 -28.046875 21.300781 -34.851562 C 23.015625 -41.894531 24.4375 -47.988281 25.503906 -52.367188 C 25.621094 -52.957031 25.207031 -53.609375 24.613281 -53.726562 C 24.023438 -53.84375 23.371094 -53.492188 23.253906 -52.898438 C 22.25 -48.519531 20.769531 -42.425781 19.054688 -35.382812 C 17.335938 -28.222656 15.382812 -20.117188 13.492188 -12.070312 C 12.542969 -12.839844 11.597656 -13.433594 10.589844 -13.847656 C 7.101562 -15.382812 4.4375 -15.445312 3.371094 -14.023438 C 2.722656 -13.195312 2.78125 -12.011719 3.609375 -10.945312 C 4.910156 -9.347656 7.515625 -8.226562 10.652344 -7.988281 C 11.242188 -7.988281 11.894531 -7.929688 12.542969 -7.988281 C 11.300781 -2.722656 10.117188 2.425781 9.113281 7.160156 C 7.515625 14.320312 6.449219 19.703125 5.796875 23.550781 C 4.734375 29.941406 4.96875 31.242188 6.214844 31.65625 C 6.332031 31.714844 6.507812 31.773438 6.6875 31.773438 C 7.8125 31.773438 8.699219 30.175781 10.175781 26.863281 C 10.414062 26.273438 10.175781 25.621094 9.585938 25.382812 C 8.992188 25.089844 8.34375 25.382812 8.105469 25.976562 C 7.871094 26.390625 7.691406 26.804688 7.515625 27.101562 C 8.285156 21.066406 11.421875 6.863281 14.792969 -7.632812 C 17.988281 -3.964844 21.066406 1.300781 24.140625 6.507812 C 29.761719 15.976562 35.5625 25.796875 42.484375 27.277344 C 43.078125 27.457031 43.726562 27.515625 44.320312 27.515625 C 46.273438 27.515625 48.222656 26.863281 50.117188 25.5625 C 50.589844 25.207031 50.710938 24.496094 50.355469 23.964844 C 50 23.433594 49.289062 23.3125 48.816406 23.667969 C 46.804688 25.03125 44.910156 25.503906 42.957031 25.089844 C 36.980469 23.785156 31.480469 14.378906 26.09375 5.324219 C 23.078125 0.175781 20.117188 -4.792969 17.042969 -8.519531 C 19.347656 -8.992188 21.773438 -9.824219 24.261719 -10.945312 C 33.195312 -14.910156 49.46875 -26.6875 58.046875 -60.589844 Z M 6.273438 -11.597656 C 5.5625 -12.070312 5.265625 -12.484375 5.207031 -12.664062 C 5.5625 -12.839844 6.863281 -13.019531 9.703125 -11.773438 C 10.53125 -11.421875 11.359375 -10.886719 12.1875 -10.238281 C 9.941406 -10.175781 7.871094 -10.53125 6.273438 -11.597656 Z M 6.273438 -11.597656 "/></g></g></g><g fill="#1a1a1a" fill-opacity="1"><g transform="translate(119.425496, 234.248575)"><g><path d="M 3.433594 -2.605469 C 2.1875 -2.25 1.007812 -0.296875 2.542969 -0.175781 C 5.265625 0 5.796875 -3.3125 3.433594 -2.605469 Z M 3.433594 -2.605469 "/></g></g></g><g fill="#1a1a1a" fill-opacity="1"><g transform="translate(127.353433, 234.248575)"><g><path d="M 74.023438 -51.003906 C 73.84375 -54.4375 72.78125 -56.273438 70.886719 -56.449219 C 64.96875 -57.160156 54.261719 -37.042969 44.613281 -7.929688 C 48.699219 -36.863281 46.152344 -41.714844 43.253906 -42.367188 C 41.832031 -42.664062 37.632812 -43.609375 26.210938 -17.335938 C 21.003906 -5.445312 15.621094 9.230469 11.125 23.550781 C 15.089844 4.199219 22.957031 -30.175781 25.5625 -41.003906 C 27.21875 -47.988281 26.863281 -52.128906 24.554688 -53.609375 C 23.3125 -54.378906 21.003906 -54.675781 16.921875 -51.539062 C 12.78125 -48.34375 8.226562 -42.601562 4.96875 -36.625 C 2.78125 -32.542969 -0.589844 -24.851562 1.359375 -19.054688 C 3.195312 -13.609375 8.875 -12.367188 13.3125 -12.308594 C 13.964844 -12.308594 14.4375 -12.78125 14.4375 -13.433594 C 14.496094 -14.082031 13.964844 -14.554688 13.3125 -14.554688 C 7.929688 -14.675781 4.675781 -16.390625 3.492188 -19.824219 C 0.828125 -27.871094 10.53125 -43.667969 18.34375 -49.761719 C 20.589844 -51.480469 22.484375 -52.246094 23.371094 -51.65625 C 23.847656 -51.359375 25.265625 -49.703125 23.3125 -41.539062 C 22.25 -36.980469 17.691406 -17.457031 13.492188 1.597656 C 11.242188 11.953125 9.46875 20.238281 8.285156 26.152344 C 7.632812 29.585938 7.160156 32.25 6.863281 34.082031 C 6.449219 36.863281 6.332031 38.046875 7.515625 38.402344 C 7.632812 38.460938 7.75 38.519531 7.929688 38.519531 C 8.875 38.519531 9.347656 37.21875 9.882812 35.796875 C 9.882812 35.738281 9.882812 35.738281 9.941406 35.679688 C 14.851562 18.046875 21.714844 -1.421875 28.285156 -16.449219 C 38.816406 -40.710938 42.601562 -40.175781 42.78125 -40.117188 C 42.839844 -40.117188 44.675781 -39.585938 44.4375 -29.527344 C 44.199219 -21.417969 42.722656 -9.054688 40 7.101562 C 39.882812 7.691406 40.296875 8.285156 40.886719 8.402344 C 41.480469 8.519531 42.070312 8.226562 42.1875 7.632812 C 49.113281 -16.210938 55.441406 -31.003906 59.585938 -39.230469 C 65.5625 -51.125 69.347656 -54.199219 70.589844 -54.199219 C 70.589844 -54.199219 70.648438 -54.199219 70.648438 -54.199219 C 71.125 -54.140625 71.65625 -53.136719 71.773438 -50.886719 C 72.246094 -43.429688 68.699219 -23.90625 65.5625 -6.6875 C 60.175781 22.839844 59.644531 28.164062 61.953125 28.992188 C 63.371094 29.527344 64.496094 27.871094 65.441406 26.210938 C 65.738281 25.679688 65.5625 24.96875 65.027344 24.675781 C 64.496094 24.378906 63.785156 24.554688 63.429688 25.089844 C 63.253906 25.445312 63.078125 25.738281 62.898438 25.976562 C 62.78125 21.417969 65.5625 6.214844 67.808594 -6.273438 C 71.125 -24.496094 74.554688 -43.3125 74.023438 -51.003906 Z M 74.023438 -51.003906 "/></g></g></g><g fill="#1a1a1a" fill-opacity="1"><g transform="translate(202.313845, 234.248575)"><g><path d="M 17.277344 -13.433594 C 16.746094 -13.785156 16.09375 -13.609375 15.738281 -13.078125 C 11.773438 -6.6875 5.148438 -0.652344 3.136719 -1.480469 C 2.898438 -1.597656 1.007812 -2.722656 3.609375 -12.722656 C 3.726562 -13.371094 3.371094 -13.964844 2.78125 -14.140625 C 2.128906 -14.261719 1.539062 -13.90625 1.359375 -13.3125 C -0.769531 -4.96875 -0.472656 -0.53125 2.1875 0.589844 C 2.605469 0.769531 3.019531 0.828125 3.433594 0.828125 C 7.871094 0.828125 14.675781 -7.101562 17.691406 -11.894531 C 17.988281 -12.425781 17.808594 -13.136719 17.277344 -13.433594 Z M 3.3125 -18.226562 C 6.332031 -18.046875 6.273438 -21.835938 3.847656 -21.003906 C 2.605469 -20.652344 1.007812 -18.34375 3.3125 -18.226562 Z M 3.3125 -18.226562 "/></g></g></g><g fill="#1a1a1a" fill-opacity="1"><g transform="translate(217.28227, 234.248575)"><g><path d="M 49.941406 -34.910156 C 49.171875 -35.976562 45.738281 -36.625 8.992188 -35.796875 C 10.175781 -40.589844 11.242188 -44.910156 12.1875 -48.402344 C 12.367188 -49.054688 12.011719 -49.644531 11.421875 -49.820312 C 10.828125 -50 10.175781 -49.644531 10 -49.054688 C 8.992188 -45.324219 7.871094 -40.828125 6.628906 -35.738281 C 3.371094 -35.679688 -0.175781 -35.621094 -4.023438 -35.503906 C -9.289062 -35.382812 -13.433594 -35.265625 -15.03125 -35.265625 C -15.679688 -35.265625 -16.210938 -34.734375 -16.210938 -34.140625 C -16.210938 -33.492188 -15.679688 -32.957031 -15.03125 -32.957031 C -13.371094 -33.015625 -9.230469 -33.078125 -3.964844 -33.253906 C -1.183594 -33.3125 2.25 -33.371094 6.09375 -33.492188 C 3.550781 -22.722656 0.652344 -9.824219 -1.953125 2.78125 C -3.847656 12.011719 -5.382812 20 -6.390625 25.859375 C -6.921875 28.933594 -7.277344 31.359375 -7.457031 33.015625 C -7.691406 35.265625 -7.8125 36.566406 -6.6875 36.980469 C -6.507812 36.980469 -6.390625 37.042969 -6.214844 37.042969 C -5.207031 37.042969 -4.675781 35.621094 -4.199219 34.320312 C -3.964844 33.726562 -4.261719 33.078125 -4.851562 32.839844 C -4.96875 32.839844 -5.03125 32.78125 -5.148438 32.78125 C -4.554688 28.164062 -2.78125 17.808594 0.652344 1.480469 C 3.195312 -10.886719 5.976562 -23.253906 8.460938 -33.550781 C 24.734375 -33.90625 45.859375 -34.199219 48.285156 -33.371094 C 48.699219 -33.015625 49.230469 -33.015625 49.703125 -33.3125 C 50.175781 -33.667969 50.296875 -34.378906 49.941406 -34.910156 Z M 49.941406 -34.910156 "/></g></g></g><g fill="#1a1a1a" fill-opacity="1"><g transform="translate(225.151033, 234.248575)"><g><path d="M 19.527344 -13.433594 C 18.992188 -13.726562 18.285156 -13.609375 17.988281 -13.078125 C 13.964844 -6.980469 7.277344 3.195312 2.898438 2.25 C 2.1875 2.070312 1.597656 1.597656 1.183594 0.828125 C 0 -1.300781 0.175781 -5.5625 1.539062 -9.289062 C 3.019531 -13.253906 4.792969 -14.261719 5.148438 -14.199219 C 5.207031 -14.140625 5.5625 -13.371094 5.089844 -11.539062 C 4.910156 -10.886719 5.265625 -10.296875 5.859375 -10.117188 C 6.507812 -10 7.101562 -10.355469 7.277344 -10.945312 C 8.402344 -15.207031 6.449219 -16.152344 5.859375 -16.390625 C 3.667969 -17.042969 1.007812 -14.4375 -0.589844 -10.058594 C -1.953125 -6.390625 -2.542969 -1.183594 -0.769531 1.953125 C -0.0585938 3.3125 1.066406 4.140625 2.425781 4.4375 C 2.78125 4.554688 3.136719 4.554688 3.492188 4.554688 C 8.640625 4.554688 14.199219 -3.195312 19.882812 -11.835938 C 20.238281 -12.367188 20.058594 -13.078125 19.527344 -13.433594 Z M 19.527344 -13.433594 "/></g></g></g><g fill="#1a1a1a" fill-opacity="1"><g transform="translate(242.66348, 234.248575)"><g><path d="M 27.988281 -13.492188 C 27.457031 -13.847656 26.746094 -13.667969 26.449219 -13.136719 C 18.046875 0.414062 15.089844 0.117188 14.792969 0.0585938 C 14.199219 -0.117188 13.550781 -1.300781 13.371094 -4.199219 C 13.3125 -5.503906 13.019531 -9.40625 10.414062 -9.761719 C 7.394531 -10.175781 3.785156 -4.910156 0.53125 1.894531 C 2.542969 -7.101562 5.445312 -19.46875 7.574219 -28.222656 C 15.503906 -42.484375 19.527344 -53.195312 17.871094 -55.503906 C 17.515625 -56.035156 16.921875 -56.210938 16.332031 -56.09375 C 13.785156 -55.621094 9.824219 -46.980469 7.160156 -36.035156 C 7.042969 -35.621094 -3.550781 7.632812 -3.90625 12.957031 C -3.90625 13.550781 -3.550781 14.023438 -2.957031 14.140625 C -2.898438 14.140625 -2.839844 14.140625 -2.78125 14.140625 C -2.308594 14.140625 -1.835938 13.847656 -1.65625 13.433594 C 3.492188 -1.359375 8.519531 -7.515625 10 -7.515625 C 10.058594 -7.515625 10.058594 -7.515625 10.058594 -7.515625 C 10.296875 -7.515625 10.945312 -6.804688 11.125 -4.082031 C 11.183594 -2.664062 11.480469 1.539062 14.199219 2.25 C 15.382812 2.542969 18.875 3.433594 28.34375 -11.953125 C 28.699219 -12.484375 28.519531 -13.195312 27.988281 -13.492188 Z M 15.917969 -52.839844 C 15.445312 -50.472656 13.785156 -45.382812 9.824219 -37.394531 C 12.070312 -45.917969 14.496094 -50.828125 15.917969 -52.839844 Z M 15.917969 -52.839844 "/></g></g></g><g fill="#1a1a1a" fill-opacity="1"><g transform="translate(268.163039, 234.248575)"><g><path d="M 20 -13.195312 C 19.46875 -13.550781 18.757812 -13.433594 18.402344 -12.898438 C 13.964844 -6.6875 10.355469 -2.78125 6.804688 -0.238281 C 5.03125 1.007812 3.3125 1.242188 2.1875 0.414062 C 1.480469 -0.117188 -0.710938 -2.484375 1.835938 -10.769531 C 7.574219 -15.503906 10.710938 -20 9.882812 -22.367188 C 9.585938 -23.078125 8.875 -23.550781 8.105469 -23.550781 C 5.738281 -23.492188 2.128906 -19.40625 -0.238281 -11.773438 C -3.136719 -2.367188 -0.769531 1.066406 0.886719 2.25 C 1.714844 2.898438 2.664062 3.195312 3.726562 3.195312 C 5.089844 3.195312 6.628906 2.664062 8.105469 1.597656 C 11.894531 -1.125 15.621094 -5.148438 20.238281 -11.597656 C 20.589844 -12.128906 20.472656 -12.839844 20 -13.195312 Z M 7.632812 -21.066406 C 7.394531 -20.117188 6.390625 -18.226562 3.609375 -15.382812 C 5.148438 -18.816406 6.804688 -20.472656 7.632812 -21.066406 Z M 7.632812 -21.066406 "/></g></g></g><g fill="#1a1a1a" fill-opacity="1"><g transform="translate(285.379676, 234.248575)"><g><path d="M 17.394531 -55.441406 C 16.980469 -55.976562 16.390625 -56.210938 15.796875 -56.152344 C 12.425781 -55.5625 8.816406 -42.957031 7.8125 -39.113281 C 4.851562 -27.808594 1.125 -11.773438 -1.894531 2.605469 C -3.3125 9.40625 -4.4375 15.148438 -5.148438 19.289062 C -6.332031 26.273438 -6.152344 27.160156 -5.03125 27.457031 C -4.910156 27.515625 -4.792969 27.515625 -4.675781 27.515625 C -3.609375 27.515625 -3.078125 26.09375 -2.542969 24.554688 C -2.367188 23.964844 -2.664062 23.3125 -3.253906 23.136719 C -3.3125 23.078125 -3.371094 23.078125 -3.433594 23.078125 C -2.1875 14.554688 2.898438 -10.238281 8.105469 -31.003906 C 8.105469 -31.066406 8.164062 -31.125 8.226562 -31.183594 C 15.917969 -43.371094 18.933594 -53.078125 17.394531 -55.441406 Z M 10.117188 -38.992188 C 12.367188 -47.335938 14.378906 -51.359375 15.445312 -53.015625 C 15.207031 -50.828125 13.90625 -46.09375 10.117188 -38.992188 Z M 10.117188 -38.992188 "/></g></g></g><g fill="#1a1a1a" fill-opacity="1"><g transform="translate(294.372566, 234.248575)"><g><path d="M 17.394531 -55.441406 C 16.980469 -55.976562 16.390625 -56.210938 15.796875 -56.152344 C 12.425781 -55.5625 8.816406 -42.957031 7.8125 -39.113281 C 4.851562 -27.808594 1.125 -11.773438 -1.894531 2.605469 C -3.3125 9.40625 -4.4375 15.148438 -5.148438 19.289062 C -6.332031 26.273438 -6.152344 27.160156 -5.03125 27.457031 C -4.910156 27.515625 -4.792969 27.515625 -4.675781 27.515625 C -3.609375 27.515625 -3.078125 26.09375 -2.542969 24.554688 C -2.367188 23.964844 -2.664062 23.3125 -3.253906 23.136719 C -3.3125 23.078125 -3.371094 23.078125 -3.433594 23.078125 C -2.1875 14.554688 2.898438 -10.238281 8.105469 -31.003906 C 8.105469 -31.066406 8.164062 -31.125 8.226562 -31.183594 C 15.917969 -43.371094 18.933594 -53.078125 17.394531 -55.441406 Z M 10.117188 -38.992188 C 12.367188 -47.335938 14.378906 -51.359375 15.445312 -53.015625 C 15.207031 -50.828125 13.90625 -46.09375 10.117188 -38.992188 Z M 10.117188 -38.992188 "/></g></g></g><g fill="#1a1a1a" fill-opacity="1"><g transform="translate(74.329442, 293.848881)"><g><path d="M 6.46875 -12.046875 C 8.007812 -12.046875 9.210938 -11.675781 10.078125 -10.9375 C 10.953125 -10.207031 11.390625 -9.195312 11.390625 -7.90625 C 11.390625 -6.625 10.953125 -5.617188 10.078125 -4.890625 C 9.210938 -4.160156 8.007812 -3.796875 6.46875 -3.796875 L 3.234375 -3.796875 L 3.234375 0 L 1.96875 0 L 1.96875 -12.046875 Z M 6.4375 -4.921875 C 7.625 -4.921875 8.53125 -5.179688 9.15625 -5.703125 C 9.789062 -6.222656 10.109375 -6.957031 10.109375 -7.90625 C 10.109375 -8.882812 9.789062 -9.632812 9.15625 -10.15625 C 8.53125 -10.675781 7.625 -10.9375 6.4375 -10.9375 L 3.234375 -10.9375 L 3.234375 -4.921875 Z M 6.4375 -4.921875 "/></g></g></g><g fill="#1a1a1a" fill-opacity="1"><g transform="translate(95.274334, 293.848881)"><g><path d="M 12.03125 -12.046875 L 12.03125 0 L 10.765625 0 L 10.765625 -5.5625 L 3.234375 -5.5625 L 3.234375 0 L 1.96875 0 L 1.96875 -12.046875 L 3.234375 -12.046875 L 3.234375 -6.671875 L 10.765625 -6.671875 L 10.765625 -12.046875 Z M 12.03125 -12.046875 "/></g></g></g><g fill="#1a1a1a" fill-opacity="1"><g transform="translate(117.85199, 293.848881)"><g><path d="M 7.21875 0.109375 C 6.03125 0.109375 4.953125 -0.15625 3.984375 -0.6875 C 3.015625 -1.226562 2.253906 -1.960938 1.703125 -2.890625 C 1.160156 -3.816406 0.890625 -4.859375 0.890625 -6.015625 C 0.890625 -7.179688 1.160156 -8.226562 1.703125 -9.15625 C 2.253906 -10.082031 3.015625 -10.8125 3.984375 -11.34375 C 4.953125 -11.875 6.03125 -12.140625 7.21875 -12.140625 C 8.414062 -12.140625 9.492188 -11.875 10.453125 -11.34375 C 11.410156 -10.820312 12.160156 -10.09375 12.703125 -9.15625 C 13.253906 -8.226562 13.53125 -7.179688 13.53125 -6.015625 C 13.53125 -4.859375 13.253906 -3.8125 12.703125 -2.875 C 12.160156 -1.945312 11.410156 -1.21875 10.453125 -0.6875 C 9.492188 -0.15625 8.414062 0.109375 7.21875 0.109375 Z M 7.21875 -1.03125 C 8.175781 -1.03125 9.035156 -1.242188 9.796875 -1.671875 C 10.566406 -2.109375 11.171875 -2.707031 11.609375 -3.46875 C 12.046875 -4.226562 12.265625 -5.078125 12.265625 -6.015625 C 12.265625 -6.960938 12.046875 -7.816406 11.609375 -8.578125 C 11.171875 -9.335938 10.566406 -9.929688 9.796875 -10.359375 C 9.035156 -10.796875 8.175781 -11.015625 7.21875 -11.015625 C 6.269531 -11.015625 5.40625 -10.796875 4.625 -10.359375 C 3.851562 -9.929688 3.25 -9.335938 2.8125 -8.578125 C 2.375 -7.816406 2.15625 -6.960938 2.15625 -6.015625 C 2.15625 -5.078125 2.375 -4.226562 2.8125 -3.46875 C 3.25 -2.707031 3.851562 -2.109375 4.625 -1.671875 C 5.40625 -1.242188 6.269531 -1.03125 7.21875 -1.03125 Z M 7.21875 -1.03125 "/></g></g></g><g fill="#1a1a1a" fill-opacity="1"><g transform="translate(140.876514, 293.848881)"><g><path d="M 4.296875 -10.9375 L 0.0625 -10.9375 L 0.0625 -12.046875 L 9.8125 -12.046875 L 9.8125 -10.9375 L 5.578125 -10.9375 L 5.578125 0 L 4.296875 0 Z M 4.296875 -10.9375 "/></g></g></g><g fill="#1a1a1a" fill-opacity="1"><g transform="translate(159.346457, 293.848881)"><g><path d="M 7.21875 0.109375 C 6.03125 0.109375 4.953125 -0.15625 3.984375 -0.6875 C 3.015625 -1.226562 2.253906 -1.960938 1.703125 -2.890625 C 1.160156 -3.816406 0.890625 -4.859375 0.890625 -6.015625 C 0.890625 -7.179688 1.160156 -8.226562 1.703125 -9.15625 C 2.253906 -10.082031 3.015625 -10.8125 3.984375 -11.34375 C 4.953125 -11.875 6.03125 -12.140625 7.21875 -12.140625 C 8.414062 -12.140625 9.492188 -11.875 10.453125 -11.34375 C 11.410156 -10.820312 12.160156 -10.09375 12.703125 -9.15625 C 13.253906 -8.226562 13.53125 -7.179688 13.53125 -6.015625 C 13.53125 -4.859375 13.253906 -3.8125 12.703125 -2.875 C 12.160156 -1.945312 11.410156 -1.21875 10.453125 -0.6875 C 9.492188 -0.15625 8.414062 0.109375 7.21875 0.109375 Z M 7.21875 -1.03125 C 8.175781 -1.03125 9.035156 -1.242188 9.796875 -1.671875 C 10.566406 -2.109375 11.171875 -2.707031 11.609375 -3.46875 C 12.046875 -4.226562 12.265625 -5.078125 12.265625 -6.015625 C 12.265625 -6.960938 12.046875 -7.816406 11.609375 -8.578125 C 11.171875 -9.335938 10.566406 -9.929688 9.796875 -10.359375 C 9.035156 -10.796875 8.175781 -11.015625 7.21875 -11.015625 C 6.269531 -11.015625 5.40625 -10.796875 4.625 -10.359375 C 3.851562 -9.929688 3.25 -9.335938 2.8125 -8.578125 C 2.375 -7.816406 2.15625 -6.960938 2.15625 -6.015625 C 2.15625 -5.078125 2.375 -4.226562 2.8125 -3.46875 C 3.25 -2.707031 3.851562 -2.109375 4.625 -1.671875 C 5.40625 -1.242188 6.269531 -1.03125 7.21875 -1.03125 Z M 7.21875 -1.03125 "/></g></g></g><g fill="#1a1a1a" fill-opacity="1"><g transform="translate(182.370986, 293.848881)"><g><path d="M 10.4375 -6.015625 L 11.65625 -6.015625 L 11.65625 -1.421875 C 11.101562 -0.929688 10.441406 -0.550781 9.671875 -0.28125 C 8.898438 -0.0195312 8.09375 0.109375 7.25 0.109375 C 6.039062 0.109375 4.953125 -0.15625 3.984375 -0.6875 C 3.023438 -1.21875 2.269531 -1.945312 1.71875 -2.875 C 1.164062 -3.8125 0.890625 -4.859375 0.890625 -6.015625 C 0.890625 -7.179688 1.164062 -8.226562 1.71875 -9.15625 C 2.269531 -10.09375 3.023438 -10.820312 3.984375 -11.34375 C 4.953125 -11.875 6.046875 -12.140625 7.265625 -12.140625 C 8.179688 -12.140625 9.019531 -11.992188 9.78125 -11.703125 C 10.550781 -11.410156 11.203125 -10.976562 11.734375 -10.40625 L 10.9375 -9.59375 C 9.988281 -10.539062 8.78125 -11.015625 7.3125 -11.015625 C 6.332031 -11.015625 5.453125 -10.796875 4.671875 -10.359375 C 3.890625 -9.929688 3.273438 -9.335938 2.828125 -8.578125 C 2.378906 -7.816406 2.15625 -6.960938 2.15625 -6.015625 C 2.15625 -5.078125 2.378906 -4.226562 2.828125 -3.46875 C 3.273438 -2.71875 3.882812 -2.125 4.65625 -1.6875 C 5.4375 -1.25 6.316406 -1.03125 7.296875 -1.03125 C 8.535156 -1.03125 9.582031 -1.34375 10.4375 -1.96875 Z M 10.4375 -6.015625 "/></g></g></g><g fill="#1a1a1a" fill-opacity="1"><g transform="translate(204.261171, 293.848881)"><g><path d="M 10.1875 0 L 7.4375 -3.875 C 7.125 -3.832031 6.800781 -3.8125 6.46875 -3.8125 L 3.234375 -3.8125 L 3.234375 0 L 1.96875 0 L 1.96875 -12.046875 L 6.46875 -12.046875 C 8.007812 -12.046875 9.210938 -11.675781 10.078125 -10.9375 C 10.953125 -10.207031 11.390625 -9.195312 11.390625 -7.90625 C 11.390625 -6.96875 11.148438 -6.175781 10.671875 -5.53125 C 10.191406 -4.882812 9.515625 -4.414062 8.640625 -4.125 L 11.578125 0 Z M 6.4375 -4.90625 C 7.625 -4.90625 8.53125 -5.164062 9.15625 -5.6875 C 9.789062 -6.21875 10.109375 -6.957031 10.109375 -7.90625 C 10.109375 -8.882812 9.789062 -9.632812 9.15625 -10.15625 C 8.53125 -10.675781 7.625 -10.9375 6.4375 -10.9375 L 3.234375 -10.9375 L 3.234375 -4.90625 Z M 6.4375 -4.90625 "/></g></g></g><g fill="#1a1a1a" fill-opacity="1"><g transform="translate(225.292006, 293.848881)"><g><path d="M 9.515625 -3.21875 L 2.796875 -3.21875 L 1.359375 0 L 0.03125 0 L 5.546875 -12.046875 L 6.796875 -12.046875 L 12.296875 0 L 10.953125 0 Z M 9.046875 -4.25 L 6.15625 -10.71875 L 3.265625 -4.25 Z M 9.046875 -4.25 "/></g></g></g><g fill="#1a1a1a" fill-opacity="1"><g transform="translate(246.219701, 293.848881)"><g><path d="M 6.46875 -12.046875 C 8.007812 -12.046875 9.210938 -11.675781 10.078125 -10.9375 C 10.953125 -10.207031 11.390625 -9.195312 11.390625 -7.90625 C 11.390625 -6.625 10.953125 -5.617188 10.078125 -4.890625 C 9.210938 -4.160156 8.007812 -3.796875 6.46875 -3.796875 L 3.234375 -3.796875 L 3.234375 0 L 1.96875 0 L 1.96875 -12.046875 Z M 6.4375 -4.921875 C 7.625 -4.921875 8.53125 -5.179688 9.15625 -5.703125 C 9.789062 -6.222656 10.109375 -6.957031 10.109375 -7.90625 C 10.109375 -8.882812 9.789062 -9.632812 9.15625 -10.15625 C 8.53125 -10.675781 7.625 -10.9375 6.4375 -10.9375 L 3.234375 -10.9375 L 3.234375 -4.921875 Z M 6.4375 -4.921875 "/></g></g></g><g fill="#1a1a1a" fill-opacity="1"><g transform="translate(267.164598, 293.848881)"><g><path d="M 12.03125 -12.046875 L 12.03125 0 L 10.765625 0 L 10.765625 -5.5625 L 3.234375 -5.5625 L 3.234375 0 L 1.96875 0 L 1.96875 -12.046875 L 3.234375 -12.046875 L 3.234375 -6.671875 L 10.765625 -6.671875 L 10.765625 -12.046875 Z M 12.03125 -12.046875 "/></g></g></g><g fill="#1a1a1a" fill-opacity="1"><g transform="translate(289.74226, 293.848881)"><g><path d="M 6.09375 -4.15625 L 6.09375 0 L 4.828125 0 L 4.828125 -4.15625 L 0.015625 -12.046875 L 1.375 -12.046875 L 5.5 -5.28125 L 9.640625 -12.046875 L 10.90625 -12.046875 Z M 6.09375 -4.15625 "/></g></g></g></svg>