<svg xmlns="http://www.w3.org/2000/svg" xmlns:xlink="http://www.w3.org/1999/xlink" width="500" zoomAndPan="magnify" viewBox="0 0 375 374.999991" height="500" preserveAspectRatio="xMidYMid meet" version="1.0"><defs><g/><clipPath id="98d8566222"><path d="M 222.300781 142.011719 L 322.800781 142.011719 L 322.800781 205 L 222.300781 205 Z M 222.300781 142.011719 " clip-rule="nonzero"/></clipPath><clipPath id="e407d41933"><path d="M 247 153 L 300 153 L 300 205.761719 L 247 205.761719 Z M 247 153 " clip-rule="nonzero"/></clipPath></defs><rect x="-37.5" width="450" fill="#ffffff" y="-37.499999" height="449.999989" fill-opacity="1"/><rect x="-37.5" width="450" fill="#ffffff" y="-37.499999" height="449.999989" fill-opacity="1"/><rect x="-37.5" width="450" fill="#ffffff" y="-37.499999" height="449.999989" fill-opacity="1"/><path fill="#1a1a1a" d="M 265.679688 188.074219 C 263.339844 185.988281 261.867188 182.957031 261.867188 179.582031 C 261.867188 179.296875 261.875 179.011719 261.898438 178.730469 C 261.921875 178.699219 261.945312 178.667969 261.96875 178.640625 C 262.058594 178.523438 262.148438 178.410156 262.238281 178.300781 C 262.273438 178.257812 262.308594 178.210938 262.347656 178.167969 C 262.429688 178.066406 262.515625 177.96875 262.597656 177.871094 C 262.648438 177.8125 262.695312 177.753906 262.746094 177.695312 C 262.820312 177.613281 262.894531 177.53125 262.96875 177.449219 C 263.046875 177.359375 263.128906 177.273438 263.207031 177.191406 C 263.253906 177.140625 263.300781 177.089844 263.347656 177.042969 C 264.796875 175.523438 266.265625 174.476562 267.675781 173.769531 C 266.53125 175.132812 265.855469 176.53125 265.46875 177.570312 C 264.28125 180.757812 264.355469 184.28125 265.679688 188.074219 " fill-opacity="1" fill-rule="nonzero"/><path fill="#1a1a1a" d="M 262.246094 177.09375 C 262.199219 177.148438 262.152344 177.199219 262.105469 177.253906 C 262.832031 173.75 265.179688 170.835938 268.328125 169.320312 C 268.378906 169.328125 268.425781 169.332031 268.472656 169.339844 C 268.535156 169.347656 268.59375 169.355469 268.652344 169.367188 C 271.570312 169.800781 273.800781 170.710938 275.503906 171.824219 C 274.785156 171.699219 274.050781 171.636719 273.300781 171.636719 C 272.09375 171.636719 270.6875 171.804688 269.175781 172.308594 L 269.164062 172.308594 C 269.117188 172.324219 269.074219 172.339844 269.03125 172.355469 L 268.992188 172.371094 C 266.550781 173.21875 264.308594 174.78125 262.304688 177.03125 L 262.246094 177.09375 " fill-opacity="1" fill-rule="nonzero"/><path fill="#1a1a1a" d="M 276.875 190.394531 C 275.746094 190.765625 274.542969 190.96875 273.289062 190.96875 C 270.90625 190.96875 268.691406 190.242188 266.863281 188.996094 C 266.839844 188.945312 266.820312 188.898438 266.800781 188.851562 C 266.769531 188.769531 266.738281 188.691406 266.710938 188.609375 C 265.648438 185.90625 265.328125 183.550781 265.445312 181.535156 C 266.054688 183.199219 266.929688 184.472656 267.636719 185.324219 C 269.8125 187.945312 272.914062 189.644531 276.875 190.394531 " fill-opacity="1" fill-rule="nonzero"/><path fill="#1a1a1a" d="M 269.71875 168.761719 C 270.84375 168.390625 272.039062 168.195312 273.289062 168.195312 C 275.671875 168.195312 277.886719 168.921875 279.71875 170.167969 C 279.734375 170.210938 279.75 170.25 279.765625 170.289062 C 279.800781 170.371094 279.832031 170.449219 279.863281 170.53125 C 280.011719 170.90625 280.144531 171.273438 280.261719 171.632812 L 280.273438 171.664062 C 281.007812 173.90625 281.226562 175.886719 281.128906 177.617188 C 280.515625 175.953125 279.644531 174.675781 278.941406 173.828125 C 276.765625 171.210938 273.667969 169.511719 269.71875 168.761719 " fill-opacity="1" fill-rule="nonzero"/><path fill="#1a1a1a" d="M 284.316406 182.070312 C 284.371094 182.011719 284.421875 181.953125 284.472656 181.894531 C 283.746094 185.398438 281.40625 188.316406 278.261719 189.835938 C 278.210938 189.828125 278.164062 189.820312 278.113281 189.816406 C 278.027344 189.800781 277.941406 189.789062 277.855469 189.777344 C 277.457031 189.714844 277.070312 189.648438 276.699219 189.570312 L 276.667969 189.5625 C 274.351562 189.078125 272.519531 188.277344 271.066406 187.328125 C 271.789062 187.453125 272.523438 187.515625 273.273438 187.515625 C 274.480469 187.515625 275.890625 187.34375 277.402344 186.84375 L 277.421875 186.835938 C 277.46875 186.824219 277.511719 186.804688 277.558594 186.792969 L 277.574219 186.785156 C 280.023438 185.9375 282.273438 184.367188 284.28125 182.109375 L 284.316406 182.070312 " fill-opacity="1" fill-rule="nonzero"/><path fill="#1a1a1a" d="M 284.707031 179.582031 C 284.707031 179.863281 284.699219 180.144531 284.679688 180.421875 C 284.652344 180.457031 284.625 180.488281 284.597656 180.523438 C 284.515625 180.628906 284.429688 180.734375 284.34375 180.839844 C 284.300781 180.894531 284.257812 180.949219 284.214844 181 C 284.136719 181.09375 284.058594 181.1875 283.980469 181.277344 C 283.921875 181.34375 283.863281 181.414062 283.804688 181.480469 C 283.738281 181.554688 283.675781 181.625 283.613281 181.699219 C 283.515625 181.804688 283.417969 181.910156 283.320312 182.011719 C 283.292969 182.042969 283.261719 182.074219 283.234375 182.105469 C 281.78125 183.625 280.3125 184.671875 278.898438 185.382812 C 280.042969 184.019531 280.71875 182.621094 281.105469 181.582031 C 282.292969 178.398438 282.21875 174.878906 280.898438 171.09375 C 283.238281 173.175781 284.707031 176.207031 284.707031 179.582031 " fill-opacity="1" fill-rule="nonzero"/><g clip-path="url(#98d8566222)"><path fill="#1a1a1a" d="M 321.632812 204.738281 C 321.632812 204.738281 321.609375 203.933594 321.5625 202.425781 C 321.523438 200.917969 321.441406 198.710938 321.378906 195.898438 C 321.3125 193.085938 321.230469 189.667969 321.140625 185.75 C 321.058594 181.835938 320.964844 177.414062 320.894531 172.59375 C 320.816406 167.773438 320.730469 162.546875 320.671875 157.023438 L 320.667969 156.503906 L 320.664062 156.246094 L 320.652344 156.035156 L 320.636719 155.773438 C 320.628906 155.683594 320.613281 155.644531 320.601562 155.574219 L 320.570312 155.390625 C 320.558594 155.328125 320.535156 155.257812 320.519531 155.191406 C 320.371094 154.648438 320.109375 154.128906 319.753906 153.6875 C 319.042969 152.789062 317.933594 152.21875 316.78125 152.171875 L 316.5625 152.164062 L 316.28125 152.160156 L 315.730469 152.152344 C 315.363281 152.144531 314.996094 152.140625 314.625 152.136719 C 313.890625 152.121094 313.148438 152.101562 312.40625 152.085938 C 310.917969 152.046875 309.414062 152 307.898438 151.9375 C 304.867188 151.816406 301.785156 151.667969 298.652344 151.402344 C 297.085938 151.261719 295.511719 151.109375 293.898438 150.851562 C 293.082031 150.695312 292.28125 150.582031 291.382812 150.230469 C 290.566406 149.925781 289.808594 149.558594 289.058594 149.144531 C 288.3125 148.722656 287.585938 148.25 286.878906 147.617188 C 286.53125 147.292969 286.164062 146.910156 285.863281 146.386719 L 285.304688 145.351562 C 285.136719 145.046875 284.964844 144.816406 284.835938 144.695312 C 284.695312 144.585938 284.660156 144.5625 284.507812 144.550781 L 284.449219 144.546875 C 284.429688 144.542969 284.359375 144.546875 284.316406 144.546875 L 283.414062 144.546875 L 282.210938 144.550781 C 278.996094 144.554688 275.773438 144.566406 272.550781 144.570312 C 269.328125 144.566406 266.101562 144.558594 262.890625 144.550781 L 261.085938 144.546875 L 260.710938 144.546875 C 260.613281 144.546875 260.753906 144.542969 260.710938 144.546875 L 260.5625 144.554688 C 260.460938 144.5625 260.398438 144.589844 260.265625 144.695312 C 260.136719 144.820312 259.964844 145.046875 259.796875 145.355469 L 259.230469 146.394531 C 259.007812 146.808594 258.550781 147.328125 258.222656 147.617188 C 257.515625 148.25 256.789062 148.726562 256.042969 149.144531 C 255.292969 149.5625 254.535156 149.925781 253.71875 150.230469 C 253.316406 150.382812 252.875 150.527344 252.402344 150.621094 C 252.011719 150.699219 251.636719 150.78125 251.238281 150.847656 L 250.003906 151.03125 C 249.59375 151.089844 249.207031 151.125 248.808594 151.171875 C 248.015625 151.269531 247.230469 151.332031 246.445312 151.40625 C 243.316406 151.667969 240.234375 151.820312 237.203125 151.941406 C 235.6875 152.003906 234.183594 152.046875 232.695312 152.089844 C 231.953125 152.105469 231.210938 152.125 230.472656 152.140625 C 230.105469 152.144531 229.738281 152.152344 229.371094 152.15625 L 228.820312 152.164062 L 228.578125 152.167969 L 228.304688 152.175781 C 228.097656 152.175781 228 152.207031 227.871094 152.222656 C 227.753906 152.226562 227.605469 152.277344 227.46875 152.308594 C 227.191406 152.378906 226.925781 152.488281 226.667969 152.613281 C 226.15625 152.871094 225.707031 153.246094 225.347656 153.6875 C 224.992188 154.132812 224.730469 154.648438 224.585938 155.191406 C 224.542969 155.328125 224.519531 155.464844 224.496094 155.605469 C 224.46875 155.742188 224.460938 155.882812 224.453125 156.023438 C 224.449219 156.097656 224.441406 156.15625 224.4375 156.246094 L 224.433594 156.503906 L 224.429688 157.023438 C 224.394531 159.785156 224.363281 162.472656 224.328125 165.070312 C 224.289062 167.671875 224.246094 170.183594 224.207031 172.59375 C 224.136719 177.414062 224.042969 181.835938 223.960938 185.75 C 223.867188 189.667969 223.789062 193.085938 223.722656 195.898438 C 223.660156 198.710938 223.578125 200.917969 223.539062 202.425781 C 223.492188 203.933594 223.46875 204.738281 223.46875 204.738281 C 223.46875 204.738281 223.445312 203.933594 223.398438 202.425781 C 223.355469 200.917969 223.277344 198.710938 223.210938 195.898438 C 223.144531 193.085938 223.066406 189.667969 222.976562 185.75 C 222.890625 181.835938 222.796875 177.414062 222.726562 172.59375 C 222.6875 170.183594 222.648438 167.671875 222.605469 165.070312 C 222.574219 162.472656 222.539062 159.785156 222.503906 157.023438 L 222.5 156.503906 L 222.496094 156.246094 C 222.496094 156.15625 222.5 156.042969 222.503906 155.941406 C 222.511719 155.738281 222.519531 155.53125 222.554688 155.324219 C 222.582031 155.117188 222.613281 154.914062 222.671875 154.710938 C 222.867188 153.898438 223.238281 153.121094 223.753906 152.449219 C 224.78125 151.089844 226.414062 150.179688 228.195312 150.0625 C 229.65625 150.003906 231.132812 149.949219 232.621094 149.890625 C 234.101562 149.828125 235.59375 149.761719 237.097656 149.679688 C 240.105469 149.519531 243.160156 149.324219 246.226562 149.023438 C 246.988281 148.9375 247.757812 148.871094 248.515625 148.765625 C 248.894531 148.714844 249.285156 148.671875 249.652344 148.613281 L 250.75 148.4375 C 251.125 148.371094 251.519531 148.285156 251.898438 148.207031 C 252.199219 148.144531 252.511719 148.046875 252.847656 147.917969 C 253.511719 147.667969 254.179688 147.339844 254.816406 146.984375 C 255.449219 146.628906 256.050781 146.214844 256.53125 145.785156 C 256.78125 145.53125 256.867188 145.460938 257.039062 145.179688 C 257.214844 144.867188 257.390625 144.511719 257.609375 144.121094 C 257.832031 143.730469 258.101562 143.289062 258.550781 142.855469 C 259.007812 142.425781 259.703125 142.078125 260.40625 142.042969 L 260.710938 142.027344 L 261.6875 142.027344 L 262.890625 142.023438 C 266.101562 142.015625 269.328125 142.007812 272.550781 142.003906 C 275.773438 142.011719 278.996094 142.019531 282.210938 142.027344 L 283.414062 142.027344 L 284.015625 142.03125 L 284.316406 142.03125 C 284.371094 142.03125 284.398438 142.027344 284.480469 142.03125 L 284.722656 142.046875 C 285.046875 142.070312 285.394531 142.15625 285.710938 142.300781 C 286.039062 142.441406 286.3125 142.648438 286.546875 142.859375 C 286.996094 143.289062 287.269531 143.734375 287.488281 144.121094 C 287.597656 144.3125 287.699219 144.503906 287.789062 144.679688 L 288.0625 145.1875 C 288.160156 145.359375 288.335938 145.566406 288.570312 145.785156 C 289.046875 146.21875 289.652344 146.628906 290.285156 146.988281 C 290.917969 147.34375 291.589844 147.671875 292.25 147.921875 C 292.824219 148.164062 293.59375 148.285156 294.316406 148.433594 C 295.808594 148.695312 297.347656 148.867188 298.875 149.027344 C 301.9375 149.328125 304.996094 149.519531 308.003906 149.683594 C 309.507812 149.765625 311 149.832031 312.476562 149.890625 C 313.972656 149.949219 315.453125 150.007812 316.914062 150.066406 C 317.789062 150.128906 318.648438 150.378906 319.40625 150.792969 C 320.167969 151.199219 320.828125 151.777344 321.34375 152.449219 C 321.859375 153.121094 322.226562 153.898438 322.425781 154.710938 C 322.449219 154.816406 322.476562 154.910156 322.496094 155.019531 L 322.542969 155.351562 C 322.558594 155.460938 322.578125 155.589844 322.582031 155.675781 L 322.589844 155.9375 L 322.597656 156.066406 L 322.597656 156.503906 L 322.589844 157.023438 C 322.535156 162.546875 322.449219 167.773438 322.371094 172.59375 C 322.300781 177.414062 322.207031 181.835938 322.121094 185.75 C 322.03125 189.667969 321.953125 193.085938 321.886719 195.898438 C 321.824219 198.710938 321.742188 200.917969 321.703125 202.425781 C 321.65625 203.933594 321.632812 204.738281 321.632812 204.738281 " fill-opacity="1" fill-rule="nonzero"/></g><g clip-path="url(#e407d41933)"><path fill="#1a1a1a" d="M 273.289062 153.898438 C 259.082031 153.898438 247.53125 165.421875 247.53125 179.582031 C 247.53125 193.742188 259.082031 205.261719 273.289062 205.261719 C 287.492188 205.261719 299.046875 193.742188 299.046875 179.582031 C 299.046875 165.421875 287.492188 153.898438 273.289062 153.898438 Z M 273.289062 203.421875 C 260.105469 203.421875 249.375 192.726562 249.375 179.582031 C 249.375 166.4375 260.105469 155.742188 273.289062 155.742188 C 286.472656 155.742188 297.199219 166.4375 297.199219 179.582031 C 297.199219 192.726562 286.472656 203.421875 273.289062 203.421875 " fill-opacity="1" fill-rule="nonzero"/><path fill="#1a1a1a" d="M 271.640625 153.46875 C 271.375 153.484375 271.171875 153.714844 271.1875 153.980469 C 271.203125 154.246094 271.433594 154.445312 271.699219 154.429688 C 271.96875 154.414062 272.171875 154.1875 272.152344 153.917969 C 272.136719 153.652344 271.90625 153.453125 271.640625 153.46875 Z M 270 153.621094 C 269.734375 153.65625 269.546875 153.894531 269.582031 154.160156 C 269.613281 154.425781 269.855469 154.613281 270.121094 154.578125 C 270.386719 154.546875 270.574219 154.304688 270.542969 154.039062 C 270.507812 153.777344 270.265625 153.589844 270 153.621094 Z M 268.375 153.878906 C 268.113281 153.925781 267.9375 154.179688 267.988281 154.441406 C 268.039062 154.703125 268.292969 154.875 268.554688 154.824219 C 268.816406 154.773438 268.988281 154.523438 268.9375 154.261719 C 268.886719 154 268.636719 153.828125 268.375 153.878906 Z M 266.765625 154.234375 C 266.507812 154.300781 266.351562 154.566406 266.417969 154.824219 C 266.484375 155.082031 266.746094 155.234375 267.003906 155.171875 C 267.265625 155.101562 267.421875 154.839844 267.355469 154.582031 C 267.285156 154.324219 267.023438 154.167969 266.765625 154.234375 Z M 265.183594 154.695312 C 264.929688 154.777344 264.789062 155.050781 264.871094 155.300781 C 264.957031 155.554688 265.230469 155.695312 265.480469 155.613281 C 265.734375 155.527344 265.875 155.257812 265.792969 155.003906 C 265.710938 154.75 265.4375 154.613281 265.183594 154.695312 Z M 263.628906 155.253906 C 263.382812 155.351562 263.261719 155.632812 263.359375 155.878906 C 263.457031 156.125 263.738281 156.246094 263.988281 156.148438 C 264.234375 156.050781 264.355469 155.769531 264.257812 155.523438 C 264.160156 155.277344 263.878906 155.15625 263.628906 155.253906 Z M 262.117188 155.90625 C 261.875 156.023438 261.773438 156.308594 261.886719 156.550781 C 262 156.789062 262.289062 156.894531 262.53125 156.78125 C 262.769531 156.667969 262.875 156.378906 262.761719 156.140625 C 262.648438 155.898438 262.359375 155.796875 262.117188 155.90625 Z M 260.648438 156.65625 C 260.414062 156.785156 260.328125 157.078125 260.457031 157.3125 C 260.585938 157.542969 260.882812 157.628906 261.117188 157.503906 L 261.117188 157.5 C 261.347656 157.371094 261.433594 157.082031 261.304688 156.847656 C 261.175781 156.613281 260.882812 156.53125 260.648438 156.65625 Z M 259.230469 157.496094 C 259.003906 157.640625 258.9375 157.9375 259.082031 158.164062 C 259.226562 158.386719 259.523438 158.453125 259.75 158.308594 C 259.972656 158.167969 260.039062 157.867188 259.898438 157.644531 C 259.753906 157.417969 259.457031 157.355469 259.230469 157.496094 Z M 257.867188 158.421875 C 257.652344 158.578125 257.605469 158.878906 257.761719 159.097656 C 257.917969 159.3125 258.222656 159.359375 258.4375 159.203125 C 258.652344 159.042969 258.699219 158.742188 258.542969 158.527344 C 258.386719 158.3125 258.085938 158.265625 257.867188 158.421875 Z M 256.566406 159.429688 C 256.359375 159.601562 256.332031 159.90625 256.503906 160.109375 C 256.671875 160.316406 256.976562 160.34375 257.183594 160.171875 C 257.390625 160.003906 257.417969 159.699219 257.246094 159.496094 C 257.078125 159.289062 256.773438 159.261719 256.566406 159.429688 Z M 255.332031 160.519531 C 255.136719 160.699219 255.128906 161.003906 255.308594 161.199219 C 255.492188 161.394531 255.800781 161.402344 255.992188 161.222656 C 256.1875 161.039062 256.195312 160.734375 256.015625 160.539062 C 255.832031 160.347656 255.527344 160.335938 255.332031 160.519531 Z M 254.167969 161.679688 C 253.984375 161.875 253.992188 162.179688 254.1875 162.359375 C 254.382812 162.542969 254.6875 162.535156 254.871094 162.339844 C 255.054688 162.144531 255.042969 161.839844 254.851562 161.660156 C 254.65625 161.476562 254.347656 161.484375 254.167969 161.679688 Z M 253.078125 162.910156 C 252.90625 163.117188 252.933594 163.421875 253.140625 163.589844 C 253.34375 163.761719 253.648438 163.730469 253.820312 163.527344 C 253.992188 163.320312 253.960938 163.015625 253.757812 162.847656 C 253.550781 162.679688 253.246094 162.707031 253.078125 162.910156 Z M 252.066406 164.207031 C 251.90625 164.421875 251.957031 164.722656 252.171875 164.882812 C 252.386719 165.039062 252.691406 164.992188 252.847656 164.777344 C 253.003906 164.558594 252.957031 164.257812 252.742188 164.101562 C 252.523438 163.945312 252.222656 163.992188 252.066406 164.207031 Z M 251.136719 165.5625 C 250.992188 165.789062 251.0625 166.085938 251.285156 166.230469 C 251.511719 166.375 251.808594 166.308594 251.953125 166.082031 C 252.097656 165.859375 252.03125 165.558594 251.804688 165.417969 C 251.582031 165.273438 251.28125 165.339844 251.136719 165.5625 Z M 250.296875 166.976562 C 250.167969 167.207031 250.253906 167.5 250.488281 167.632812 C 250.722656 167.757812 251.015625 167.675781 251.144531 167.441406 C 251.273438 167.207031 251.1875 166.914062 250.953125 166.785156 C 250.722656 166.660156 250.425781 166.742188 250.296875 166.976562 Z M 249.546875 168.4375 C 249.433594 168.675781 249.535156 168.964844 249.777344 169.078125 C 250.019531 169.191406 250.308594 169.089844 250.421875 168.847656 C 250.535156 168.609375 250.433594 168.320312 250.191406 168.207031 C 249.949219 168.09375 249.660156 168.195312 249.546875 168.4375 Z M 248.890625 169.941406 C 248.792969 170.1875 248.914062 170.46875 249.164062 170.566406 C 249.410156 170.664062 249.691406 170.542969 249.789062 170.296875 C 249.886719 170.050781 249.769531 169.769531 249.519531 169.671875 C 249.269531 169.574219 248.988281 169.695312 248.890625 169.941406 Z M 248.332031 171.488281 C 248.25 171.738281 248.386719 172.011719 248.640625 172.09375 C 248.894531 172.175781 249.167969 172.039062 249.25 171.785156 C 249.332031 171.53125 249.195312 171.261719 248.941406 171.179688 C 248.6875 171.09375 248.414062 171.234375 248.332031 171.488281 Z M 247.871094 173.0625 C 247.804688 173.320312 247.960938 173.585938 248.21875 173.652344 C 248.476562 173.714844 248.742188 173.5625 248.808594 173.304688 C 248.871094 173.046875 248.71875 172.785156 248.457031 172.71875 C 248.199219 172.652344 247.9375 172.804688 247.871094 173.0625 Z M 247.511719 174.667969 C 247.460938 174.929688 247.632812 175.179688 247.894531 175.230469 C 248.15625 175.28125 248.410156 175.109375 248.460938 174.847656 C 248.511719 174.585938 248.335938 174.332031 248.074219 174.285156 C 247.8125 174.234375 247.5625 174.40625 247.511719 174.667969 Z M 247.253906 176.289062 C 247.21875 176.554688 247.40625 176.796875 247.671875 176.828125 C 247.9375 176.863281 248.179688 176.675781 248.210938 176.410156 C 248.246094 176.144531 248.058594 175.90625 247.792969 175.871094 C 247.527344 175.839844 247.285156 176.027344 247.253906 176.289062 Z M 247.097656 177.925781 C 247.082031 178.191406 247.285156 178.417969 247.550781 178.4375 C 247.816406 178.453125 248.046875 178.25 248.0625 177.984375 C 248.078125 177.71875 247.875 177.492188 247.609375 177.472656 C 247.34375 177.457031 247.113281 177.660156 247.097656 177.925781 Z M 247.046875 179.566406 C 247.046875 179.832031 247.261719 180.046875 247.53125 180.046875 C 247.796875 180.046875 248.011719 179.832031 248.011719 179.566406 C 248.011719 179.300781 247.796875 179.085938 247.53125 179.085938 C 247.261719 179.085938 247.046875 179.300781 247.046875 179.566406 Z M 247.097656 181.207031 C 247.113281 181.472656 247.339844 181.675781 247.609375 181.660156 C 247.875 181.640625 248.078125 181.414062 248.0625 181.148438 C 248.042969 180.882812 247.816406 180.679688 247.550781 180.699219 C 247.28125 180.714844 247.078125 180.941406 247.097656 181.207031 Z M 247.25 182.84375 C 247.28125 183.105469 247.523438 183.292969 247.789062 183.261719 C 248.054688 183.230469 248.242188 182.988281 248.210938 182.722656 L 248.207031 182.722656 C 248.175781 182.460938 247.933594 182.273438 247.667969 182.304688 C 247.402344 182.339844 247.214844 182.578125 247.25 182.84375 Z M 247.503906 184.464844 C 247.554688 184.726562 247.808594 184.898438 248.070312 184.847656 C 248.332031 184.800781 248.503906 184.546875 248.453125 184.289062 C 248.40625 184.023438 248.152344 183.851562 247.890625 183.902344 C 247.628906 183.953125 247.457031 184.203125 247.503906 184.464844 Z M 247.863281 186.070312 C 247.929688 186.328125 248.191406 186.484375 248.449219 186.417969 C 248.710938 186.351562 248.867188 186.089844 248.800781 185.832031 C 248.734375 185.574219 248.46875 185.417969 248.210938 185.484375 C 247.953125 185.546875 247.796875 185.8125 247.863281 186.070312 Z M 248.324219 187.648438 C 248.40625 187.902344 248.675781 188.039062 248.933594 187.957031 C 249.183594 187.875 249.324219 187.601562 249.242188 187.351562 C 249.160156 187.097656 248.886719 186.957031 248.632812 187.039062 C 248.378906 187.121094 248.238281 187.394531 248.324219 187.648438 Z M 248.882812 189.195312 C 248.980469 189.441406 249.261719 189.5625 249.507812 189.464844 C 249.757812 189.367188 249.878906 189.089844 249.78125 188.839844 C 249.683594 188.59375 249.402344 188.472656 249.152344 188.570312 C 248.902344 188.667969 248.785156 188.949219 248.882812 189.195312 Z M 249.539062 190.703125 C 249.652344 190.945312 249.941406 191.046875 250.183594 190.9375 C 250.421875 190.820312 250.527344 190.535156 250.414062 190.292969 C 250.300781 190.054688 250.011719 189.949219 249.769531 190.0625 C 249.527344 190.175781 249.425781 190.464844 249.539062 190.703125 Z M 250.289062 192.167969 C 250.417969 192.402344 250.710938 192.488281 250.945312 192.359375 C 251.179688 192.230469 251.265625 191.9375 251.136719 191.707031 C 251.007812 191.472656 250.710938 191.386719 250.480469 191.515625 C 250.246094 191.644531 250.160156 191.9375 250.289062 192.167969 Z M 251.128906 193.585938 C 251.273438 193.808594 251.570312 193.875 251.796875 193.730469 C 252.023438 193.589844 252.089844 193.292969 251.945312 193.066406 C 251.800781 192.84375 251.503906 192.777344 251.277344 192.917969 C 251.054688 193.0625 250.988281 193.359375 251.128906 193.585938 Z M 252.058594 194.941406 C 252.214844 195.15625 252.515625 195.207031 252.734375 195.050781 C 252.949219 194.890625 252.996094 194.589844 252.839844 194.375 C 252.683594 194.160156 252.378906 194.113281 252.164062 194.269531 C 251.949219 194.425781 251.898438 194.726562 252.058594 194.945312 Z M 253.070312 196.238281 C 253.238281 196.445312 253.542969 196.472656 253.75 196.304688 C 253.953125 196.132812 253.984375 195.832031 253.8125 195.625 C 253.644531 195.421875 253.339844 195.390625 253.132812 195.5625 C 252.925781 195.730469 252.898438 196.035156 253.070312 196.238281 Z M 254.160156 197.472656 C 254.339844 197.667969 254.648438 197.675781 254.839844 197.492188 C 255.035156 197.3125 255.046875 197.007812 254.863281 196.8125 C 254.679688 196.617188 254.375 196.609375 254.179688 196.792969 C 253.984375 196.972656 253.976562 197.28125 254.160156 197.472656 Z M 255.324219 198.636719 C 255.515625 198.816406 255.824219 198.808594 256.003906 198.613281 C 256.191406 198.421875 256.179688 198.117188 255.984375 197.933594 C 255.789062 197.75 255.484375 197.761719 255.300781 197.953125 C 255.121094 198.148438 255.128906 198.453125 255.320312 198.636719 Z M 256.558594 199.722656 C 256.761719 199.890625 257.066406 199.863281 257.238281 199.660156 C 257.410156 199.453125 257.378906 199.152344 257.175781 198.980469 C 256.96875 198.8125 256.664062 198.839844 256.496094 199.042969 C 256.324219 199.25 256.351562 199.550781 256.558594 199.722656 Z M 257.859375 200.730469 C 258.074219 200.886719 258.375 200.839844 258.53125 200.625 C 258.691406 200.410156 258.640625 200.109375 258.425781 199.953125 C 258.210938 199.792969 257.910156 199.84375 257.75 200.058594 C 257.59375 200.273438 257.640625 200.574219 257.859375 200.730469 Z M 259.21875 201.65625 C 259.441406 201.800781 259.742188 201.734375 259.882812 201.507812 C 260.027344 201.285156 259.960938 200.988281 259.738281 200.84375 C 259.511719 200.699219 259.214844 200.765625 259.070312 200.992188 C 258.925781 201.214844 258.992188 201.511719 259.21875 201.65625 Z M 260.632812 202.496094 C 260.867188 202.625 261.160156 202.539062 261.289062 202.304688 C 261.417969 202.074219 261.332031 201.78125 261.101562 201.652344 C 260.867188 201.523438 260.570312 201.605469 260.445312 201.839844 C 260.3125 202.074219 260.398438 202.367188 260.632812 202.496094 Z M 262.097656 203.242188 C 262.339844 203.355469 262.625 203.253906 262.742188 203.015625 C 262.855469 202.773438 262.753906 202.484375 262.511719 202.371094 C 262.269531 202.257812 261.980469 202.363281 261.867188 202.601562 C 261.753906 202.84375 261.855469 203.128906 262.097656 203.242188 Z M 263.605469 203.898438 C 263.855469 203.996094 264.132812 203.875 264.234375 203.628906 C 264.332031 203.382812 264.210938 203.101562 263.964844 203.003906 C 263.714844 202.902344 263.433594 203.023438 263.335938 203.269531 C 263.238281 203.519531 263.359375 203.800781 263.605469 203.898438 Z M 265.15625 204.457031 C 265.410156 204.539062 265.683594 204.402344 265.765625 204.148438 C 265.847656 203.894531 265.710938 203.625 265.457031 203.542969 C 265.203125 203.457031 264.929688 203.597656 264.847656 203.851562 C 264.761719 204.101562 264.902344 204.375 265.15625 204.457031 Z M 266.738281 204.917969 C 266.996094 204.984375 267.257812 204.828125 267.324219 204.570312 C 267.394531 204.316406 267.238281 204.050781 266.980469 203.984375 C 266.71875 203.917969 266.457031 204.074219 266.390625 204.332031 C 266.324219 204.589844 266.480469 204.851562 266.738281 204.917969 Z M 268.347656 205.277344 C 268.609375 205.328125 268.859375 205.15625 268.910156 204.894531 C 268.960938 204.632812 268.789062 204.382812 268.527344 204.332031 C 268.265625 204.28125 268.011719 204.453125 267.960938 204.714844 C 267.910156 204.976562 268.082031 205.226562 268.347656 205.277344 Z M 269.972656 205.535156 C 270.238281 205.570312 270.480469 205.382812 270.511719 205.117188 C 270.546875 204.851562 270.359375 204.613281 270.09375 204.578125 C 269.828125 204.546875 269.585938 204.734375 269.554688 204.996094 C 269.519531 205.261719 269.707031 205.5 269.972656 205.535156 Z M 271.613281 205.691406 C 271.878906 205.707031 272.109375 205.503906 272.125 205.238281 C 272.144531 204.972656 271.941406 204.746094 271.671875 204.730469 C 271.40625 204.710938 271.175781 204.914062 271.160156 205.179688 C 271.144531 205.445312 271.347656 205.671875 271.613281 205.691406 Z M 273.257812 205.742188 C 273.527344 205.742188 273.742188 205.527344 273.742188 205.261719 C 273.746094 204.996094 273.527344 204.777344 273.261719 204.777344 C 272.992188 204.777344 272.777344 204.992188 272.777344 205.261719 C 272.777344 205.527344 272.992188 205.742188 273.257812 205.742188 Z M 274.90625 205.695312 C 275.171875 205.675781 275.375 205.449219 275.359375 205.183594 C 275.34375 204.917969 275.113281 204.714844 274.847656 204.730469 C 274.578125 204.746094 274.378906 204.976562 274.394531 205.242188 C 274.410156 205.507812 274.640625 205.710938 274.90625 205.695312 Z M 276.546875 205.542969 C 276.8125 205.507812 277 205.269531 276.964844 205.003906 C 276.933594 204.738281 276.691406 204.554688 276.425781 204.585938 C 276.160156 204.617188 275.972656 204.859375 276.007812 205.121094 C 276.039062 205.386719 276.28125 205.574219 276.546875 205.542969 Z M 278.175781 205.289062 C 278.4375 205.238281 278.609375 204.984375 278.558594 204.726562 C 278.507812 204.464844 278.257812 204.292969 277.996094 204.339844 C 277.734375 204.390625 277.558594 204.640625 277.609375 204.90625 C 277.65625 205.164062 277.910156 205.335938 278.175781 205.289062 Z M 279.785156 204.933594 C 280.042969 204.867188 280.199219 204.601562 280.128906 204.347656 C 280.066406 204.085938 279.800781 203.933594 279.542969 204 C 279.285156 204.0625 279.128906 204.328125 279.195312 204.585938 C 279.261719 204.839844 279.523438 205 279.785156 204.933594 Z M 281.367188 204.476562 C 281.617188 204.394531 281.757812 204.121094 281.675781 203.867188 C 281.59375 203.613281 281.320312 203.476562 281.066406 203.558594 C 280.8125 203.640625 280.675781 203.910156 280.757812 204.164062 C 280.839844 204.417969 281.113281 204.558594 281.367188 204.476562 Z M 282.917969 203.917969 C 283.167969 203.820312 283.289062 203.539062 283.191406 203.292969 C 283.089844 203.042969 282.8125 202.921875 282.5625 203.023438 C 282.316406 203.121094 282.191406 203.398438 282.292969 203.648438 C 282.390625 203.894531 282.671875 204.015625 282.917969 203.917969 Z M 284.433594 203.265625 C 284.675781 203.152344 284.777344 202.863281 284.664062 202.621094 C 284.550781 202.382812 284.261719 202.277344 284.019531 202.394531 C 283.777344 202.503906 283.675781 202.792969 283.789062 203.035156 C 283.902344 203.273438 284.191406 203.378906 284.433594 203.265625 Z M 285.902344 202.515625 C 286.136719 202.390625 286.222656 202.09375 286.09375 201.863281 C 285.964844 201.628906 285.671875 201.542969 285.4375 201.671875 C 285.203125 201.800781 285.117188 202.09375 285.246094 202.328125 C 285.375 202.5625 285.667969 202.644531 285.902344 202.515625 Z M 287.320312 201.679688 C 287.546875 201.535156 287.613281 201.238281 287.46875 201.011719 C 287.328125 200.789062 287.027344 200.722656 286.804688 200.867188 C 286.578125 201.007812 286.511719 201.304688 286.65625 201.53125 C 286.796875 201.753906 287.09375 201.820312 287.320312 201.679688 Z M 288.683594 200.753906 C 288.902344 200.597656 288.949219 200.296875 288.789062 200.082031 C 288.636719 199.867188 288.332031 199.820312 288.117188 199.976562 C 287.898438 200.132812 287.851562 200.433594 288.007812 200.648438 C 288.167969 200.863281 288.46875 200.910156 288.683594 200.753906 Z M 289.988281 199.75 C 290.191406 199.578125 290.222656 199.273438 290.050781 199.070312 C 289.882812 198.863281 289.578125 198.835938 289.371094 199.003906 C 289.164062 199.175781 289.136719 199.476562 289.304688 199.683594 C 289.476562 199.890625 289.78125 199.917969 289.988281 199.75 Z M 291.222656 198.660156 C 291.417969 198.480469 291.429688 198.175781 291.246094 197.980469 C 291.0625 197.785156 290.757812 197.777344 290.5625 197.957031 C 290.367188 198.140625 290.355469 198.445312 290.539062 198.640625 C 290.722656 198.835938 291.03125 198.84375 291.222656 198.660156 Z M 292.390625 197.5 C 292.574219 197.308594 292.5625 197 292.367188 196.820312 C 292.175781 196.636719 291.867188 196.648438 291.683594 196.839844 C 291.503906 197.035156 291.511719 197.339844 291.707031 197.523438 C 291.902344 197.703125 292.207031 197.695312 292.390625 197.5 Z M 293.480469 196.269531 C 293.652344 196.066406 293.621094 195.761719 293.417969 195.59375 C 293.210938 195.421875 292.90625 195.449219 292.738281 195.65625 C 292.566406 195.859375 292.59375 196.164062 292.800781 196.335938 C 293.003906 196.503906 293.308594 196.476562 293.480469 196.269531 Z M 294.492188 194.976562 C 294.652344 194.761719 294.601562 194.457031 294.386719 194.300781 C 294.171875 194.144531 293.871094 194.191406 293.710938 194.40625 C 293.554688 194.621094 293.601562 194.921875 293.816406 195.082031 C 294.03125 195.238281 294.335938 195.191406 294.492188 194.976562 Z M 295.421875 193.621094 C 295.566406 193.394531 295.5 193.097656 295.273438 192.953125 C 295.050781 192.8125 294.75 192.878906 294.605469 193.101562 C 294.464844 193.324219 294.527344 193.625 294.753906 193.765625 C 294.980469 193.910156 295.277344 193.84375 295.421875 193.621094 Z M 296.265625 192.210938 C 296.394531 191.976562 296.308594 191.683594 296.074219 191.554688 C 295.84375 191.425781 295.546875 191.507812 295.417969 191.742188 C 295.289062 191.976562 295.375 192.269531 295.605469 192.398438 C 295.839844 192.527344 296.132812 192.441406 296.265625 192.210938 Z M 297.015625 190.75 C 297.128906 190.507812 297.027344 190.222656 296.785156 190.105469 C 296.542969 189.992188 296.257812 190.097656 296.140625 190.335938 C 296.027344 190.578125 296.128906 190.863281 296.371094 190.976562 C 296.613281 191.09375 296.902344 190.988281 297.015625 190.75 Z M 297.671875 189.246094 C 297.773438 189 297.652344 188.71875 297.402344 188.617188 C 297.15625 188.519531 296.875 188.640625 296.773438 188.886719 C 296.675781 189.136719 296.796875 189.414062 297.046875 189.515625 C 297.292969 189.613281 297.574219 189.492188 297.671875 189.246094 Z M 298.234375 187.703125 C 298.320312 187.449219 298.179688 187.175781 297.925781 187.09375 C 297.671875 187.007812 297.398438 187.148438 297.316406 187.402344 C 297.234375 187.65625 297.371094 187.925781 297.625 188.011719 C 297.878906 188.089844 298.152344 187.953125 298.234375 187.703125 Z M 298.699219 186.125 C 298.765625 185.867188 298.609375 185.605469 298.351562 185.539062 C 298.09375 185.472656 297.828125 185.625 297.761719 185.882812 C 297.695312 186.140625 297.851562 186.402344 298.109375 186.46875 C 298.367188 186.535156 298.628906 186.382812 298.699219 186.125 Z M 299.058594 184.523438 C 299.109375 184.257812 298.9375 184.007812 298.675781 183.957031 C 298.414062 183.90625 298.160156 184.078125 298.109375 184.339844 C 298.058594 184.601562 298.230469 184.851562 298.492188 184.902344 C 298.753906 184.953125 299.007812 184.78125 299.058594 184.523438 Z M 299.316406 182.898438 C 299.351562 182.636719 299.164062 182.394531 298.898438 182.359375 C 298.632812 182.328125 298.394531 182.511719 298.359375 182.777344 C 298.324219 183.042969 298.511719 183.28125 298.777344 183.316406 C 299.042969 183.347656 299.285156 183.164062 299.316406 182.898438 Z M 299.476562 181.265625 C 299.492188 181 299.289062 180.769531 299.023438 180.753906 C 298.757812 180.734375 298.527344 180.9375 298.511719 181.203125 C 298.492188 181.46875 298.695312 181.699219 298.960938 181.714844 C 299.226562 181.730469 299.457031 181.53125 299.472656 181.265625 Z M 299.527344 179.621094 C 299.527344 179.355469 299.3125 179.140625 299.046875 179.140625 C 298.78125 179.136719 298.5625 179.355469 298.5625 179.621094 C 298.5625 179.886719 298.777344 180.101562 299.046875 180.105469 C 299.3125 180.105469 299.527344 179.886719 299.527344 179.621094 Z M 299.480469 177.980469 C 299.464844 177.714844 299.234375 177.511719 298.96875 177.53125 C 298.703125 177.542969 298.5 177.773438 298.515625 178.039062 C 298.53125 178.304688 298.761719 178.507812 299.027344 178.492188 C 299.292969 178.476562 299.496094 178.246094 299.480469 177.980469 Z M 299.328125 176.347656 C 299.296875 176.082031 299.054688 175.894531 298.789062 175.925781 C 298.523438 175.960938 298.335938 176.199219 298.367188 176.464844 C 298.402344 176.726562 298.644531 176.914062 298.910156 176.882812 C 299.171875 176.851562 299.363281 176.609375 299.328125 176.347656 Z M 299.074219 174.722656 C 299.023438 174.460938 298.773438 174.289062 298.511719 174.335938 C 298.246094 174.386719 298.074219 174.640625 298.125 174.902344 C 298.171875 175.164062 298.425781 175.335938 298.691406 175.285156 C 298.953125 175.234375 299.125 174.984375 299.074219 174.722656 Z M 298.71875 173.117188 C 298.652344 172.859375 298.390625 172.703125 298.132812 172.769531 C 297.871094 172.835938 297.714844 173.097656 297.78125 173.355469 C 297.847656 173.613281 298.109375 173.769531 298.371094 173.703125 C 298.628906 173.636719 298.785156 173.375 298.71875 173.117188 Z M 298.261719 171.539062 C 298.179688 171.285156 297.90625 171.148438 297.652344 171.230469 C 297.398438 171.3125 297.257812 171.582031 297.339844 171.835938 C 297.421875 172.089844 297.695312 172.230469 297.949219 172.148438 C 298.203125 172.0625 298.34375 171.792969 298.261719 171.539062 Z M 297.703125 169.992188 C 297.605469 169.742188 297.324219 169.621094 297.074219 169.71875 C 296.828125 169.816406 296.707031 170.097656 296.804688 170.34375 C 296.902344 170.59375 297.183594 170.714844 297.429688 170.617188 C 297.679688 170.519531 297.800781 170.238281 297.703125 169.992188 Z M 297.046875 168.480469 C 296.933594 168.238281 296.648438 168.136719 296.40625 168.25 C 296.164062 168.363281 296.058594 168.652344 296.171875 168.890625 C 296.285156 169.132812 296.574219 169.234375 296.816406 169.121094 C 297.058594 169.007812 297.160156 168.722656 297.046875 168.480469 Z M 296.300781 167.015625 C 296.171875 166.78125 295.878906 166.699219 295.644531 166.824219 C 295.410156 166.953125 295.324219 167.246094 295.453125 167.480469 C 295.582031 167.710938 295.875 167.796875 296.109375 167.671875 C 296.34375 167.542969 296.425781 167.25 296.300781 167.015625 Z M 295.460938 165.601562 C 295.316406 165.375 295.019531 165.308594 294.792969 165.453125 C 294.566406 165.59375 294.5 165.890625 294.644531 166.117188 C 294.789062 166.339844 295.085938 166.410156 295.3125 166.265625 C 295.535156 166.121094 295.601562 165.824219 295.460938 165.601562 Z M 294.53125 164.242188 C 294.375 164.023438 294.074219 163.976562 293.859375 164.132812 C 293.644531 164.289062 293.59375 164.59375 293.75 164.808594 C 293.90625 165.023438 294.210938 165.070312 294.425781 164.914062 C 294.640625 164.757812 294.691406 164.457031 294.535156 164.242188 Z M 293.523438 162.941406 C 293.351562 162.734375 293.046875 162.707031 292.84375 162.875 C 292.636719 163.046875 292.609375 163.351562 292.777344 163.554688 C 292.949219 163.761719 293.253906 163.789062 293.460938 163.621094 C 293.664062 163.449219 293.691406 163.148438 293.523438 162.941406 Z M 292.433594 161.707031 C 292.253906 161.511719 291.945312 161.503906 291.75 161.6875 C 291.558594 161.867188 291.546875 162.171875 291.730469 162.367188 C 291.910156 162.5625 292.21875 162.570312 292.414062 162.390625 C 292.609375 162.207031 292.617188 161.902344 292.433594 161.707031 Z M 291.273438 160.542969 C 291.078125 160.363281 290.769531 160.371094 290.589844 160.566406 C 290.40625 160.757812 290.414062 161.0625 290.609375 161.246094 C 290.800781 161.429688 291.109375 161.421875 291.292969 161.226562 C 291.476562 161.03125 291.464844 160.726562 291.273438 160.542969 Z M 290.039062 159.457031 C 289.832031 159.285156 289.527344 159.316406 289.359375 159.519531 C 289.1875 159.722656 289.214844 160.027344 289.421875 160.195312 C 289.625 160.367188 289.929688 160.339844 290.101562 160.136719 C 290.273438 159.929688 290.242188 159.628906 290.039062 159.457031 Z M 288.742188 158.445312 C 288.523438 158.289062 288.222656 158.335938 288.066406 158.550781 C 287.90625 158.765625 287.953125 159.066406 288.167969 159.222656 C 288.382812 159.382812 288.6875 159.335938 288.84375 159.121094 C 289.003906 158.90625 288.957031 158.601562 288.738281 158.445312 Z M 287.382812 157.519531 C 287.15625 157.375 286.855469 157.441406 286.714844 157.667969 C 286.570312 157.890625 286.636719 158.1875 286.859375 158.332031 C 287.085938 158.476562 287.382812 158.410156 287.527344 158.183594 C 287.671875 157.960938 287.605469 157.664062 287.382812 157.519531 Z M 285.96875 156.679688 C 285.734375 156.550781 285.4375 156.632812 285.308594 156.867188 C 285.179688 157.101562 285.265625 157.394531 285.496094 157.523438 C 285.730469 157.652344 286.023438 157.566406 286.15625 157.335938 C 286.285156 157.101562 286.199219 156.808594 285.96875 156.679688 Z M 284.503906 155.929688 C 284.261719 155.816406 283.972656 155.917969 283.859375 156.15625 C 283.742188 156.398438 283.847656 156.6875 284.085938 156.800781 C 284.328125 156.914062 284.617188 156.8125 284.730469 156.570312 C 284.847656 156.332031 284.742188 156.042969 284.503906 155.929688 Z M 282.996094 155.273438 C 282.746094 155.171875 282.464844 155.292969 282.367188 155.542969 C 282.265625 155.789062 282.386719 156.070312 282.636719 156.167969 C 282.882812 156.265625 283.164062 156.148438 283.265625 155.898438 C 283.363281 155.652344 283.242188 155.371094 282.996094 155.273438 Z M 281.445312 154.710938 C 281.191406 154.628906 280.917969 154.765625 280.835938 155.019531 C 280.753906 155.273438 280.890625 155.546875 281.144531 155.628906 C 281.398438 155.710938 281.671875 155.574219 281.753906 155.320312 C 281.835938 155.066406 281.699219 154.792969 281.445312 154.710938 Z M 279.863281 154.25 C 279.605469 154.183594 279.339844 154.335938 279.273438 154.59375 C 279.207031 154.855469 279.363281 155.117188 279.621094 155.183594 C 279.878906 155.25 280.144531 155.09375 280.210938 154.835938 C 280.277344 154.578125 280.125 154.316406 279.863281 154.25 Z M 278.257812 153.886719 C 277.996094 153.839844 277.742188 154.007812 277.691406 154.269531 C 277.640625 154.53125 277.8125 154.785156 278.074219 154.835938 C 278.335938 154.886719 278.589844 154.714844 278.640625 154.453125 C 278.691406 154.191406 278.519531 153.9375 278.257812 153.886719 Z M 276.628906 153.628906 C 276.367188 153.59375 276.121094 153.78125 276.089844 154.046875 C 276.054688 154.308594 276.242188 154.550781 276.507812 154.585938 C 276.773438 154.617188 277.011719 154.433594 277.046875 154.167969 C 277.082031 153.902344 276.894531 153.664062 276.628906 153.628906 Z M 274.992188 153.472656 C 274.722656 153.457031 274.492188 153.65625 274.476562 153.921875 C 274.460938 154.1875 274.660156 154.417969 274.925781 154.433594 C 275.195312 154.449219 275.421875 154.25 275.441406 153.984375 C 275.457031 153.71875 275.257812 153.488281 274.988281 153.472656 Z M 273.34375 153.417969 C 273.074219 153.417969 272.859375 153.632812 272.859375 153.898438 C 272.859375 154.164062 273.074219 154.382812 273.339844 154.382812 C 273.609375 154.382812 273.824219 154.167969 273.824219 153.902344 C 273.824219 153.636719 273.609375 153.417969 273.34375 153.417969 Z M 273.289062 153.417969 C 273.019531 153.417969 272.804688 153.632812 272.804688 153.898438 C 272.804688 154.164062 273.019531 154.382812 273.289062 154.382812 C 273.554688 154.382812 273.773438 154.164062 273.773438 153.898438 C 273.773438 153.632812 273.554688 153.417969 273.289062 153.417969 " fill-opacity="1" fill-rule="nonzero"/></g><path fill="#1a1a1a" d="M 273.289062 190.585938 C 267.191406 190.585938 262.25 185.660156 262.25 179.582031 C 262.25 173.503906 267.191406 168.578125 273.289062 168.578125 C 279.382812 168.578125 284.324219 173.503906 284.324219 179.582031 C 284.324219 185.660156 279.382812 190.585938 273.289062 190.585938 Z M 273.289062 164.496094 C 264.933594 164.496094 258.160156 171.25 258.160156 179.582031 C 258.160156 187.910156 264.933594 194.664062 273.289062 194.664062 C 281.644531 194.664062 288.414062 187.910156 288.414062 179.582031 C 288.414062 171.25 281.644531 164.496094 273.289062 164.496094 " fill-opacity="1" fill-rule="nonzero"/><path fill="#1a1a1a" d="M 273.289062 183.226562 C 271.269531 183.226562 269.628906 181.59375 269.628906 179.582031 C 269.628906 177.566406 271.269531 175.933594 273.289062 175.933594 C 275.304688 175.933594 276.945312 177.566406 276.945312 179.582031 C 276.945312 181.59375 275.304688 183.226562 273.289062 183.226562 " fill-opacity="1" fill-rule="nonzero"/><path fill="#1a1a1a" d="M 241.054688 163.914062 C 241.054688 165.265625 239.953125 166.363281 238.597656 166.363281 L 233.546875 166.363281 C 232.1875 166.363281 231.085938 165.265625 231.085938 163.914062 L 231.085938 158.875 C 231.085938 157.523438 232.1875 156.425781 233.546875 156.425781 L 238.597656 156.425781 C 239.953125 156.425781 241.054688 157.523438 241.054688 158.875 L 241.054688 163.914062 " fill-opacity="1" fill-rule="nonzero"/><path fill="#1a1a1a" d="M 283.972656 148.449219 C 283.972656 149.113281 283.429688 149.65625 282.765625 149.65625 L 262 149.65625 C 261.332031 149.65625 260.792969 149.113281 260.792969 148.449219 C 260.792969 147.785156 261.332031 147.242188 262 147.242188 L 282.765625 147.242188 C 283.429688 147.242188 283.972656 147.785156 283.972656 148.449219 " fill-opacity="1" fill-rule="nonzero"/><g fill="#1a1a1a" fill-opacity="1"><g transform="translate(52.440236, 186.097871)"><g><path d="M 42.980469 -44.863281 C 43.109375 -45.300781 42.804688 -45.785156 42.367188 -45.871094 C 41.929688 -46.003906 41.445312 -45.738281 41.359375 -45.257812 C 35.136719 -20.898438 23.613281 -12.488281 17.261719 -9.640625 C 15.507812 -8.851562 13.449219 -8.148438 11.480469 -7.796875 C 13.011719 -14.328125 14.546875 -20.765625 15.773438 -25.804688 C 17.042969 -31.019531 18.09375 -35.53125 18.882812 -38.773438 C 18.96875 -39.210938 18.664062 -39.695312 18.226562 -39.78125 C 17.789062 -39.867188 17.304688 -39.605469 17.21875 -39.167969 C 16.472656 -35.925781 15.378906 -31.414062 14.109375 -26.199219 C 12.835938 -20.898438 11.390625 -14.894531 9.988281 -8.9375 C 9.289062 -9.507812 8.585938 -9.945312 7.84375 -10.253906 C 5.257812 -11.390625 3.285156 -11.433594 2.496094 -10.382812 C 2.015625 -9.769531 2.058594 -8.894531 2.671875 -8.105469 C 3.636719 -6.921875 5.5625 -6.089844 7.886719 -5.914062 C 8.324219 -5.914062 8.804688 -5.871094 9.289062 -5.914062 C 8.367188 -2.015625 7.492188 1.796875 6.746094 5.300781 C 5.5625 10.601562 4.777344 14.589844 4.292969 17.4375 C 3.503906 22.167969 3.679688 23.132812 4.601562 23.441406 C 4.6875 23.484375 4.820312 23.527344 4.949219 23.527344 C 5.785156 23.527344 6.441406 22.34375 7.535156 19.890625 C 7.710938 19.453125 7.535156 18.96875 7.097656 18.796875 C 6.660156 18.578125 6.175781 18.796875 6.003906 19.234375 C 5.828125 19.539062 5.695312 19.847656 5.5625 20.066406 C 6.132812 15.597656 8.457031 5.082031 10.953125 -5.652344 C 13.320312 -2.933594 15.597656 0.964844 17.875 4.820312 C 22.039062 11.828125 26.332031 19.101562 31.457031 20.199219 C 31.894531 20.328125 32.378906 20.371094 32.816406 20.371094 C 34.261719 20.371094 35.707031 19.890625 37.109375 18.925781 C 37.460938 18.664062 37.546875 18.136719 37.285156 17.742188 C 37.019531 17.351562 36.496094 17.261719 36.144531 17.523438 C 34.65625 18.53125 33.253906 18.882812 31.808594 18.578125 C 27.382812 17.613281 23.308594 10.644531 19.320312 3.941406 C 17.085938 0.132812 14.894531 -3.546875 12.617188 -6.308594 C 14.328125 -6.660156 16.121094 -7.273438 17.964844 -8.105469 C 24.578125 -11.039062 36.628906 -19.757812 42.980469 -44.863281 Z M 4.644531 -8.585938 C 4.117188 -8.9375 3.898438 -9.246094 3.855469 -9.375 C 4.117188 -9.507812 5.082031 -9.640625 7.183594 -8.71875 C 7.796875 -8.457031 8.410156 -8.0625 9.023438 -7.578125 C 7.359375 -7.535156 5.828125 -7.796875 4.644531 -8.585938 Z M 4.644531 -8.585938 "/></g></g></g><g fill="#1a1a1a" fill-opacity="1"><g transform="translate(87.836116, 186.097871)"><g><path d="M 2.542969 -1.929688 C 1.621094 -1.664062 0.746094 -0.21875 1.882812 -0.132812 C 3.898438 0 4.292969 -2.453125 2.542969 -1.929688 Z M 2.542969 -1.929688 "/></g></g></g><g fill="#1a1a1a" fill-opacity="1"><g transform="translate(93.706227, 186.097871)"><g><path d="M 54.808594 -37.765625 C 54.675781 -40.308594 53.890625 -41.664062 52.488281 -41.796875 C 48.105469 -42.324219 40.175781 -27.425781 33.035156 -5.871094 C 36.058594 -27.296875 34.171875 -30.886719 32.027344 -31.371094 C 30.976562 -31.589844 27.863281 -32.289062 19.410156 -12.835938 C 15.554688 -4.03125 11.566406 6.835938 8.238281 17.4375 C 11.171875 3.109375 17 -22.34375 18.925781 -30.363281 C 20.152344 -35.53125 19.890625 -38.597656 18.183594 -39.695312 C 17.261719 -40.261719 15.554688 -40.484375 12.53125 -38.160156 C 9.464844 -35.792969 6.089844 -31.542969 3.679688 -27.121094 C 2.058594 -24.097656 -0.4375 -18.402344 1.007812 -14.109375 C 2.367188 -10.078125 6.570312 -9.15625 9.859375 -9.113281 C 10.339844 -9.113281 10.691406 -9.464844 10.691406 -9.945312 C 10.734375 -10.425781 10.339844 -10.777344 9.859375 -10.777344 C 5.871094 -10.867188 3.460938 -12.136719 2.585938 -14.675781 C 0.613281 -20.636719 7.796875 -32.332031 13.582031 -36.847656 C 15.246094 -38.117188 16.648438 -38.6875 17.304688 -38.246094 C 17.65625 -38.027344 18.707031 -36.800781 17.261719 -30.757812 C 16.472656 -27.382812 13.101562 -12.925781 9.988281 1.183594 C 8.324219 8.851562 7.011719 14.984375 6.132812 19.363281 C 5.652344 21.90625 5.300781 23.878906 5.082031 25.234375 C 4.777344 27.296875 4.6875 28.171875 5.5625 28.433594 C 5.652344 28.476562 5.738281 28.523438 5.871094 28.523438 C 6.570312 28.523438 6.921875 27.558594 7.316406 26.507812 C 7.316406 26.460938 7.316406 26.460938 7.359375 26.417969 C 10.996094 13.363281 16.078125 -1.050781 20.941406 -12.179688 C 28.742188 -30.144531 31.542969 -29.75 31.675781 -29.703125 C 31.71875 -29.703125 33.078125 -29.308594 32.902344 -21.863281 C 32.726562 -15.859375 31.632812 -6.703125 29.617188 5.257812 C 29.53125 5.695312 29.835938 6.132812 30.273438 6.222656 C 30.710938 6.308594 31.152344 6.089844 31.238281 5.652344 C 36.363281 -12.003906 41.050781 -22.957031 44.117188 -29.046875 C 48.542969 -37.855469 51.347656 -40.132812 52.269531 -40.132812 C 52.269531 -40.132812 52.3125 -40.132812 52.3125 -40.132812 C 52.664062 -40.089844 53.054688 -39.34375 53.144531 -37.679688 C 53.496094 -32.15625 50.867188 -17.699219 48.542969 -4.949219 C 44.558594 16.910156 44.164062 20.855469 45.871094 21.46875 C 46.921875 21.863281 47.753906 20.636719 48.457031 19.410156 C 48.675781 19.015625 48.542969 18.488281 48.148438 18.269531 C 47.753906 18.050781 47.230469 18.183594 46.964844 18.578125 C 46.835938 18.839844 46.703125 19.058594 46.574219 19.234375 C 46.484375 15.859375 48.542969 4.601562 50.207031 -4.644531 C 52.664062 -18.136719 55.203125 -32.070312 54.808594 -37.765625 Z M 54.808594 -37.765625 "/></g></g></g><g fill="#1a1a1a" fill-opacity="1"><g transform="translate(149.209433, 186.097871)"><g><path d="M 12.792969 -9.945312 C 12.398438 -10.207031 11.917969 -10.078125 11.652344 -9.683594 C 8.71875 -4.949219 3.8125 -0.480469 2.320312 -1.09375 C 2.148438 -1.183594 0.746094 -2.015625 2.671875 -9.417969 C 2.761719 -9.902344 2.496094 -10.339844 2.058594 -10.472656 C 1.578125 -10.558594 1.140625 -10.296875 1.007812 -9.859375 C -0.570312 -3.679688 -0.351562 -0.394531 1.621094 0.4375 C 1.929688 0.570312 2.234375 0.613281 2.542969 0.613281 C 5.828125 0.613281 10.867188 -5.257812 13.101562 -8.804688 C 13.320312 -9.199219 13.1875 -9.726562 12.792969 -9.945312 Z M 2.453125 -13.496094 C 4.6875 -13.363281 4.644531 -16.167969 2.847656 -15.554688 C 1.929688 -15.289062 0.746094 -13.582031 2.453125 -13.496094 Z M 2.453125 -13.496094 "/></g></g></g><g fill="#1a1a1a" fill-opacity="1"><g transform="translate(160.292557, 186.097871)"><g><path d="M 36.976562 -25.847656 C 36.40625 -26.636719 33.867188 -27.121094 6.660156 -26.507812 C 7.535156 -30.054688 8.324219 -33.253906 9.023438 -35.839844 C 9.15625 -36.320312 8.894531 -36.757812 8.457031 -36.890625 C 8.019531 -37.019531 7.535156 -36.757812 7.402344 -36.320312 C 6.660156 -33.558594 5.828125 -30.230469 4.90625 -26.460938 C 2.496094 -26.417969 -0.132812 -26.375 -2.980469 -26.289062 C -6.878906 -26.199219 -9.945312 -26.113281 -11.128906 -26.113281 C -11.609375 -26.113281 -12.003906 -25.71875 -12.003906 -25.28125 C -12.003906 -24.796875 -11.609375 -24.402344 -11.128906 -24.402344 C -9.902344 -24.445312 -6.835938 -24.492188 -2.933594 -24.621094 C -0.875 -24.667969 1.664062 -24.710938 4.511719 -24.796875 C 2.628906 -16.824219 0.480469 -7.273438 -1.445312 2.058594 C -2.847656 8.894531 -3.988281 14.808594 -4.730469 19.144531 C -5.125 21.425781 -5.390625 23.21875 -5.519531 24.445312 C -5.695312 26.113281 -5.785156 27.074219 -4.949219 27.382812 C -4.820312 27.382812 -4.730469 27.425781 -4.601562 27.425781 C -3.855469 27.425781 -3.460938 26.375 -3.109375 25.410156 C -2.933594 24.972656 -3.15625 24.492188 -3.59375 24.316406 C -3.679688 24.316406 -3.722656 24.273438 -3.8125 24.273438 C -3.375 20.855469 -2.058594 13.1875 0.480469 1.09375 C 2.367188 -8.0625 4.425781 -17.21875 6.265625 -24.839844 C 18.3125 -25.105469 33.953125 -25.324219 35.75 -24.710938 C 36.058594 -24.445312 36.453125 -24.445312 36.800781 -24.667969 C 37.152344 -24.929688 37.242188 -25.453125 36.976562 -25.847656 Z M 36.976562 -25.847656 "/></g></g></g><g fill="#1a1a1a" fill-opacity="1"><g transform="translate(166.118854, 186.097871)"><g><path d="M 14.457031 -9.945312 C 14.0625 -10.164062 13.539062 -10.078125 13.320312 -9.683594 C 10.339844 -5.167969 5.390625 2.367188 2.148438 1.664062 C 1.621094 1.535156 1.183594 1.183594 0.875 0.613281 C 0 -0.964844 0.132812 -4.117188 1.140625 -6.878906 C 2.234375 -9.8125 3.546875 -10.558594 3.8125 -10.515625 C 3.855469 -10.472656 4.117188 -9.902344 3.769531 -8.542969 C 3.636719 -8.0625 3.898438 -7.625 4.335938 -7.492188 C 4.820312 -7.402344 5.257812 -7.667969 5.390625 -8.105469 C 6.222656 -11.257812 4.777344 -11.960938 4.335938 -12.136719 C 2.714844 -12.617188 0.746094 -10.691406 -0.4375 -7.449219 C -1.445312 -4.730469 -1.882812 -0.875 -0.570312 1.445312 C -0.0429688 2.453125 0.789062 3.066406 1.796875 3.285156 C 2.058594 3.375 2.320312 3.375 2.585938 3.375 C 6.398438 3.375 10.515625 -2.367188 14.722656 -8.761719 C 14.984375 -9.15625 14.851562 -9.683594 14.457031 -9.945312 Z M 14.457031 -9.945312 "/></g></g></g><g fill="#1a1a1a" fill-opacity="1"><g transform="translate(179.085658, 186.097871)"><g><path d="M 20.722656 -9.988281 C 20.328125 -10.253906 19.804688 -10.121094 19.585938 -9.726562 C 13.363281 0.308594 11.171875 0.0859375 10.953125 0.0429688 C 10.515625 -0.0859375 10.03125 -0.964844 9.902344 -3.109375 C 9.859375 -4.074219 9.640625 -6.964844 7.710938 -7.230469 C 5.476562 -7.535156 2.804688 -3.636719 0.394531 1.402344 C 1.882812 -5.257812 4.03125 -14.414062 5.609375 -20.898438 C 11.480469 -31.457031 14.457031 -39.386719 13.230469 -41.097656 C 12.96875 -41.488281 12.53125 -41.621094 12.09375 -41.535156 C 10.207031 -41.183594 7.273438 -34.785156 5.300781 -26.679688 C 5.214844 -26.375 -2.628906 5.652344 -2.890625 9.59375 C -2.890625 10.03125 -2.628906 10.382812 -2.191406 10.472656 C -2.148438 10.472656 -2.101562 10.472656 -2.058594 10.472656 C -1.707031 10.472656 -1.359375 10.253906 -1.226562 9.945312 C 2.585938 -1.007812 6.308594 -5.5625 7.402344 -5.5625 C 7.449219 -5.5625 7.449219 -5.5625 7.449219 -5.5625 C 7.625 -5.5625 8.105469 -5.039062 8.238281 -3.023438 C 8.28125 -1.972656 8.5 1.140625 10.515625 1.664062 C 11.390625 1.882812 13.976562 2.542969 20.984375 -8.851562 C 21.25 -9.246094 21.117188 -9.769531 20.722656 -9.988281 Z M 11.785156 -39.125 C 11.433594 -37.371094 10.207031 -33.605469 7.273438 -27.6875 C 8.9375 -34 10.734375 -37.632812 11.785156 -39.125 Z M 11.785156 -39.125 "/></g></g></g><g fill="#1a1a1a" fill-opacity="1"><g transform="translate(197.966388, 186.097871)"><g><path d="M 14.808594 -9.769531 C 14.414062 -10.03125 13.886719 -9.945312 13.625 -9.550781 C 10.339844 -4.949219 7.667969 -2.058594 5.039062 -0.175781 C 3.722656 0.746094 2.453125 0.921875 1.621094 0.308594 C 1.09375 -0.0859375 -0.527344 -1.839844 1.359375 -7.972656 C 5.609375 -11.480469 7.929688 -14.808594 7.316406 -16.5625 C 7.097656 -17.085938 6.570312 -17.4375 6.003906 -17.4375 C 4.25 -17.394531 1.578125 -14.371094 -0.175781 -8.71875 C -2.320312 -1.753906 -0.570312 0.789062 0.65625 1.664062 C 1.269531 2.148438 1.972656 2.367188 2.761719 2.367188 C 3.769531 2.367188 4.90625 1.972656 6.003906 1.183594 C 8.804688 -0.832031 11.566406 -3.8125 14.984375 -8.585938 C 15.246094 -8.980469 15.160156 -9.507812 14.808594 -9.769531 Z M 5.652344 -15.597656 C 5.476562 -14.894531 4.730469 -13.496094 2.671875 -11.390625 C 3.8125 -13.933594 5.039062 -15.160156 5.652344 -15.597656 Z M 5.652344 -15.597656 "/></g></g></g><g fill="#1a1a1a" fill-opacity="1"><g transform="translate(210.714164, 186.097871)"><g><path d="M 12.878906 -41.050781 C 12.574219 -41.445312 12.136719 -41.621094 11.699219 -41.578125 C 9.199219 -41.140625 6.527344 -31.808594 5.785156 -28.960938 C 3.59375 -20.589844 0.832031 -8.71875 -1.402344 1.929688 C -2.453125 6.964844 -3.285156 11.214844 -3.8125 14.28125 C -4.6875 19.453125 -4.554688 20.109375 -3.722656 20.328125 C -3.636719 20.371094 -3.546875 20.371094 -3.460938 20.371094 C -2.671875 20.371094 -2.277344 19.320312 -1.882812 18.183594 C -1.753906 17.742188 -1.972656 17.261719 -2.410156 17.128906 C -2.453125 17.085938 -2.496094 17.085938 -2.542969 17.085938 C -1.621094 10.777344 2.148438 -7.578125 6.003906 -22.957031 C 6.003906 -23 6.046875 -23.046875 6.089844 -23.089844 C 11.785156 -32.113281 14.019531 -39.300781 12.878906 -41.050781 Z M 7.492188 -28.871094 C 9.15625 -35.050781 10.644531 -38.027344 11.433594 -39.253906 C 11.257812 -37.632812 10.296875 -34.128906 7.492188 -28.871094 Z M 7.492188 -28.871094 "/></g></g></g><g fill="#1a1a1a" fill-opacity="1"><g transform="translate(217.372802, 186.097871)"><g><path d="M 12.878906 -41.050781 C 12.574219 -41.445312 12.136719 -41.621094 11.699219 -41.578125 C 9.199219 -41.140625 6.527344 -31.808594 5.785156 -28.960938 C 3.59375 -20.589844 0.832031 -8.71875 -1.402344 1.929688 C -2.453125 6.964844 -3.285156 11.214844 -3.8125 14.28125 C -4.6875 19.453125 -4.554688 20.109375 -3.722656 20.328125 C -3.636719 20.371094 -3.546875 20.371094 -3.460938 20.371094 C -2.671875 20.371094 -2.277344 19.320312 -1.882812 18.183594 C -1.753906 17.742188 -1.972656 17.261719 -2.410156 17.128906 C -2.453125 17.085938 -2.496094 17.085938 -2.542969 17.085938 C -1.621094 10.777344 2.148438 -7.578125 6.003906 -22.957031 C 6.003906 -23 6.046875 -23.046875 6.089844 -23.089844 C 11.785156 -32.113281 14.019531 -39.300781 12.878906 -41.050781 Z M 7.492188 -28.871094 C 9.15625 -35.050781 10.644531 -38.027344 11.433594 -39.253906 C 11.257812 -37.632812 10.296875 -34.128906 7.492188 -28.871094 Z M 7.492188 -28.871094 "/></g></g></g><g fill="#1a1a1a" fill-opacity="1"><g transform="translate(74.329442, 234.682235)"><g><path d="M 6.46875 -12.046875 C 8.007812 -12.046875 9.210938 -11.675781 10.078125 -10.9375 C 10.953125 -10.207031 11.390625 -9.195312 11.390625 -7.90625 C 11.390625 -6.625 10.953125 -5.617188 10.078125 -4.890625 C 9.210938 -4.160156 8.007812 -3.796875 6.46875 -3.796875 L 3.234375 -3.796875 L 3.234375 0 L 1.96875 0 L 1.96875 -12.046875 Z M 6.4375 -4.921875 C 7.625 -4.921875 8.53125 -5.179688 9.15625 -5.703125 C 9.789062 -6.222656 10.109375 -6.957031 10.109375 -7.90625 C 10.109375 -8.882812 9.789062 -9.632812 9.15625 -10.15625 C 8.53125 -10.675781 7.625 -10.9375 6.4375 -10.9375 L 3.234375 -10.9375 L 3.234375 -4.921875 Z M 6.4375 -4.921875 "/></g></g></g><g fill="#1a1a1a" fill-opacity="1"><g transform="translate(95.274334, 234.682235)"><g><path d="M 12.03125 -12.046875 L 12.03125 0 L 10.765625 0 L 10.765625 -5.5625 L 3.234375 -5.5625 L 3.234375 0 L 1.96875 0 L 1.96875 -12.046875 L 3.234375 -12.046875 L 3.234375 -6.671875 L 10.765625 -6.671875 L 10.765625 -12.046875 Z M 12.03125 -12.046875 "/></g></g></g><g fill="#1a1a1a" fill-opacity="1"><g transform="translate(117.85199, 234.682235)"><g><path d="M 7.21875 0.109375 C 6.03125 0.109375 4.953125 -0.15625 3.984375 -0.6875 C 3.015625 -1.226562 2.253906 -1.960938 1.703125 -2.890625 C 1.160156 -3.816406 0.890625 -4.859375 0.890625 -6.015625 C 0.890625 -7.179688 1.160156 -8.226562 1.703125 -9.15625 C 2.253906 -10.082031 3.015625 -10.8125 3.984375 -11.34375 C 4.953125 -11.875 6.03125 -12.140625 7.21875 -12.140625 C 8.414062 -12.140625 9.492188 -11.875 10.453125 -11.34375 C 11.410156 -10.820312 12.160156 -10.09375 12.703125 -9.15625 C 13.253906 -8.226562 13.53125 -7.179688 13.53125 -6.015625 C 13.53125 -4.859375 13.253906 -3.8125 12.703125 -2.875 C 12.160156 -1.945312 11.410156 -1.21875 10.453125 -0.6875 C 9.492188 -0.15625 8.414062 0.109375 7.21875 0.109375 Z M 7.21875 -1.03125 C 8.175781 -1.03125 9.035156 -1.242188 9.796875 -1.671875 C 10.566406 -2.109375 11.171875 -2.707031 11.609375 -3.46875 C 12.046875 -4.226562 12.265625 -5.078125 12.265625 -6.015625 C 12.265625 -6.960938 12.046875 -7.816406 11.609375 -8.578125 C 11.171875 -9.335938 10.566406 -9.929688 9.796875 -10.359375 C 9.035156 -10.796875 8.175781 -11.015625 7.21875 -11.015625 C 6.269531 -11.015625 5.40625 -10.796875 4.625 -10.359375 C 3.851562 -9.929688 3.25 -9.335938 2.8125 -8.578125 C 2.375 -7.816406 2.15625 -6.960938 2.15625 -6.015625 C 2.15625 -5.078125 2.375 -4.226562 2.8125 -3.46875 C 3.25 -2.707031 3.851562 -2.109375 4.625 -1.671875 C 5.40625 -1.242188 6.269531 -1.03125 7.21875 -1.03125 Z M 7.21875 -1.03125 "/></g></g></g><g fill="#1a1a1a" fill-opacity="1"><g transform="translate(140.876514, 234.682235)"><g><path d="M 4.296875 -10.9375 L 0.0625 -10.9375 L 0.0625 -12.046875 L 9.8125 -12.046875 L 9.8125 -10.9375 L 5.578125 -10.9375 L 5.578125 0 L 4.296875 0 Z M 4.296875 -10.9375 "/></g></g></g><g fill="#1a1a1a" fill-opacity="1"><g transform="translate(159.346457, 234.682235)"><g><path d="M 7.21875 0.109375 C 6.03125 0.109375 4.953125 -0.15625 3.984375 -0.6875 C 3.015625 -1.226562 2.253906 -1.960938 1.703125 -2.890625 C 1.160156 -3.816406 0.890625 -4.859375 0.890625 -6.015625 C 0.890625 -7.179688 1.160156 -8.226562 1.703125 -9.15625 C 2.253906 -10.082031 3.015625 -10.8125 3.984375 -11.34375 C 4.953125 -11.875 6.03125 -12.140625 7.21875 -12.140625 C 8.414062 -12.140625 9.492188 -11.875 10.453125 -11.34375 C 11.410156 -10.820312 12.160156 -10.09375 12.703125 -9.15625 C 13.253906 -8.226562 13.53125 -7.179688 13.53125 -6.015625 C 13.53125 -4.859375 13.253906 -3.8125 12.703125 -2.875 C 12.160156 -1.945312 11.410156 -1.21875 10.453125 -0.6875 C 9.492188 -0.15625 8.414062 0.109375 7.21875 0.109375 Z M 7.21875 -1.03125 C 8.175781 -1.03125 9.035156 -1.242188 9.796875 -1.671875 C 10.566406 -2.109375 11.171875 -2.707031 11.609375 -3.46875 C 12.046875 -4.226562 12.265625 -5.078125 12.265625 -6.015625 C 12.265625 -6.960938 12.046875 -7.816406 11.609375 -8.578125 C 11.171875 -9.335938 10.566406 -9.929688 9.796875 -10.359375 C 9.035156 -10.796875 8.175781 -11.015625 7.21875 -11.015625 C 6.269531 -11.015625 5.40625 -10.796875 4.625 -10.359375 C 3.851562 -9.929688 3.25 -9.335938 2.8125 -8.578125 C 2.375 -7.816406 2.15625 -6.960938 2.15625 -6.015625 C 2.15625 -5.078125 2.375 -4.226562 2.8125 -3.46875 C 3.25 -2.707031 3.851562 -2.109375 4.625 -1.671875 C 5.40625 -1.242188 6.269531 -1.03125 7.21875 -1.03125 Z M 7.21875 -1.03125 "/></g></g></g><g fill="#1a1a1a" fill-opacity="1"><g transform="translate(182.370986, 234.682235)"><g><path d="M 10.4375 -6.015625 L 11.65625 -6.015625 L 11.65625 -1.421875 C 11.101562 -0.929688 10.441406 -0.550781 9.671875 -0.28125 C 8.898438 -0.0195312 8.09375 0.109375 7.25 0.109375 C 6.039062 0.109375 4.953125 -0.15625 3.984375 -0.6875 C 3.023438 -1.21875 2.269531 -1.945312 1.71875 -2.875 C 1.164062 -3.8125 0.890625 -4.859375 0.890625 -6.015625 C 0.890625 -7.179688 1.164062 -8.226562 1.71875 -9.15625 C 2.269531 -10.09375 3.023438 -10.820312 3.984375 -11.34375 C 4.953125 -11.875 6.046875 -12.140625 7.265625 -12.140625 C 8.179688 -12.140625 9.019531 -11.992188 9.78125 -11.703125 C 10.550781 -11.410156 11.203125 -10.976562 11.734375 -10.40625 L 10.9375 -9.59375 C 9.988281 -10.539062 8.78125 -11.015625 7.3125 -11.015625 C 6.332031 -11.015625 5.453125 -10.796875 4.671875 -10.359375 C 3.890625 -9.929688 3.273438 -9.335938 2.828125 -8.578125 C 2.378906 -7.816406 2.15625 -6.960938 2.15625 -6.015625 C 2.15625 -5.078125 2.378906 -4.226562 2.828125 -3.46875 C 3.273438 -2.71875 3.882812 -2.125 4.65625 -1.6875 C 5.4375 -1.25 6.316406 -1.03125 7.296875 -1.03125 C 8.535156 -1.03125 9.582031 -1.34375 10.4375 -1.96875 Z M 10.4375 -6.015625 "/></g></g></g><g fill="#1a1a1a" fill-opacity="1"><g transform="translate(204.261171, 234.682235)"><g><path d="M 10.1875 0 L 7.4375 -3.875 C 7.125 -3.832031 6.800781 -3.8125 6.46875 -3.8125 L 3.234375 -3.8125 L 3.234375 0 L 1.96875 0 L 1.96875 -12.046875 L 6.46875 -12.046875 C 8.007812 -12.046875 9.210938 -11.675781 10.078125 -10.9375 C 10.953125 -10.207031 11.390625 -9.195312 11.390625 -7.90625 C 11.390625 -6.96875 11.148438 -6.175781 10.671875 -5.53125 C 10.191406 -4.882812 9.515625 -4.414062 8.640625 -4.125 L 11.578125 0 Z M 6.4375 -4.90625 C 7.625 -4.90625 8.53125 -5.164062 9.15625 -5.6875 C 9.789062 -6.21875 10.109375 -6.957031 10.109375 -7.90625 C 10.109375 -8.882812 9.789062 -9.632812 9.15625 -10.15625 C 8.53125 -10.675781 7.625 -10.9375 6.4375 -10.9375 L 3.234375 -10.9375 L 3.234375 -4.90625 Z M 6.4375 -4.90625 "/></g></g></g><g fill="#1a1a1a" fill-opacity="1"><g transform="translate(225.292006, 234.682235)"><g><path d="M 9.515625 -3.21875 L 2.796875 -3.21875 L 1.359375 0 L 0.03125 0 L 5.546875 -12.046875 L 6.796875 -12.046875 L 12.296875 0 L 10.953125 0 Z M 9.046875 -4.25 L 6.15625 -10.71875 L 3.265625 -4.25 Z M 9.046875 -4.25 "/></g></g></g><g fill="#1a1a1a" fill-opacity="1"><g transform="translate(246.219701, 234.682235)"><g><path d="M 6.46875 -12.046875 C 8.007812 -12.046875 9.210938 -11.675781 10.078125 -10.9375 C 10.953125 -10.207031 11.390625 -9.195312 11.390625 -7.90625 C 11.390625 -6.625 10.953125 -5.617188 10.078125 -4.890625 C 9.210938 -4.160156 8.007812 -3.796875 6.46875 -3.796875 L 3.234375 -3.796875 L 3.234375 0 L 1.96875 0 L 1.96875 -12.046875 Z M 6.4375 -4.921875 C 7.625 -4.921875 8.53125 -5.179688 9.15625 -5.703125 C 9.789062 -6.222656 10.109375 -6.957031 10.109375 -7.90625 C 10.109375 -8.882812 9.789062 -9.632812 9.15625 -10.15625 C 8.53125 -10.675781 7.625 -10.9375 6.4375 -10.9375 L 3.234375 -10.9375 L 3.234375 -4.921875 Z M 6.4375 -4.921875 "/></g></g></g><g fill="#1a1a1a" fill-opacity="1"><g transform="translate(267.164598, 234.682235)"><g><path d="M 12.03125 -12.046875 L 12.03125 0 L 10.765625 0 L 10.765625 -5.5625 L 3.234375 -5.5625 L 3.234375 0 L 1.96875 0 L 1.96875 -12.046875 L 3.234375 -12.046875 L 3.234375 -6.671875 L 10.765625 -6.671875 L 10.765625 -12.046875 Z M 12.03125 -12.046875 "/></g></g></g><g fill="#1a1a1a" fill-opacity="1"><g transform="translate(289.74226, 234.682235)"><g><path d="M 6.09375 -4.15625 L 6.09375 0 L 4.828125 0 L 4.828125 -4.15625 L 0.015625 -12.046875 L 1.375 -12.046875 L 5.5 -5.28125 L 9.640625 -12.046875 L 10.90625 -12.046875 Z M 6.09375 -4.15625 "/></g></g></g></svg>