<?xml version="1.0" encoding="UTF-8"?>
<svg xmlns="http://www.w3.org/2000/svg" xmlns:xlink="http://www.w3.org/1999/xlink" width="556px" height="214px" viewBox="0 0 556 214" version="1.1">
<defs>
<clipPath id="clip1">
  <path d="M 345.003906 17.632812 L 537.261719 17.632812 L 537.261719 138.589844 L 345.003906 138.589844 Z M 345.003906 17.632812 "/>
</clipPath>
<clipPath id="clip2">
  <path d="M 392 39.539062 L 492.863281 39.539062 L 492.863281 140.296875 L 392 140.296875 Z M 392 39.539062 "/>
</clipPath>
</defs>
<g id="surface1">
<path style=" stroke:none;fill-rule:nonzero;fill:rgb(10.196078%,10.196078%,10.196078%);fill-opacity:1;" d="M 427.863281 106.257812 C 423.375 102.246094 420.550781 96.410156 420.550781 89.917969 C 420.550781 89.367188 420.570312 88.820312 420.609375 88.28125 C 420.65625 88.21875 420.703125 88.160156 420.746094 88.105469 C 420.917969 87.886719 421.089844 87.667969 421.261719 87.453125 C 421.332031 87.367188 421.402344 87.28125 421.476562 87.195312 C 421.632812 87.003906 421.792969 86.8125 421.953125 86.625 C 422.050781 86.511719 422.144531 86.398438 422.242188 86.289062 C 422.382812 86.128906 422.527344 85.96875 422.667969 85.8125 C 422.816406 85.644531 422.96875 85.480469 423.121094 85.316406 C 423.210938 85.222656 423.300781 85.125 423.390625 85.03125 C 426.171875 82.109375 428.988281 80.09375 431.695312 78.730469 C 429.496094 81.355469 428.199219 84.046875 427.457031 86.050781 C 425.183594 92.183594 425.324219 98.960938 427.863281 106.257812 "/>
<path style=" stroke:none;fill-rule:nonzero;fill:rgb(10.196078%,10.196078%,10.196078%);fill-opacity:1;" d="M 421.28125 85.128906 C 421.191406 85.230469 421.097656 85.335938 421.007812 85.441406 C 422.40625 78.699219 426.90625 73.089844 432.945312 70.175781 C 433.039062 70.1875 433.132812 70.199219 433.222656 70.210938 C 433.335938 70.226562 433.449219 70.246094 433.566406 70.261719 C 439.160156 71.097656 443.433594 72.847656 446.703125 74.992188 C 445.320312 74.753906 443.914062 74.632812 442.480469 74.632812 C 440.160156 74.632812 437.464844 74.957031 434.566406 75.917969 L 434.542969 75.925781 C 434.457031 75.953125 434.375 75.984375 434.289062 76.015625 L 434.210938 76.039062 C 429.53125 77.675781 425.234375 80.683594 421.390625 85.007812 L 421.28125 85.128906 "/>
<path style=" stroke:none;fill-rule:nonzero;fill:rgb(10.196078%,10.196078%,10.196078%);fill-opacity:1;" d="M 449.328125 110.722656 C 447.167969 111.441406 444.855469 111.828125 442.449219 111.828125 C 437.882812 111.828125 433.640625 110.429688 430.132812 108.035156 C 430.089844 107.9375 430.050781 107.84375 430.015625 107.75 C 429.953125 107.597656 429.894531 107.445312 429.835938 107.292969 C 427.804688 102.085938 427.191406 97.550781 427.414062 93.675781 C 428.585938 96.878906 430.257812 99.332031 431.613281 100.96875 C 435.789062 106.011719 441.734375 109.28125 449.328125 110.722656 "/>
<path style=" stroke:none;fill-rule:nonzero;fill:rgb(10.196078%,10.196078%,10.196078%);fill-opacity:1;" d="M 435.609375 69.097656 C 437.761719 68.386719 440.058594 68.003906 442.449219 68.003906 C 447.023438 68.003906 451.269531 69.410156 454.78125 71.804688 C 454.8125 71.882812 454.84375 71.960938 454.871094 72.035156 C 454.941406 72.191406 454.996094 72.347656 455.058594 72.503906 C 455.339844 73.226562 455.597656 73.933594 455.824219 74.625 L 455.84375 74.683594 C 457.253906 78.996094 457.675781 82.808594 457.484375 86.136719 C 456.3125 82.9375 454.644531 80.484375 453.289062 78.84375 C 449.117188 73.808594 443.183594 70.542969 435.609375 69.097656 "/>
<path style=" stroke:none;fill-rule:nonzero;fill:rgb(10.196078%,10.196078%,10.196078%);fill-opacity:1;" d="M 463.601562 94.703125 C 463.703125 94.59375 463.800781 94.480469 463.898438 94.367188 C 462.507812 101.109375 458.015625 106.722656 451.984375 109.644531 C 451.890625 109.632812 451.800781 109.621094 451.707031 109.609375 C 451.542969 109.585938 451.375 109.558594 451.210938 109.535156 C 450.445312 109.417969 449.707031 109.285156 448.988281 109.136719 L 448.933594 109.121094 C 444.492188 108.191406 440.976562 106.648438 438.195312 104.820312 C 439.574219 105.0625 440.988281 105.179688 442.421875 105.179688 C 444.742188 105.179688 447.445312 104.855469 450.34375 103.890625 L 450.378906 103.878906 C 450.464844 103.851562 450.550781 103.820312 450.640625 103.789062 L 450.667969 103.78125 C 455.363281 102.144531 459.679688 99.128906 463.535156 94.78125 L 463.601562 94.703125 "/>
<path style=" stroke:none;fill-rule:nonzero;fill:rgb(10.196078%,10.196078%,10.196078%);fill-opacity:1;" d="M 464.351562 89.917969 C 464.351562 90.457031 464.332031 90.996094 464.292969 91.53125 C 464.242188 91.597656 464.191406 91.660156 464.140625 91.726562 C 463.976562 91.933594 463.8125 92.140625 463.648438 92.339844 C 463.566406 92.445312 463.484375 92.546875 463.398438 92.648438 C 463.253906 92.828125 463.105469 93.003906 462.953125 93.175781 C 462.84375 93.3125 462.730469 93.441406 462.617188 93.574219 C 462.492188 93.710938 462.367188 93.851562 462.246094 93.988281 C 462.058594 94.195312 461.875 94.398438 461.6875 94.597656 C 461.632812 94.65625 461.578125 94.714844 461.523438 94.769531 C 458.734375 97.695312 455.917969 99.714844 453.207031 101.082031 C 455.40625 98.457031 456.703125 95.765625 457.441406 93.765625 C 459.714844 87.636719 459.578125 80.867188 457.046875 73.585938 C 461.53125 77.59375 464.351562 83.425781 464.351562 89.917969 "/>
<g clip-path="url(#clip1)" clip-rule="nonzero">
<path style=" stroke:none;fill-rule:nonzero;fill:rgb(10.196078%,10.196078%,10.196078%);fill-opacity:1;" d="M 535.152344 138.320312 C 535.152344 138.320312 535.101562 136.773438 535.019531 133.875 C 534.9375 130.976562 534.785156 126.722656 534.660156 121.3125 C 534.535156 115.898438 534.382812 109.328125 534.210938 101.789062 C 534.050781 94.253906 533.871094 85.746094 533.738281 76.46875 C 533.585938 67.195312 533.417969 57.144531 533.3125 46.511719 L 533.300781 45.511719 L 533.292969 45.011719 L 533.269531 44.609375 L 533.238281 44.105469 C 533.226562 43.9375 533.195312 43.855469 533.175781 43.726562 L 533.117188 43.375 C 533.09375 43.253906 533.046875 43.117188 533.015625 42.988281 C 532.734375 41.941406 532.230469 40.945312 531.546875 40.089844 C 530.1875 38.363281 528.0625 37.269531 525.851562 37.175781 L 525.433594 37.160156 L 524.890625 37.152344 L 523.832031 37.140625 C 523.128906 37.128906 522.425781 37.117188 521.714844 37.109375 C 520.304688 37.078125 518.882812 37.042969 517.457031 37.011719 C 514.605469 36.9375 511.722656 36.847656 508.816406 36.730469 C 503 36.496094 497.09375 36.207031 491.089844 35.699219 C 488.082031 35.425781 485.0625 35.132812 481.972656 34.636719 C 480.40625 34.335938 478.867188 34.117188 477.144531 33.445312 C 475.578125 32.855469 474.125 32.152344 472.6875 31.351562 C 471.257812 30.542969 469.863281 29.628906 468.507812 28.417969 C 467.84375 27.792969 467.140625 27.050781 466.566406 26.046875 L 465.496094 24.058594 C 465.167969 23.46875 464.839844 23.027344 464.589844 22.789062 C 464.324219 22.585938 464.257812 22.535156 463.964844 22.511719 L 463.851562 22.503906 C 463.820312 22.5 463.679688 22.503906 463.597656 22.503906 L 463.019531 22.503906 L 461.867188 22.507812 L 459.558594 22.511719 C 453.398438 22.523438 447.21875 22.542969 441.039062 22.554688 C 434.855469 22.542969 428.675781 22.527344 422.515625 22.515625 L 419.054688 22.507812 L 418.476562 22.503906 L 418.332031 22.503906 C 418.148438 22.507812 418.417969 22.5 418.335938 22.503906 L 418.050781 22.519531 C 417.859375 22.539062 417.734375 22.585938 417.484375 22.792969 C 417.234375 23.027344 416.90625 23.472656 416.578125 24.0625 L 415.496094 26.0625 C 415.074219 26.855469 414.195312 27.855469 413.566406 28.417969 C 412.207031 29.632812 410.816406 30.542969 409.386719 31.351562 C 407.945312 32.152344 406.492188 32.859375 404.929688 33.445312 C 404.160156 33.738281 403.3125 34.011719 402.402344 34.195312 C 401.652344 34.34375 400.933594 34.496094 400.167969 34.632812 L 397.804688 34.980469 C 397.019531 35.09375 396.277344 35.160156 395.511719 35.257812 C 393.992188 35.445312 392.488281 35.558594 390.984375 35.707031 C 384.980469 36.210938 379.070312 36.5 373.257812 36.734375 C 370.351562 36.851562 367.472656 36.941406 364.617188 37.015625 C 363.191406 37.050781 361.769531 37.085938 360.355469 37.117188 C 359.652344 37.128906 358.945312 37.136719 358.242188 37.148438 L 357.1875 37.160156 L 356.71875 37.167969 L 356.199219 37.1875 C 355.800781 37.1875 355.613281 37.246094 355.367188 37.273438 C 355.144531 37.285156 354.855469 37.382812 354.59375 37.4375 C 354.058594 37.574219 353.550781 37.785156 353.054688 38.023438 C 352.074219 38.519531 351.21875 39.246094 350.53125 40.097656 C 349.84375 40.949219 349.34375 41.941406 349.066406 42.988281 C 348.984375 43.25 348.9375 43.511719 348.898438 43.78125 C 348.839844 44.046875 348.828125 44.320312 348.808594 44.589844 C 348.804688 44.734375 348.789062 44.847656 348.785156 45.011719 L 348.777344 45.511719 L 348.765625 46.511719 C 348.703125 51.828125 348.640625 57 348.574219 62 C 348.496094 67 348.417969 71.832031 348.339844 76.46875 C 348.207031 85.746094 348.027344 94.253906 347.867188 101.789062 C 347.691406 109.328125 347.539062 115.898438 347.414062 121.3125 C 347.292969 126.722656 347.136719 130.976562 347.058594 133.875 C 346.96875 136.773438 346.921875 138.320312 346.921875 138.320312 C 346.921875 138.320312 346.875 136.773438 346.789062 133.875 C 346.710938 130.976562 346.554688 126.722656 346.433594 121.3125 C 346.304688 115.898438 346.152344 109.328125 345.980469 101.789062 C 345.816406 94.253906 345.636719 85.746094 345.503906 76.46875 C 345.429688 71.832031 345.351562 67 345.269531 62 C 345.207031 57 345.144531 51.828125 345.078125 46.511719 L 345.066406 45.511719 L 345.058594 45.011719 C 345.054688 44.847656 345.070312 44.625 345.078125 44.433594 C 345.089844 44.039062 345.105469 43.640625 345.175781 43.246094 C 345.226562 42.847656 345.289062 42.453125 345.398438 42.0625 C 345.773438 40.5 346.484375 39.003906 347.472656 37.707031 C 349.441406 35.09375 352.570312 33.34375 355.992188 33.117188 C 358.792969 33.007812 361.621094 32.898438 364.476562 32.785156 C 367.3125 32.667969 370.171875 32.539062 373.058594 32.386719 C 378.824219 32.070312 384.683594 31.699219 390.558594 31.121094 C 392.019531 30.957031 393.503906 30.824219 394.953125 30.621094 C 395.675781 30.523438 396.429688 30.441406 397.132812 30.328125 L 399.234375 29.992188 C 399.953125 29.863281 400.707031 29.699219 401.441406 29.550781 C 402.011719 29.429688 402.613281 29.242188 403.257812 28.996094 C 404.527344 28.515625 405.816406 27.882812 407.03125 27.199219 C 408.242188 26.511719 409.402344 25.714844 410.320312 24.886719 C 410.800781 24.402344 410.964844 24.269531 411.296875 23.726562 C 411.632812 23.121094 411.96875 22.433594 412.390625 21.683594 C 412.8125 20.9375 413.335938 20.082031 414.195312 19.253906 C 415.074219 18.425781 416.402344 17.753906 417.753906 17.6875 L 418.042969 17.671875 L 418.332031 17.660156 L 419.054688 17.660156 L 420.207031 17.65625 L 422.515625 17.648438 C 428.675781 17.640625 434.855469 17.625 441.039062 17.613281 C 447.21875 17.625 453.398438 17.640625 459.558594 17.65625 L 461.867188 17.660156 L 463.597656 17.664062 C 463.707031 17.664062 463.757812 17.660156 463.914062 17.667969 L 464.378906 17.695312 C 464.996094 17.742188 465.664062 17.90625 466.273438 18.183594 C 466.902344 18.453125 467.421875 18.855469 467.875 19.257812 C 468.734375 20.082031 469.261719 20.941406 469.679688 21.683594 C 469.890625 22.058594 470.082031 22.421875 470.257812 22.761719 L 470.78125 23.738281 C 470.964844 24.070312 471.308594 24.472656 471.753906 24.886719 C 472.667969 25.71875 473.828125 26.515625 475.042969 27.199219 C 476.257812 27.886719 477.542969 28.515625 478.8125 28.996094 C 479.910156 29.46875 481.386719 29.703125 482.773438 29.988281 C 485.632812 30.488281 488.582031 30.820312 491.511719 31.125 C 497.390625 31.703125 503.25 32.074219 509.015625 32.390625 C 511.898438 32.542969 514.761719 32.675781 517.597656 32.792969 C 520.460938 32.902344 523.296875 33.015625 526.105469 33.128906 C 527.78125 33.246094 529.425781 33.730469 530.882812 34.523438 C 532.34375 35.308594 533.605469 36.417969 534.59375 37.710938 C 535.585938 39.007812 536.292969 40.503906 536.667969 42.0625 C 536.714844 42.261719 536.769531 42.449219 536.804688 42.65625 L 536.898438 43.296875 C 536.921875 43.503906 536.964844 43.75 536.96875 43.917969 L 536.988281 44.417969 L 537 44.671875 L 537.003906 44.792969 L 537.003906 45.011719 L 537 45.511719 L 536.988281 46.511719 C 536.882812 57.144531 536.71875 67.195312 536.5625 76.46875 C 536.429688 85.746094 536.25 94.253906 536.089844 101.789062 C 535.917969 109.328125 535.765625 115.898438 535.640625 121.3125 C 535.515625 126.722656 535.363281 130.976562 535.285156 133.875 C 535.195312 136.773438 535.152344 138.320312 535.152344 138.320312 "/>
</g>
<path style=" stroke:none;fill-rule:nonzero;fill:rgb(10.196078%,10.196078%,10.196078%);fill-opacity:1;" d="M 442.453125 40.503906 C 415.214844 40.503906 393.058594 62.667969 393.058594 89.917969 C 393.058594 117.160156 415.214844 139.328125 442.453125 139.328125 C 469.683594 139.328125 491.839844 117.160156 491.839844 89.917969 C 491.839844 62.667969 469.683594 40.503906 442.453125 40.503906 Z M 442.453125 135.789062 C 417.171875 135.789062 396.601562 115.207031 396.601562 89.917969 C 396.601562 64.625 417.171875 44.046875 442.453125 44.046875 C 467.730469 44.046875 488.296875 64.625 488.296875 89.917969 C 488.296875 115.207031 467.730469 135.789062 442.453125 135.789062 "/>
<g clip-path="url(#clip2)" clip-rule="nonzero">
<path style=" stroke:none;fill-rule:nonzero;fill:rgb(10.196078%,10.196078%,10.196078%);fill-opacity:1;" d="M 439.292969 39.675781 C 438.785156 39.707031 438.394531 40.144531 438.425781 40.65625 C 438.457031 41.167969 438.898438 41.554688 439.40625 41.523438 C 439.921875 41.492188 440.308594 41.054688 440.277344 40.539062 C 440.242188 40.03125 439.804688 39.640625 439.292969 39.675781 Z M 436.148438 39.96875 C 435.640625 40.03125 435.28125 40.496094 435.34375 41.003906 C 435.410156 41.511719 435.871094 41.871094 436.378906 41.808594 C 436.890625 41.746094 437.25 41.28125 437.183594 40.773438 C 437.121094 40.265625 436.65625 39.902344 436.148438 39.96875 Z M 433.027344 40.460938 C 432.527344 40.554688 432.195312 41.039062 432.289062 41.546875 C 432.386719 42.046875 432.871094 42.378906 433.375 42.28125 C 433.878906 42.183594 434.210938 41.703125 434.113281 41.199219 C 434.015625 40.695312 433.53125 40.367188 433.027344 40.460938 Z M 429.945312 41.152344 C 429.449219 41.273438 429.148438 41.78125 429.277344 42.277344 C 429.40625 42.773438 429.910156 43.074219 430.40625 42.945312 C 430.902344 42.820312 431.199219 42.3125 431.074219 41.816406 C 430.945312 41.320312 430.441406 41.019531 429.945312 41.152344 Z M 426.910156 42.03125 C 426.425781 42.191406 426.15625 42.714844 426.3125 43.199219 C 426.476562 43.6875 427 43.953125 427.484375 43.796875 C 427.972656 43.636719 428.238281 43.113281 428.078125 42.628906 C 427.917969 42.140625 427.394531 41.875 426.910156 42.03125 Z M 423.933594 43.105469 C 423.457031 43.296875 423.226562 43.835938 423.414062 44.3125 C 423.601562 44.789062 424.140625 45.019531 424.617188 44.832031 C 425.09375 44.640625 425.324219 44.105469 425.136719 43.625 C 424.945312 43.148438 424.410156 42.917969 423.933594 43.105469 Z M 421.03125 44.367188 C 420.566406 44.585938 420.371094 45.140625 420.589844 45.601562 C 420.804688 46.0625 421.359375 46.261719 421.824219 46.046875 C 422.285156 45.824219 422.484375 45.273438 422.265625 44.8125 C 422.046875 44.347656 421.496094 44.148438 421.03125 44.367188 Z M 418.214844 45.808594 C 417.765625 46.058594 417.601562 46.621094 417.851562 47.070312 C 418.097656 47.515625 418.664062 47.679688 419.113281 47.433594 C 419.558594 47.183594 419.722656 46.621094 419.472656 46.171875 C 419.226562 45.722656 418.664062 45.5625 418.214844 45.808594 Z M 415.496094 47.425781 C 415.0625 47.699219 414.9375 48.273438 415.214844 48.703125 C 415.488281 49.136719 416.0625 49.261719 416.492188 48.984375 C 416.921875 48.714844 417.050781 48.140625 416.777344 47.707031 C 416.5 47.273438 415.925781 47.148438 415.496094 47.425781 Z M 412.882812 49.203125 C 412.472656 49.507812 412.378906 50.085938 412.683594 50.5 C 412.984375 50.914062 413.5625 51.003906 413.976562 50.703125 C 414.390625 50.402344 414.480469 49.820312 414.179688 49.410156 C 413.878906 48.992188 413.300781 48.902344 412.882812 49.203125 Z M 410.390625 51.144531 C 409.996094 51.472656 409.9375 52.058594 410.265625 52.453125 C 410.59375 52.84375 411.175781 52.902344 411.574219 52.574219 C 411.96875 52.246094 412.019531 51.664062 411.695312 51.269531 C 411.367188 50.871094 410.785156 50.820312 410.390625 51.144531 Z M 408.019531 53.238281 C 407.648438 53.585938 407.628906 54.171875 407.976562 54.550781 C 408.332031 54.921875 408.917969 54.9375 409.289062 54.589844 C 409.664062 54.238281 409.679688 53.652344 409.332031 53.277344 C 408.980469 52.90625 408.394531 52.886719 408.019531 53.238281 Z M 405.789062 55.472656 C 405.4375 55.84375 405.453125 56.433594 405.828125 56.785156 C 406.199219 57.136719 406.785156 57.117188 407.136719 56.742188 C 407.488281 56.371094 407.46875 55.785156 407.097656 55.433594 C 406.722656 55.078125 406.136719 55.097656 405.789062 55.472656 Z M 403.695312 57.84375 C 403.371094 58.238281 403.421875 58.820312 403.820312 59.148438 C 404.210938 59.476562 404.796875 59.421875 405.121094 59.027344 C 405.453125 58.628906 405.394531 58.046875 405.003906 57.71875 C 404.605469 57.394531 404.023438 57.445312 403.695312 57.84375 Z M 401.757812 60.335938 C 401.457031 60.75 401.546875 61.332031 401.960938 61.632812 C 402.375 61.933594 402.957031 61.84375 403.257812 61.429688 C 403.558594 61.015625 403.46875 60.433594 403.054688 60.132812 C 402.636719 59.832031 402.058594 59.921875 401.757812 60.335938 Z M 399.976562 62.945312 C 399.703125 63.378906 399.832031 63.949219 400.261719 64.226562 C 400.695312 64.503906 401.269531 64.375 401.542969 63.945312 C 401.816406 63.511719 401.691406 62.9375 401.257812 62.664062 C 400.828125 62.386719 400.253906 62.515625 399.976562 62.945312 Z M 398.367188 65.664062 C 398.121094 66.109375 398.28125 66.675781 398.730469 66.925781 C 399.179688 67.167969 399.742188 67.007812 399.992188 66.558594 C 400.238281 66.109375 400.074219 65.546875 399.625 65.296875 C 399.179688 65.050781 398.613281 65.214844 398.367188 65.664062 Z M 396.929688 68.472656 C 396.710938 68.933594 396.910156 69.488281 397.371094 69.707031 C 397.835938 69.925781 398.390625 69.730469 398.605469 69.265625 C 398.824219 68.804688 398.628906 68.25 398.164062 68.03125 C 397.703125 67.8125 397.148438 68.011719 396.929688 68.472656 Z M 395.671875 71.367188 C 395.484375 71.847656 395.714844 72.382812 396.191406 72.570312 C 396.667969 72.761719 397.203125 72.527344 397.394531 72.054688 C 397.582031 71.578125 397.351562 71.039062 396.878906 70.847656 C 396.398438 70.660156 395.859375 70.890625 395.671875 71.367188 Z M 394.597656 74.34375 C 394.441406 74.828125 394.703125 75.351562 395.191406 75.511719 C 395.679688 75.667969 396.199219 75.402344 396.359375 74.917969 C 396.519531 74.429688 396.253906 73.90625 395.765625 73.75 C 395.28125 73.589844 394.757812 73.855469 394.597656 74.34375 Z M 393.714844 77.375 C 393.585938 77.875 393.886719 78.378906 394.378906 78.507812 C 394.875 78.632812 395.382812 78.335938 395.511719 77.835938 C 395.636719 77.34375 395.339844 76.835938 394.84375 76.707031 C 394.347656 76.582031 393.84375 76.878906 393.714844 77.375 Z M 393.023438 80.460938 C 392.929688 80.964844 393.257812 81.449219 393.761719 81.542969 C 394.261719 81.640625 394.75 81.3125 394.84375 80.808594 C 394.941406 80.304688 394.609375 79.820312 394.109375 79.722656 C 393.605469 79.628906 393.121094 79.957031 393.023438 80.460938 Z M 392.527344 83.582031 C 392.464844 84.089844 392.824219 84.554688 393.332031 84.621094 C 393.84375 84.683594 394.304688 84.324219 394.371094 83.816406 C 394.433594 83.308594 394.074219 82.84375 393.5625 82.777344 C 393.058594 82.714844 392.59375 83.078125 392.527344 83.582031 Z M 392.234375 86.730469 C 392.199219 87.238281 392.589844 87.679688 393.101562 87.714844 C 393.609375 87.746094 394.054688 87.359375 394.082031 86.84375 C 394.113281 86.335938 393.726562 85.894531 393.21875 85.863281 C 392.707031 85.828125 392.265625 86.21875 392.234375 86.730469 Z M 392.132812 89.886719 C 392.132812 90.402344 392.550781 90.816406 393.058594 90.816406 C 393.574219 90.816406 393.988281 90.402344 393.988281 89.886719 C 393.988281 89.375 393.574219 88.960938 393.058594 88.960938 C 392.550781 88.960938 392.132812 89.375 392.132812 89.886719 Z M 392.230469 93.046875 C 392.261719 93.554688 392.699219 93.945312 393.210938 93.914062 C 393.722656 93.882812 394.109375 93.445312 394.078125 92.933594 L 394.082031 92.933594 C 394.046875 92.421875 393.609375 92.03125 393.097656 92.066406 C 392.585938 92.097656 392.199219 92.535156 392.230469 93.046875 Z M 392.523438 96.195312 C 392.585938 96.703125 393.050781 97.0625 393.558594 97 C 394.066406 96.933594 394.425781 96.472656 394.363281 95.960938 C 394.300781 95.457031 393.835938 95.097656 393.328125 95.160156 C 392.820312 95.21875 392.457031 95.683594 392.523438 96.195312 Z M 393.015625 99.316406 C 393.109375 99.820312 393.59375 100.148438 394.097656 100.054688 C 394.601562 99.960938 394.929688 99.476562 394.835938 98.972656 C 394.742188 98.46875 394.253906 98.136719 393.75 98.234375 C 393.25 98.328125 392.917969 98.8125 393.015625 99.3125 Z M 393.699219 102.402344 C 393.828125 102.898438 394.332031 103.199219 394.828125 103.070312 C 395.324219 102.941406 395.625 102.4375 395.496094 101.941406 C 395.367188 101.445312 394.863281 101.144531 394.371094 101.273438 C 393.871094 101.398438 393.574219 101.90625 393.699219 102.402344 Z M 394.582031 105.4375 C 394.738281 105.925781 395.261719 106.191406 395.75 106.035156 C 396.234375 105.875 396.503906 105.351562 396.34375 104.863281 C 396.1875 104.378906 395.664062 104.113281 395.175781 104.269531 C 394.6875 104.425781 394.421875 104.953125 394.582031 105.4375 Z M 395.652344 108.417969 C 395.839844 108.894531 396.382812 109.125 396.859375 108.9375 C 397.332031 108.75 397.566406 108.210938 397.375 107.734375 C 397.1875 107.257812 396.648438 107.023438 396.175781 107.214844 C 395.695312 107.402344 395.464844 107.941406 395.652344 108.417969 Z M 396.914062 111.320312 C 397.128906 111.78125 397.683594 111.980469 398.148438 111.765625 C 398.609375 111.542969 398.808594 110.992188 398.585938 110.53125 C 398.371094 110.066406 397.820312 109.871094 397.355469 110.085938 C 396.890625 110.304688 396.695312 110.859375 396.914062 111.320312 Z M 398.351562 114.136719 C 398.597656 114.585938 399.164062 114.75 399.609375 114.503906 C 400.058594 114.257812 400.222656 113.691406 399.972656 113.246094 C 399.726562 112.796875 399.164062 112.632812 398.714844 112.878906 C 398.269531 113.128906 398.105469 113.6875 398.351562 114.136719 Z M 399.964844 116.859375 C 400.238281 117.292969 400.8125 117.421875 401.242188 117.144531 C 401.675781 116.871094 401.800781 116.296875 401.527344 115.867188 C 401.253906 115.433594 400.679688 115.304688 400.25 115.582031 C 399.816406 115.855469 399.6875 116.429688 399.964844 116.859375 Z M 401.742188 119.472656 C 402.046875 119.890625 402.625 119.980469 403.039062 119.679688 C 403.453125 119.375 403.542969 118.796875 403.242188 118.382812 C 402.941406 117.96875 402.363281 117.875 401.945312 118.179688 C 401.53125 118.480469 401.441406 119.058594 401.742188 119.476562 Z M 403.683594 121.96875 C 404.007812 122.367188 404.59375 122.417969 404.988281 122.09375 C 405.382812 121.769531 405.433594 121.183594 405.109375 120.789062 C 404.78125 120.394531 404.199219 120.339844 403.804688 120.667969 C 403.410156 120.992188 403.355469 121.578125 403.683594 121.96875 Z M 405.773438 124.34375 C 406.125 124.71875 406.707031 124.734375 407.082031 124.382812 C 407.453125 124.035156 407.472656 123.445312 407.125 123.074219 C 406.773438 122.699219 406.183594 122.679688 405.8125 123.035156 C 405.4375 123.382812 405.421875 123.96875 405.773438 124.34375 Z M 408.003906 126.578125 C 408.378906 126.929688 408.964844 126.914062 409.3125 126.535156 C 409.667969 126.167969 409.648438 125.578125 409.273438 125.226562 C 408.902344 124.875 408.3125 124.894531 407.964844 125.269531 C 407.613281 125.640625 407.632812 126.226562 408.003906 126.578125 Z M 410.371094 128.671875 C 410.765625 129 411.347656 128.941406 411.675781 128.550781 C 412.003906 128.15625 411.949219 127.570312 411.558594 127.242188 C 411.160156 126.917969 410.578125 126.972656 410.25 127.367188 C 409.921875 127.761719 409.976562 128.34375 410.371094 128.671875 Z M 412.863281 130.613281 C 413.277344 130.914062 413.855469 130.820312 414.160156 130.410156 C 414.460938 129.992188 414.367188 129.414062 413.957031 129.113281 C 413.542969 128.8125 412.964844 128.902344 412.660156 129.316406 C 412.359375 129.730469 412.449219 130.3125 412.863281 130.613281 Z M 415.472656 132.390625 C 415.902344 132.667969 416.476562 132.542969 416.75 132.109375 C 417.027344 131.675781 416.902344 131.105469 416.46875 130.828125 C 416.035156 130.554688 415.464844 130.679688 415.1875 131.113281 C 414.914062 131.542969 415.039062 132.117188 415.472656 132.390625 Z M 418.183594 134.003906 C 418.632812 134.253906 419.195312 134.09375 419.445312 133.644531 C 419.695312 133.195312 419.53125 132.628906 419.082031 132.382812 C 418.632812 132.136719 418.070312 132.296875 417.824219 132.746094 C 417.574219 133.195312 417.738281 133.757812 418.183594 134.003906 Z M 420.996094 135.449219 C 421.457031 135.664062 422.007812 135.464844 422.226562 135.003906 C 422.449219 134.542969 422.25 133.988281 421.785156 133.769531 C 421.324219 133.550781 420.773438 133.75 420.554688 134.210938 C 420.332031 134.671875 420.53125 135.226562 420.996094 135.449219 Z M 423.886719 136.707031 C 424.363281 136.894531 424.898438 136.664062 425.089844 136.1875 C 425.28125 135.714844 425.046875 135.171875 424.570312 134.984375 C 424.097656 134.792969 423.558594 135.023438 423.371094 135.5 C 423.179688 135.976562 423.410156 136.515625 423.886719 136.707031 Z M 426.859375 137.78125 C 427.34375 137.941406 427.867188 137.675781 428.027344 137.1875 C 428.1875 136.699219 427.917969 136.179688 427.433594 136.019531 C 426.949219 135.859375 426.425781 136.125 426.265625 136.613281 C 426.105469 137.097656 426.371094 137.621094 426.859375 137.78125 Z M 429.890625 138.667969 C 430.386719 138.796875 430.890625 138.496094 431.019531 138.003906 C 431.148438 137.507812 430.847656 137 430.355469 136.871094 C 429.859375 136.742188 429.351562 137.042969 429.222656 137.539062 C 429.09375 138.03125 429.394531 138.542969 429.890625 138.667969 Z M 432.976562 139.359375 C 433.476562 139.457031 433.964844 139.128906 434.058594 138.621094 C 434.15625 138.121094 433.824219 137.636719 433.324219 137.539062 C 432.820312 137.441406 432.332031 137.773438 432.238281 138.273438 C 432.144531 138.777344 432.46875 139.261719 432.976562 139.359375 Z M 436.09375 139.855469 C 436.605469 139.921875 437.066406 139.558594 437.128906 139.050781 C 437.195312 138.542969 436.835938 138.078125 436.328125 138.015625 C 435.816406 137.953125 435.355469 138.3125 435.289062 138.816406 C 435.226562 139.328125 435.585938 139.792969 436.09375 139.855469 Z M 439.238281 140.152344 C 439.75 140.1875 440.191406 139.800781 440.222656 139.285156 C 440.253906 138.773438 439.867188 138.335938 439.355469 138.304688 C 438.847656 138.269531 438.402344 138.660156 438.375 139.171875 C 438.339844 139.679688 438.726562 140.121094 439.238281 140.152344 Z M 442.398438 140.257812 C 442.90625 140.257812 443.324219 139.84375 443.324219 139.328125 C 443.328125 138.816406 442.910156 138.402344 442.398438 138.402344 C 441.886719 138.402344 441.472656 138.8125 441.46875 139.328125 C 441.46875 139.839844 441.886719 140.257812 442.398438 140.257812 Z M 445.554688 140.160156 C 446.0625 140.128906 446.453125 139.691406 446.421875 139.179688 C 446.394531 138.667969 445.949219 138.277344 445.441406 138.308594 C 444.929688 138.339844 444.539062 138.78125 444.574219 139.292969 C 444.601562 139.804688 445.042969 140.191406 445.554688 140.160156 Z M 448.699219 139.867188 C 449.207031 139.808594 449.566406 139.34375 449.503906 138.835938 C 449.441406 138.324219 448.976562 137.964844 448.472656 138.027344 C 447.960938 138.09375 447.601562 138.554688 447.664062 139.0625 C 447.726562 139.570312 448.191406 139.929688 448.699219 139.867188 Z M 451.820312 139.382812 C 452.324219 139.285156 452.652344 138.800781 452.558594 138.296875 C 452.460938 137.792969 451.976562 137.464844 451.476562 137.558594 C 450.972656 137.652344 450.644531 138.136719 450.738281 138.640625 C 450.832031 139.144531 451.316406 139.476562 451.820312 139.382812 Z M 454.90625 138.695312 C 455.402344 138.566406 455.699219 138.0625 455.570312 137.566406 C 455.445312 137.070312 454.941406 136.769531 454.445312 136.898438 C 453.949219 137.023438 453.652344 137.53125 453.777344 138.027344 C 453.90625 138.523438 454.410156 138.824219 454.90625 138.695312 Z M 457.941406 137.816406 C 458.425781 137.660156 458.695312 137.136719 458.535156 136.648438 C 458.378906 136.160156 457.855469 135.894531 457.367188 136.050781 C 456.882812 136.210938 456.617188 136.730469 456.773438 137.21875 C 456.929688 137.707031 457.453125 137.972656 457.941406 137.816406 Z M 460.917969 136.742188 C 461.394531 136.554688 461.625 136.015625 461.4375 135.542969 C 461.25 135.0625 460.710938 134.832031 460.234375 135.019531 C 459.761719 135.207031 459.527344 135.746094 459.714844 136.222656 C 459.902344 136.699219 460.441406 136.933594 460.917969 136.742188 Z M 463.824219 135.484375 C 464.285156 135.269531 464.480469 134.714844 464.265625 134.25 C 464.046875 133.789062 463.496094 133.589844 463.03125 133.808594 C 462.566406 134.027344 462.371094 134.578125 462.585938 135.042969 C 462.808594 135.507812 463.359375 135.707031 463.824219 135.484375 Z M 466.640625 134.050781 C 467.085938 133.800781 467.25 133.238281 467.003906 132.789062 C 466.753906 132.339844 466.195312 132.175781 465.746094 132.421875 C 465.296875 132.667969 465.132812 133.234375 465.378906 133.683594 C 465.625 134.132812 466.191406 134.292969 466.636719 134.050781 Z M 469.359375 132.4375 C 469.792969 132.164062 469.921875 131.585938 469.644531 131.15625 C 469.371094 130.722656 468.796875 130.597656 468.367188 130.871094 C 467.933594 131.144531 467.804688 131.71875 468.082031 132.148438 C 468.355469 132.582031 468.925781 132.710938 469.359375 132.4375 Z M 471.972656 130.65625 C 472.386719 130.355469 472.480469 129.777344 472.179688 129.363281 C 471.878906 128.949219 471.296875 128.855469 470.886719 129.15625 C 470.46875 129.457031 470.378906 130.039062 470.679688 130.453125 C 470.980469 130.867188 471.558594 130.960938 471.972656 130.65625 Z M 474.472656 128.722656 C 474.863281 128.390625 474.917969 127.808594 474.59375 127.414062 C 474.269531 127.019531 473.683594 126.960938 473.289062 127.292969 C 472.894531 127.617188 472.839844 128.199219 473.164062 128.597656 C 473.492188 128.992188 474.074219 129.046875 474.472656 128.722656 Z M 476.84375 126.628906 C 477.214844 126.277344 477.234375 125.691406 476.886719 125.320312 C 476.535156 124.945312 475.949219 124.925781 475.574219 125.277344 C 475.199219 125.628906 475.179688 126.214844 475.535156 126.589844 C 475.882812 126.960938 476.46875 126.980469 476.84375 126.628906 Z M 479.078125 124.398438 C 479.429688 124.023438 479.414062 123.4375 479.039062 123.085938 C 478.667969 122.734375 478.078125 122.753906 477.726562 123.125 C 477.378906 123.5 477.394531 124.085938 477.769531 124.4375 C 478.140625 124.789062 478.726562 124.769531 479.078125 124.398438 Z M 481.171875 122.03125 C 481.496094 121.636719 481.445312 121.050781 481.050781 120.726562 C 480.65625 120.394531 480.070312 120.453125 479.742188 120.84375 L 479.746094 120.84375 C 479.417969 121.238281 479.472656 121.824219 479.867188 122.152344 C 480.257812 122.476562 480.84375 122.425781 481.167969 122.03125 Z M 483.113281 119.539062 C 483.414062 119.125 483.324219 118.542969 482.910156 118.242188 C 482.496094 117.941406 481.914062 118.03125 481.613281 118.445312 C 481.3125 118.859375 481.402344 119.4375 481.816406 119.738281 C 482.230469 120.039062 482.808594 119.953125 483.113281 119.539062 Z M 484.894531 116.929688 C 485.167969 116.496094 485.042969 115.925781 484.609375 115.648438 C 484.179688 115.371094 483.605469 115.5 483.332031 115.929688 C 483.054688 116.363281 483.179688 116.9375 483.613281 117.210938 C 484.042969 117.488281 484.617188 117.359375 484.894531 116.929688 Z M 486.507812 114.214844 C 486.757812 113.765625 486.59375 113.203125 486.144531 112.953125 C 485.699219 112.707031 485.132812 112.867188 484.886719 113.316406 C 484.636719 113.765625 484.800781 114.328125 485.246094 114.578125 C 485.695312 114.828125 486.257812 114.660156 486.507812 114.214844 Z M 487.949219 111.40625 C 488.167969 110.945312 487.96875 110.390625 487.507812 110.171875 C 487.046875 109.949219 486.492188 110.148438 486.273438 110.613281 C 486.054688 111.074219 486.25 111.628906 486.714844 111.847656 C 487.175781 112.066406 487.726562 111.867188 487.949219 111.40625 Z M 489.207031 108.511719 C 489.398438 108.039062 489.167969 107.496094 488.691406 107.304688 C 488.21875 107.117188 487.675781 107.351562 487.488281 107.824219 C 487.296875 108.300781 487.53125 108.839844 488.007812 109.03125 C 488.480469 109.21875 489.019531 108.988281 489.207031 108.511719 Z M 490.285156 105.542969 C 490.449219 105.050781 490.183594 104.53125 489.695312 104.371094 C 489.207031 104.210938 488.683594 104.476562 488.527344 104.964844 C 488.367188 105.453125 488.632812 105.976562 489.117188 106.136719 C 489.605469 106.292969 490.128906 106.027344 490.285156 105.542969 Z M 491.171875 102.507812 C 491.300781 102.011719 491.003906 101.503906 490.507812 101.378906 C 490.011719 101.25 489.503906 101.546875 489.375 102.042969 L 489.378906 102.042969 C 489.25 102.539062 489.546875 103.042969 490.042969 103.171875 C 490.539062 103.300781 491.046875 103.003906 491.171875 102.507812 Z M 491.867188 99.425781 C 491.960938 98.917969 491.632812 98.433594 491.132812 98.335938 C 490.628906 98.238281 490.140625 98.570312 490.046875 99.074219 C 489.949219 99.574219 490.277344 100.0625 490.78125 100.15625 C 491.285156 100.253906 491.769531 99.925781 491.867188 99.425781 Z M 492.363281 96.300781 C 492.429688 95.792969 492.070312 95.328125 491.5625 95.265625 C 491.050781 95.199219 490.589844 95.558594 490.523438 96.066406 L 490.527344 96.066406 C 490.460938 96.574219 490.816406 97.039062 491.328125 97.105469 C 491.835938 97.167969 492.296875 96.8125 492.363281 96.300781 Z M 492.664062 93.15625 C 492.699219 92.644531 492.308594 92.203125 491.796875 92.171875 C 491.289062 92.136719 490.84375 92.527344 490.8125 93.039062 C 490.78125 93.546875 491.167969 93.988281 491.679688 94.019531 C 492.191406 94.054688 492.632812 93.667969 492.664062 93.15625 Z M 492.765625 89.996094 C 492.765625 89.484375 492.355469 89.066406 491.839844 89.066406 C 491.332031 89.066406 490.914062 89.480469 490.914062 89.992188 C 490.914062 90.503906 491.324219 90.917969 491.839844 90.921875 C 492.351562 90.921875 492.765625 90.507812 492.765625 89.996094 Z M 492.675781 86.839844 C 492.644531 86.324219 492.203125 85.9375 491.691406 85.96875 C 491.179688 86 490.792969 86.4375 490.824219 86.949219 C 490.855469 87.460938 491.292969 87.851562 491.804688 87.820312 C 492.316406 87.789062 492.707031 87.347656 492.675781 86.839844 Z M 492.386719 83.691406 C 492.320312 83.179688 491.859375 82.820312 491.351562 82.886719 C 490.84375 82.949219 490.480469 83.410156 490.542969 83.917969 C 490.605469 84.425781 491.070312 84.789062 491.578125 84.726562 C 492.085938 84.664062 492.449219 84.199219 492.386719 83.691406 Z M 491.898438 80.566406 C 491.800781 80.0625 491.316406 79.734375 490.8125 79.828125 C 490.3125 79.921875 489.980469 80.40625 490.074219 80.914062 C 490.167969 81.414062 490.65625 81.746094 491.160156 81.652344 C 491.660156 81.558594 491.992188 81.070312 491.898438 80.566406 Z M 491.214844 77.484375 C 491.085938 76.984375 490.582031 76.683594 490.085938 76.8125 C 489.589844 76.941406 489.289062 77.445312 489.417969 77.9375 C 489.542969 78.4375 490.046875 78.734375 490.546875 78.609375 C 491.042969 78.484375 491.339844 77.976562 491.214844 77.484375 Z M 490.335938 74.445312 C 490.179688 73.957031 489.65625 73.6875 489.167969 73.847656 C 488.683594 74.003906 488.414062 74.527344 488.570312 75.015625 C 488.730469 75.5 489.253906 75.769531 489.738281 75.613281 C 490.226562 75.453125 490.496094 74.933594 490.335938 74.445312 Z M 489.265625 71.464844 C 489.078125 70.988281 488.539062 70.753906 488.0625 70.941406 C 487.589844 71.132812 487.355469 71.667969 487.542969 72.144531 C 487.730469 72.625 488.269531 72.855469 488.746094 72.667969 C 489.222656 72.476562 489.453125 71.941406 489.265625 71.464844 Z M 488.011719 68.558594 C 487.792969 68.09375 487.242188 67.898438 486.777344 68.113281 C 486.3125 68.332031 486.117188 68.882812 486.332031 69.347656 C 486.550781 69.8125 487.101562 70.011719 487.566406 69.792969 C 488.03125 69.574219 488.226562 69.023438 488.011719 68.558594 Z M 486.574219 65.738281 C 486.328125 65.289062 485.765625 65.125 485.316406 65.375 C 484.867188 65.617188 484.703125 66.183594 484.949219 66.632812 C 485.195312 67.082031 485.761719 67.246094 486.210938 67 C 486.660156 66.753906 486.820312 66.1875 486.574219 65.738281 Z M 484.964844 63.015625 C 484.691406 62.582031 484.117188 62.453125 483.683594 62.730469 C 483.253906 63.003906 483.125 63.574219 483.402344 64.011719 C 483.675781 64.441406 484.25 64.570312 484.679688 64.296875 C 485.113281 64.019531 485.238281 63.449219 484.964844 63.015625 Z M 483.1875 60.402344 C 482.886719 59.984375 482.308594 59.894531 481.894531 60.195312 C 481.480469 60.496094 481.386719 61.074219 481.6875 61.488281 C 481.988281 61.90625 482.570312 61.996094 482.984375 61.695312 C 483.398438 61.394531 483.488281 60.8125 483.191406 60.402344 Z M 481.253906 57.902344 C 480.925781 57.503906 480.34375 57.449219 479.949219 57.773438 C 479.554688 58.101562 479.496094 58.6875 479.824219 59.082031 C 480.148438 59.476562 480.734375 59.53125 481.128906 59.203125 C 481.523438 58.878906 481.578125 58.292969 481.253906 57.902344 Z M 479.167969 55.527344 C 478.816406 55.152344 478.230469 55.132812 477.855469 55.484375 C 477.480469 55.835938 477.460938 56.421875 477.8125 56.792969 C 478.164062 57.167969 478.75 57.1875 479.125 56.835938 C 479.496094 56.488281 479.515625 55.902344 479.167969 55.527344 Z M 476.9375 53.289062 C 476.5625 52.9375 475.976562 52.957031 475.625 53.328125 C 475.273438 53.699219 475.292969 54.289062 475.664062 54.636719 C 476.035156 54.992188 476.621094 54.972656 476.972656 54.597656 C 477.324219 54.226562 477.308594 53.640625 476.9375 53.289062 Z M 474.570312 51.195312 C 474.175781 50.867188 473.59375 50.921875 473.261719 51.316406 C 472.9375 51.707031 472.992188 52.292969 473.382812 52.621094 C 473.777344 52.949219 474.363281 52.894531 474.691406 52.5 C 475.019531 52.105469 474.964844 51.523438 474.570312 51.195312 Z M 472.082031 49.25 C 471.664062 48.949219 471.085938 49.035156 470.785156 49.453125 C 470.484375 49.867188 470.574219 50.445312 470.984375 50.746094 C 471.398438 51.050781 471.980469 50.960938 472.28125 50.546875 C 472.585938 50.132812 472.496094 49.550781 472.078125 49.25 Z M 469.476562 47.46875 C 469.042969 47.191406 468.46875 47.316406 468.195312 47.75 C 467.917969 48.179688 468.042969 48.753906 468.472656 49.03125 C 468.90625 49.304688 469.480469 49.179688 469.757812 48.746094 C 470.03125 48.316406 469.90625 47.742188 469.476562 47.46875 Z M 466.765625 45.851562 C 466.316406 45.601562 465.75 45.765625 465.5 46.210938 C 465.253906 46.660156 465.417969 47.222656 465.863281 47.472656 C 466.3125 47.722656 466.875 47.558594 467.125 47.113281 C 467.371094 46.664062 467.210938 46.097656 466.765625 45.851562 Z M 463.957031 44.40625 C 463.492188 44.1875 462.941406 44.386719 462.722656 44.847656 C 462.5 45.3125 462.699219 45.863281 463.160156 46.082031 C 463.621094 46.304688 464.175781 46.105469 464.394531 45.644531 C 464.617188 45.179688 464.417969 44.628906 463.957031 44.40625 Z M 461.0625 43.144531 C 460.589844 42.953125 460.046875 43.183594 459.859375 43.660156 C 459.667969 44.136719 459.902344 44.675781 460.375 44.867188 C 460.851562 45.058594 461.390625 44.824219 461.578125 44.347656 C 461.769531 43.875 461.539062 43.335938 461.0625 43.144531 Z M 458.09375 42.0625 C 457.605469 41.90625 457.082031 42.171875 456.925781 42.65625 C 456.765625 43.144531 457.03125 43.667969 457.515625 43.828125 C 458.003906 43.988281 458.523438 43.722656 458.6875 43.234375 C 458.847656 42.75 458.582031 42.226562 458.09375 42.0625 Z M 455.0625 41.175781 C 454.566406 41.046875 454.058594 41.34375 453.929688 41.839844 C 453.800781 42.339844 454.101562 42.84375 454.597656 42.96875 C 455.089844 43.101562 455.597656 42.800781 455.726562 42.304688 C 455.855469 41.8125 455.558594 41.304688 455.0625 41.175781 Z M 451.976562 40.480469 C 451.476562 40.382812 450.992188 40.710938 450.894531 41.21875 C 450.796875 41.71875 451.125 42.203125 451.628906 42.300781 C 452.128906 42.398438 452.617188 42.070312 452.714844 41.566406 C 452.8125 41.0625 452.480469 40.578125 451.980469 40.480469 Z M 448.859375 39.980469 C 448.351562 39.914062 447.886719 40.273438 447.820312 40.785156 C 447.757812 41.292969 448.117188 41.753906 448.625 41.820312 C 449.132812 41.886719 449.59375 41.527344 449.660156 41.019531 C 449.726562 40.511719 449.367188 40.046875 448.859375 39.980469 Z M 445.714844 39.679688 C 445.203125 39.648438 444.761719 40.035156 444.726562 40.546875 C 444.699219 41.058594 445.082031 41.496094 445.59375 41.53125 C 446.109375 41.5625 446.546875 41.175781 446.582031 40.664062 C 446.613281 40.15625 446.226562 39.710938 445.714844 39.679688 Z M 442.558594 39.574219 C 442.042969 39.574219 441.628906 39.988281 441.628906 40.5 C 441.628906 41.011719 442.042969 41.429688 442.554688 41.429688 C 443.066406 41.429688 443.480469 41.015625 443.484375 40.503906 C 443.484375 39.992188 443.066406 39.574219 442.554688 39.574219 Z M 442.453125 39.574219 C 441.9375 39.574219 441.523438 39.992188 441.523438 40.503906 C 441.523438 41.015625 441.9375 41.429688 442.453125 41.429688 C 442.964844 41.429688 443.378906 41.015625 443.378906 40.503906 C 443.378906 39.992188 442.964844 39.574219 442.453125 39.574219 "/>
</g>
<path style=" stroke:none;fill-rule:nonzero;fill:rgb(10.196078%,10.196078%,10.196078%);fill-opacity:1;" d="M 442.449219 111.089844 C 430.765625 111.089844 421.285156 101.613281 421.285156 89.917969 C 421.285156 78.222656 430.765625 68.742188 442.449219 68.742188 C 454.136719 68.742188 463.613281 78.222656 463.613281 89.917969 C 463.613281 101.613281 454.136719 111.089844 442.449219 111.089844 Z M 442.453125 60.894531 C 426.429688 60.894531 413.441406 73.890625 413.441406 89.917969 C 413.441406 105.945312 426.429688 118.941406 442.453125 118.941406 C 458.472656 118.941406 471.460938 105.945312 471.460938 89.917969 C 471.460938 73.890625 458.472656 60.894531 442.453125 60.894531 "/>
<path style=" stroke:none;fill-rule:nonzero;fill:rgb(10.196078%,10.196078%,10.196078%);fill-opacity:1;" d="M 442.449219 96.929688 C 438.578125 96.929688 435.4375 93.792969 435.4375 89.917969 C 435.4375 86.042969 438.578125 82.902344 442.449219 82.902344 C 446.320312 82.902344 449.460938 86.042969 449.460938 89.917969 C 449.460938 93.792969 446.320312 96.929688 442.449219 96.929688 "/>
<path style=" stroke:none;fill-rule:nonzero;fill:rgb(10.196078%,10.196078%,10.196078%);fill-opacity:1;" d="M 380.644531 59.765625 C 380.644531 62.371094 378.53125 64.480469 375.933594 64.480469 L 366.246094 64.480469 C 363.644531 64.480469 361.535156 62.371094 361.535156 59.765625 L 361.535156 50.078125 C 361.535156 47.476562 363.644531 45.363281 366.246094 45.363281 L 375.933594 45.363281 C 378.53125 45.363281 380.644531 47.476562 380.644531 50.078125 L 380.644531 59.765625 "/>
<path style=" stroke:none;fill-rule:nonzero;fill:rgb(10.196078%,10.196078%,10.196078%);fill-opacity:1;" d="M 462.941406 30.015625 C 462.941406 31.296875 461.902344 32.335938 460.621094 32.335938 L 420.808594 32.335938 C 419.53125 32.335938 418.492188 31.296875 418.492188 30.015625 C 418.492188 28.734375 419.53125 27.695312 420.808594 27.695312 L 460.621094 27.695312 C 461.902344 27.695312 462.941406 28.734375 462.941406 30.015625 "/>
<path style=" stroke:none;fill-rule:nonzero;fill:rgb(10.196078%,10.196078%,10.196078%);fill-opacity:1;" d="M 101.554688 17.050781 C 101.808594 16.210938 101.21875 15.289062 100.378906 15.121094 C 99.542969 14.867188 98.617188 15.371094 98.449219 16.296875 C 86.527344 63.007812 64.449219 79.136719 52.277344 84.597656 C 48.917969 86.113281 44.972656 87.457031 41.195312 88.128906 C 44.132812 75.609375 47.070312 63.261719 49.421875 53.597656 C 51.855469 43.601562 53.871094 34.949219 55.382812 28.730469 C 55.550781 27.890625 54.960938 26.964844 54.125 26.796875 C 53.28125 26.628906 52.359375 27.132812 52.191406 27.972656 C 50.765625 34.191406 48.664062 42.84375 46.230469 52.84375 C 43.796875 63.007812 41.027344 74.515625 38.339844 85.941406 C 36.996094 84.851562 35.652344 84.011719 34.226562 83.421875 C 29.273438 81.238281 25.496094 81.15625 23.984375 83.171875 C 23.058594 84.347656 23.144531 86.027344 24.320312 87.539062 C 26.164062 89.808594 29.859375 91.40625 34.308594 91.742188 C 35.148438 91.742188 36.070312 91.824219 36.996094 91.742188 C 35.234375 99.21875 33.554688 106.527344 32.128906 113.246094 C 29.859375 123.414062 28.347656 131.058594 27.425781 136.519531 C 25.914062 145.59375 26.25 147.441406 28.011719 148.03125 C 28.179688 148.113281 28.433594 148.199219 28.683594 148.199219 C 30.28125 148.199219 31.539062 145.929688 33.636719 141.226562 C 33.972656 140.382812 33.636719 139.460938 32.800781 139.125 C 31.957031 138.703125 31.035156 139.125 30.699219 139.964844 C 30.363281 140.554688 30.113281 141.140625 29.859375 141.5625 C 30.953125 132.992188 35.402344 112.828125 40.1875 92.246094 C 44.71875 97.453125 49.085938 104.929688 53.453125 112.324219 C 61.425781 125.765625 69.652344 139.710938 79.476562 141.8125 C 80.316406 142.0625 81.238281 142.148438 82.078125 142.148438 C 84.847656 142.148438 87.621094 141.226562 90.308594 139.375 C 90.976562 138.871094 91.144531 137.863281 90.640625 137.109375 C 90.136719 136.351562 89.132812 136.183594 88.460938 136.6875 C 85.605469 138.621094 82.917969 139.292969 80.148438 138.703125 C 71.667969 136.855469 63.859375 123.5 56.222656 110.644531 C 51.941406 103.335938 47.742188 96.277344 43.375 90.984375 C 46.652344 90.3125 50.09375 89.136719 53.617188 87.539062 C 66.296875 81.910156 89.382812 65.191406 101.554688 17.050781 Z M 28.097656 86.617188 C 27.089844 85.941406 26.671875 85.355469 26.585938 85.105469 C 27.089844 84.851562 28.9375 84.597656 32.964844 86.363281 C 34.140625 86.867188 35.316406 87.625 36.492188 88.546875 C 33.300781 88.632812 30.363281 88.128906 28.097656 86.617188 Z M 28.097656 86.617188 "/>
<path style=" stroke:none;fill-rule:nonzero;fill:rgb(10.196078%,10.196078%,10.196078%);fill-opacity:1;" d="M 91.894531 99.386719 C 90.128906 99.890625 88.449219 102.660156 90.632812 102.832031 C 94.496094 103.082031 95.25 98.378906 91.894531 99.386719 Z M 91.894531 99.386719 "/>
<path style=" stroke:none;fill-rule:nonzero;fill:rgb(10.196078%,10.196078%,10.196078%);fill-opacity:1;" d="M 203.296875 30.664062 C 203.046875 25.789062 201.535156 23.1875 198.847656 22.933594 C 190.453125 21.925781 175.257812 50.488281 161.574219 91.824219 C 167.363281 50.742188 163.757812 43.851562 159.640625 42.929688 C 157.628906 42.507812 151.667969 41.164062 135.464844 78.464844 C 128.074219 95.355469 120.4375 116.1875 114.054688 136.519531 C 119.679688 109.046875 130.84375 60.234375 134.539062 44.863281 C 136.890625 34.949219 136.386719 29.066406 133.113281 26.964844 C 131.351562 25.875 128.074219 25.453125 122.28125 29.90625 C 116.40625 34.441406 109.941406 42.59375 105.324219 51.078125 C 102.21875 56.875 97.433594 67.796875 100.203125 76.03125 C 102.804688 83.757812 110.867188 85.523438 117.160156 85.605469 C 118.085938 85.605469 118.757812 84.933594 118.757812 84.011719 C 118.839844 83.085938 118.085938 82.414062 117.160156 82.414062 C 109.519531 82.246094 104.902344 79.808594 103.226562 74.9375 C 99.449219 63.511719 113.214844 41.078125 124.296875 32.425781 C 127.488281 29.992188 130.175781 28.898438 131.433594 29.738281 C 132.105469 30.160156 134.121094 32.511719 131.351562 44.105469 C 129.839844 50.574219 123.375 78.300781 117.414062 105.351562 C 114.222656 120.054688 111.703125 131.816406 110.027344 140.214844 C 109.101562 145.089844 108.429688 148.871094 108.011719 151.472656 C 107.421875 155.421875 107.253906 157.101562 108.933594 157.609375 C 109.101562 157.691406 109.269531 157.773438 109.519531 157.773438 C 110.867188 157.773438 111.539062 155.925781 112.292969 153.910156 C 112.292969 153.828125 112.292969 153.828125 112.375 153.742188 C 119.34375 128.707031 129.082031 101.066406 138.402344 79.726562 C 153.34375 45.28125 158.71875 46.039062 158.96875 46.121094 C 159.054688 46.121094 161.65625 46.878906 161.320312 61.160156 C 160.984375 72.671875 158.886719 90.226562 155.023438 113.164062 C 154.855469 114.003906 155.445312 114.84375 156.285156 115.011719 C 157.121094 115.179688 157.960938 114.761719 158.128906 113.917969 C 167.953125 80.0625 176.933594 59.058594 182.8125 47.382812 C 191.292969 30.496094 196.664062 26.125 198.429688 26.125 C 198.429688 26.125 198.511719 26.125 198.511719 26.125 C 199.183594 26.210938 199.941406 27.636719 200.105469 30.832031 C 200.777344 41.417969 195.742188 69.140625 191.292969 93.589844 C 183.652344 135.511719 182.898438 143.070312 186.171875 144.25 C 188.1875 145.003906 189.78125 142.652344 191.125 140.300781 C 191.542969 139.542969 191.292969 138.535156 190.535156 138.117188 C 189.78125 137.695312 188.773438 137.949219 188.269531 138.703125 C 188.015625 139.207031 187.765625 139.628906 187.515625 139.964844 C 187.347656 133.496094 191.292969 111.902344 194.480469 94.175781 C 199.183594 68.300781 204.054688 41.585938 203.296875 30.664062 Z M 203.296875 30.664062 "/>
<path style=" stroke:none;fill-rule:nonzero;fill:rgb(10.196078%,10.196078%,10.196078%);fill-opacity:1;" d="M 229.140625 84.011719 C 228.386719 83.507812 227.464844 83.757812 226.957031 84.515625 C 221.335938 93.589844 211.929688 102.160156 209.078125 100.980469 C 208.742188 100.8125 206.054688 99.21875 209.75 85.019531 C 209.917969 84.09375 209.414062 83.253906 208.574219 83.003906 C 207.648438 82.835938 206.808594 83.339844 206.558594 84.179688 C 203.535156 96.027344 203.957031 102.324219 207.734375 103.921875 C 208.320312 104.175781 208.910156 104.257812 209.496094 104.257812 C 215.792969 104.257812 225.449219 93 229.730469 86.195312 C 230.148438 85.441406 229.898438 84.429688 229.140625 84.011719 Z M 209.328125 77.207031 C 213.609375 77.457031 213.527344 72.082031 210.085938 73.257812 C 208.320312 73.761719 206.054688 77.039062 209.328125 77.207031 Z M 209.328125 77.207031 "/>
<path style=" stroke:none;fill-rule:nonzero;fill:rgb(10.196078%,10.196078%,10.196078%);fill-opacity:1;" d="M 296.71875 53.515625 C 295.628906 52.003906 290.761719 51.078125 238.625 52.253906 C 240.304688 45.449219 241.816406 39.316406 243.160156 34.359375 C 243.410156 33.433594 242.90625 32.59375 242.066406 32.34375 C 241.230469 32.089844 240.304688 32.59375 240.054688 33.433594 C 238.625 38.726562 237.03125 45.113281 235.269531 52.339844 C 230.652344 52.421875 225.613281 52.503906 220.15625 52.675781 C 212.683594 52.84375 206.808594 53.011719 204.539062 53.011719 C 203.617188 53.011719 202.863281 53.765625 202.863281 54.605469 C 202.863281 55.53125 203.617188 56.289062 204.539062 56.289062 C 206.890625 56.203125 212.769531 56.117188 220.242188 55.867188 C 224.1875 55.78125 229.054688 55.699219 234.511719 55.53125 C 230.902344 70.820312 226.789062 89.136719 223.09375 107.03125 C 220.40625 120.136719 218.226562 131.480469 216.800781 139.796875 C 216.042969 144.164062 215.539062 147.609375 215.289062 149.960938 C 214.953125 153.15625 214.78125 155.003906 216.378906 155.589844 C 216.628906 155.589844 216.800781 155.675781 217.050781 155.675781 C 218.476562 155.675781 219.234375 153.660156 219.90625 151.808594 C 220.242188 150.96875 219.820312 150.046875 218.980469 149.710938 C 218.8125 149.710938 218.730469 149.625 218.5625 149.625 C 219.398438 143.070312 221.917969 128.371094 226.789062 105.183594 C 230.398438 87.625 234.34375 70.066406 237.871094 55.445312 C 260.957031 54.941406 290.929688 54.523438 294.371094 55.699219 C 294.957031 56.203125 295.714844 56.203125 296.386719 55.78125 C 297.058594 55.28125 297.226562 54.269531 296.71875 53.515625 Z M 296.71875 53.515625 "/>
<path style=" stroke:none;fill-rule:nonzero;fill:rgb(10.196078%,10.196078%,10.196078%);fill-opacity:1;" d="M 264.734375 84.011719 C 263.976562 83.589844 262.972656 83.757812 262.550781 84.515625 C 256.84375 93.167969 247.355469 107.617188 241.140625 106.273438 C 240.136719 106.023438 239.296875 105.351562 238.707031 104.257812 C 237.03125 101.234375 237.28125 95.183594 239.210938 89.890625 C 241.3125 84.261719 243.828125 82.835938 244.332031 82.917969 C 244.417969 83.003906 244.921875 84.09375 244.25 86.699219 C 243.996094 87.625 244.5 88.464844 245.339844 88.714844 C 246.265625 88.882812 247.105469 88.378906 247.355469 87.539062 C 248.949219 81.492188 246.179688 80.148438 245.339844 79.808594 C 242.234375 78.886719 238.457031 82.582031 236.1875 88.800781 C 234.257812 94.007812 233.417969 101.402344 235.9375 105.855469 C 236.945312 107.789062 238.539062 108.960938 240.472656 109.382812 C 240.976562 109.550781 241.476562 109.550781 241.984375 109.550781 C 249.285156 109.550781 257.175781 98.546875 265.238281 86.28125 C 265.742188 85.523438 265.488281 84.515625 264.734375 84.011719 Z M 264.734375 84.011719 "/>
<path style=" stroke:none;fill-rule:nonzero;fill:rgb(10.196078%,10.196078%,10.196078%);fill-opacity:1;" d="M 301.585938 83.925781 C 300.832031 83.421875 299.824219 83.675781 299.402344 84.429688 C 287.480469 103.671875 283.285156 103.25 282.863281 103.167969 C 282.023438 102.914062 281.101562 101.234375 280.851562 97.117188 C 280.765625 95.269531 280.347656 89.726562 276.652344 89.21875 C 272.371094 88.632812 267.25 96.109375 262.632812 105.769531 C 265.488281 93 269.601562 75.441406 272.621094 63.007812 C 283.871094 42.761719 289.582031 27.554688 287.230469 24.277344 C 286.726562 23.523438 285.886719 23.269531 285.046875 23.4375 C 281.4375 24.109375 275.8125 36.375 272.035156 51.917969 C 271.867188 52.503906 256.839844 113.917969 256.335938 121.480469 C 256.335938 122.320312 256.839844 122.992188 257.679688 123.160156 C 257.761719 123.160156 257.847656 123.160156 257.929688 123.160156 C 258.601562 123.160156 259.273438 122.742188 259.527344 122.152344 C 266.828125 101.148438 273.964844 92.414062 276.0625 92.414062 C 276.148438 92.414062 276.148438 92.414062 276.148438 92.414062 C 276.484375 92.414062 277.40625 93.421875 277.660156 97.285156 C 277.742188 99.300781 278.164062 105.265625 282.023438 106.273438 C 283.703125 106.695312 288.65625 107.953125 302.089844 86.113281 C 302.59375 85.355469 302.339844 84.347656 301.585938 83.925781 Z M 284.460938 28.058594 C 283.789062 31.417969 281.4375 38.644531 275.8125 49.984375 C 279.003906 37.886719 282.445312 30.914062 284.460938 28.058594 Z M 284.460938 28.058594 "/>
<path style=" stroke:none;fill-rule:nonzero;fill:rgb(10.196078%,10.196078%,10.196078%);fill-opacity:1;" d="M 326.433594 84.347656 C 325.675781 83.84375 324.667969 84.011719 324.164062 84.769531 C 317.867188 93.589844 312.75 99.132812 307.710938 102.746094 C 305.191406 104.511719 302.757812 104.847656 301.160156 103.671875 C 300.15625 102.914062 297.046875 99.554688 300.660156 87.792969 C 308.800781 81.070312 313.25 74.6875 312.078125 71.324219 C 311.65625 70.316406 310.648438 69.644531 309.558594 69.644531 C 306.199219 69.730469 301.078125 75.527344 297.71875 86.363281 C 293.605469 99.722656 296.964844 104.59375 299.3125 106.273438 C 300.488281 107.199219 301.832031 107.617188 303.34375 107.617188 C 305.277344 107.617188 307.460938 106.863281 309.558594 105.351562 C 314.929688 101.484375 320.21875 95.773438 326.765625 86.617188 C 327.273438 85.859375 327.101562 84.851562 326.433594 84.347656 Z M 308.886719 73.171875 C 308.550781 74.515625 307.121094 77.207031 303.175781 81.238281 C 305.359375 76.367188 307.710938 74.015625 308.886719 73.171875 Z M 308.886719 73.171875 "/>
<path style=" stroke:none;fill-rule:nonzero;fill:rgb(10.196078%,10.196078%,10.196078%);fill-opacity:1;" d="M 347.164062 24.363281 C 346.578125 23.605469 345.738281 23.269531 344.898438 23.351562 C 340.113281 24.195312 334.992188 42.089844 333.566406 47.550781 C 329.367188 63.597656 324.078125 86.363281 319.796875 106.78125 C 317.78125 116.441406 316.1875 124.589844 315.179688 130.472656 C 313.5 140.382812 313.753906 141.644531 315.347656 142.0625 C 315.515625 142.148438 315.683594 142.148438 315.851562 142.148438 C 317.359375 142.148438 318.117188 140.132812 318.871094 137.949219 C 319.125 137.109375 318.707031 136.183594 317.867188 135.933594 C 317.78125 135.847656 317.695312 135.847656 317.613281 135.847656 C 319.378906 123.75 326.597656 88.546875 333.984375 59.058594 C 333.984375 58.976562 334.066406 58.890625 334.152344 58.808594 C 345.066406 41.5 349.347656 27.722656 347.164062 24.363281 Z M 336.839844 47.71875 C 340.03125 35.871094 342.882812 30.160156 344.394531 27.808594 C 344.058594 30.914062 342.210938 37.636719 336.839844 47.71875 Z M 336.839844 47.71875 "/>
<path style=" stroke:none;fill-rule:nonzero;fill:rgb(10.196078%,10.196078%,10.196078%);fill-opacity:1;" d="M 359.921875 24.363281 C 359.335938 23.605469 358.5 23.269531 357.65625 23.351562 C 352.871094 24.195312 347.75 42.089844 346.324219 47.550781 C 342.128906 63.597656 336.839844 86.363281 332.554688 106.78125 C 330.539062 116.441406 328.945312 124.589844 327.9375 130.472656 C 326.257812 140.382812 326.511719 141.644531 328.105469 142.0625 C 328.273438 142.148438 328.441406 142.148438 328.609375 142.148438 C 330.121094 142.148438 330.875 140.132812 331.632812 137.949219 C 331.882812 137.109375 331.464844 136.183594 330.625 135.933594 C 330.539062 135.847656 330.457031 135.847656 330.375 135.847656 C 332.136719 123.75 339.355469 88.546875 346.746094 59.058594 C 346.746094 58.976562 346.828125 58.890625 346.910156 58.808594 C 357.824219 41.5 362.105469 27.722656 359.921875 24.363281 Z M 349.597656 47.71875 C 352.789062 35.871094 355.644531 30.160156 357.152344 27.808594 C 356.816406 30.914062 354.96875 37.636719 349.597656 47.71875 Z M 349.597656 47.71875 "/>
<path style=" stroke:none;fill-rule:nonzero;fill:rgb(10.196078%,10.196078%,10.196078%);fill-opacity:1;" d="M 73.535156 169.191406 C 76.476562 169.191406 78.785156 169.898438 80.453125 171.308594 C 82.121094 172.710938 82.960938 174.648438 82.960938 177.109375 C 82.960938 179.574219 82.121094 181.503906 80.453125 182.898438 C 78.785156 184.296875 76.476562 184.992188 73.535156 184.992188 L 67.335938 184.992188 L 67.335938 192.28125 L 64.898438 192.28125 L 64.898438 169.191406 Z M 73.46875 182.847656 C 75.75 182.847656 77.5 182.347656 78.707031 181.351562 C 79.917969 180.347656 80.523438 178.933594 80.523438 177.109375 C 80.523438 175.242188 79.917969 173.808594 78.707031 172.808594 C 77.5 171.808594 75.75 171.308594 73.46875 171.308594 L 67.335938 171.308594 L 67.335938 182.847656 Z M 73.46875 182.847656 "/>
<path style=" stroke:none;fill-rule:nonzero;fill:rgb(10.196078%,10.196078%,10.196078%);fill-opacity:1;" d="M 124.308594 169.191406 L 124.308594 192.28125 L 121.902344 192.28125 L 121.902344 181.632812 L 107.46875 181.632812 L 107.46875 192.28125 L 105.03125 192.28125 L 105.03125 169.191406 L 107.46875 169.191406 L 107.46875 179.484375 L 121.902344 179.484375 L 121.902344 169.191406 Z M 124.308594 169.191406 "/>
<path style=" stroke:none;fill-rule:nonzero;fill:rgb(10.196078%,10.196078%,10.196078%);fill-opacity:1;" d="M 158.382812 192.476562 C 156.09375 192.476562 154.023438 191.96875 152.164062 190.949219 C 150.308594 189.925781 148.863281 188.527344 147.816406 186.746094 C 146.773438 184.960938 146.253906 182.960938 146.253906 180.738281 C 146.253906 178.519531 146.773438 176.519531 147.816406 174.738281 C 148.863281 172.957031 150.308594 171.554688 152.164062 170.53125 C 154.023438 169.507812 156.09375 168.996094 158.382812 168.996094 C 160.664062 168.996094 162.722656 169.503906 164.554688 170.515625 C 166.394531 171.527344 167.835938 172.929688 168.890625 174.71875 C 169.945312 176.511719 170.476562 178.519531 170.476562 180.738281 C 170.476562 182.960938 169.945312 184.96875 168.890625 186.757812 C 167.835938 188.550781 166.394531 189.953125 164.554688 190.960938 C 162.722656 191.972656 160.664062 192.476562 158.382812 192.476562 Z M 158.382812 190.300781 C 160.207031 190.300781 161.851562 189.886719 163.320312 189.0625 C 164.792969 188.242188 165.945312 187.097656 166.785156 185.636719 C 167.621094 184.171875 168.039062 182.539062 168.039062 180.738281 C 168.039062 178.933594 167.621094 177.304688 166.785156 175.839844 C 165.945312 174.375 164.792969 173.234375 163.320312 172.410156 C 161.851562 171.585938 160.207031 171.171875 158.382812 171.171875 C 156.558594 171.171875 154.902344 171.585938 153.417969 172.410156 C 151.9375 173.234375 150.773438 174.375 149.925781 175.839844 C 149.078125 177.304688 148.65625 178.933594 148.65625 180.738281 C 148.65625 182.539062 149.078125 184.171875 149.925781 185.636719 C 150.773438 187.097656 151.9375 188.242188 153.417969 189.0625 C 154.902344 189.886719 156.558594 190.300781 158.382812 190.300781 Z M 158.382812 190.300781 "/>
<path style=" stroke:none;fill-rule:nonzero;fill:rgb(10.196078%,10.196078%,10.196078%);fill-opacity:1;" d="M 196.894531 171.308594 L 188.792969 171.308594 L 188.792969 169.191406 L 207.441406 169.191406 L 207.441406 171.308594 L 199.339844 171.308594 L 199.339844 192.28125 L 196.894531 192.28125 Z M 196.894531 171.308594 "/>
<path style=" stroke:none;fill-rule:nonzero;fill:rgb(10.196078%,10.196078%,10.196078%);fill-opacity:1;" d="M 237.894531 192.476562 C 235.605469 192.476562 233.535156 191.96875 231.675781 190.949219 C 229.820312 189.925781 228.375 188.527344 227.328125 186.746094 C 226.285156 184.960938 225.765625 182.960938 225.765625 180.738281 C 225.765625 178.519531 226.285156 176.519531 227.328125 174.738281 C 228.375 172.957031 229.820312 171.554688 231.675781 170.53125 C 233.535156 169.507812 235.605469 168.996094 237.894531 168.996094 C 240.175781 168.996094 242.234375 169.503906 244.066406 170.515625 C 245.90625 171.527344 247.347656 172.929688 248.402344 174.71875 C 249.460938 176.511719 249.988281 178.519531 249.988281 180.738281 C 249.988281 182.960938 249.460938 184.96875 248.402344 186.757812 C 247.347656 188.550781 245.90625 189.953125 244.066406 190.960938 C 242.234375 191.972656 240.175781 192.476562 237.894531 192.476562 Z M 237.894531 190.300781 C 239.71875 190.300781 241.363281 189.886719 242.832031 189.0625 C 244.304688 188.242188 245.457031 187.097656 246.296875 185.636719 C 247.132812 184.171875 247.550781 182.539062 247.550781 180.738281 C 247.550781 178.933594 247.132812 177.304688 246.296875 175.839844 C 245.457031 174.375 244.304688 173.234375 242.832031 172.410156 C 241.363281 171.585938 239.71875 171.171875 237.894531 171.171875 C 236.070312 171.171875 234.414062 171.585938 232.929688 172.410156 C 231.449219 173.234375 230.285156 174.375 229.4375 175.839844 C 228.589844 177.304688 228.167969 178.933594 228.167969 180.738281 C 228.167969 182.539062 228.589844 184.171875 229.4375 185.636719 C 230.285156 187.097656 231.449219 188.242188 232.929688 189.0625 C 234.414062 189.886719 236.070312 190.300781 237.894531 190.300781 Z M 237.894531 190.300781 "/>
<path style=" stroke:none;fill-rule:nonzero;fill:rgb(10.196078%,10.196078%,10.196078%);fill-opacity:1;" d="M 288.175781 180.738281 L 290.515625 180.738281 L 290.515625 189.542969 C 289.4375 190.488281 288.164062 191.214844 286.691406 191.71875 C 285.21875 192.226562 283.671875 192.476562 282.046875 192.476562 C 279.738281 192.476562 277.660156 191.972656 275.816406 190.960938 C 273.96875 189.953125 272.519531 188.550781 271.460938 186.757812 C 270.410156 184.96875 269.882812 182.960938 269.882812 180.738281 C 269.882812 178.519531 270.410156 176.511719 271.460938 174.71875 C 272.519531 172.929688 273.96875 171.527344 275.816406 170.515625 C 277.660156 169.503906 279.75 168.996094 282.078125 168.996094 C 283.835938 168.996094 285.449219 169.273438 286.921875 169.835938 C 288.394531 170.394531 289.632812 171.226562 290.644531 172.324219 L 289.128906 173.878906 C 287.304688 172.074219 284.988281 171.171875 282.179688 171.171875 C 280.3125 171.171875 278.625 171.585938 277.121094 172.410156 C 275.613281 173.234375 274.429688 174.375 273.574219 175.839844 C 272.71875 177.304688 272.289062 178.933594 272.289062 180.738281 C 272.289062 182.539062 272.71875 184.164062 273.574219 185.617188 C 274.429688 187.070312 275.605469 188.214844 277.101562 189.050781 C 278.59375 189.882812 280.273438 190.300781 282.140625 190.300781 C 284.515625 190.300781 286.527344 189.707031 288.175781 188.523438 Z M 288.175781 180.738281 "/>
<path style=" stroke:none;fill-rule:nonzero;fill:rgb(10.196078%,10.196078%,10.196078%);fill-opacity:1;" d="M 329.625 192.28125 L 324.355469 184.859375 C 323.761719 184.925781 323.144531 184.957031 322.507812 184.957031 L 316.308594 184.957031 L 316.308594 192.28125 L 313.871094 192.28125 L 313.871094 169.191406 L 322.507812 169.191406 C 325.453125 169.191406 327.761719 169.898438 329.425781 171.308594 C 331.097656 172.710938 331.933594 174.648438 331.933594 177.109375 C 331.933594 178.914062 331.476562 180.4375 330.566406 181.683594 C 329.652344 182.921875 328.351562 183.816406 326.660156 184.363281 L 332.296875 192.28125 Z M 322.445312 182.878906 C 324.726562 182.878906 326.472656 182.375 327.683594 181.363281 C 328.894531 180.355469 329.496094 178.933594 329.496094 177.109375 C 329.496094 175.242188 328.894531 173.808594 327.683594 172.808594 C 326.472656 171.808594 324.726562 171.308594 322.445312 171.308594 L 316.308594 171.308594 L 316.308594 182.878906 Z M 322.445312 182.878906 "/>
<path style=" stroke:none;fill-rule:nonzero;fill:rgb(10.196078%,10.196078%,10.196078%);fill-opacity:1;" d="M 368.636719 186.113281 L 355.789062 186.113281 L 353.019531 192.28125 L 350.480469 192.28125 L 361.027344 169.191406 L 363.433594 169.191406 L 373.976562 192.28125 L 371.40625 192.28125 Z M 367.753906 184.132812 L 362.21875 171.734375 L 356.679688 184.132812 Z M 367.753906 184.132812 "/>
<path style=" stroke:none;fill-rule:nonzero;fill:rgb(10.196078%,10.196078%,10.196078%);fill-opacity:1;" d="M 402.910156 169.191406 C 405.855469 169.191406 408.160156 169.898438 409.828125 171.308594 C 411.5 172.710938 412.335938 174.648438 412.335938 177.109375 C 412.335938 179.574219 411.5 181.503906 409.828125 182.898438 C 408.160156 184.296875 405.855469 184.992188 402.910156 184.992188 L 396.710938 184.992188 L 396.710938 192.28125 L 394.273438 192.28125 L 394.273438 169.191406 Z M 402.847656 182.847656 C 405.128906 182.847656 406.875 182.347656 408.085938 181.351562 C 409.292969 180.347656 409.898438 178.933594 409.898438 177.109375 C 409.898438 175.242188 409.292969 173.808594 408.085938 172.808594 C 406.875 171.808594 405.128906 171.308594 402.847656 171.308594 L 396.710938 171.308594 L 396.710938 182.847656 Z M 402.847656 182.847656 "/>
<path style=" stroke:none;fill-rule:nonzero;fill:rgb(10.196078%,10.196078%,10.196078%);fill-opacity:1;" d="M 453.6875 169.191406 L 453.6875 192.28125 L 451.28125 192.28125 L 451.28125 181.632812 L 436.847656 181.632812 L 436.847656 192.28125 L 434.410156 192.28125 L 434.410156 169.191406 L 436.847656 169.191406 L 436.847656 179.484375 L 451.28125 179.484375 L 451.28125 169.191406 Z M 453.6875 169.191406 "/>
<path style=" stroke:none;fill-rule:nonzero;fill:rgb(10.196078%,10.196078%,10.196078%);fill-opacity:1;" d="M 485.582031 184.300781 L 485.582031 192.28125 L 483.175781 192.28125 L 483.175781 184.300781 L 473.949219 169.191406 L 476.550781 169.191406 L 484.460938 182.152344 L 492.375 169.191406 L 494.8125 169.191406 Z M 485.582031 184.300781 "/>
</g>
</svg>
