<svg xmlns="http://www.w3.org/2000/svg" xmlns:xlink="http://www.w3.org/1999/xlink" width="1820" zoomAndPan="magnify" viewBox="0 0 1365 525.000007" height="700" preserveAspectRatio="xMidYMid meet" version="1.0"><defs><g/><clipPath id="7ffdd83d51"><path d="M 847 43.257812 L 1319 43.257812 L 1319 340 L 847 340 Z M 847 43.257812 " clip-rule="nonzero"/></clipPath><clipPath id="421c66b4f0"><path d="M 962 97 L 1210 97 L 1210 344.183594 L 962 344.183594 Z M 962 97 " clip-rule="nonzero"/></clipPath></defs><path fill="#1a1a1a" d="M 1050.417969 260.679688 C 1039.402344 250.839844 1032.46875 236.523438 1032.46875 220.59375 C 1032.46875 219.242188 1032.515625 217.902344 1032.613281 216.574219 C 1032.722656 216.425781 1032.839844 216.285156 1032.945312 216.144531 C 1033.367188 215.605469 1033.789062 215.070312 1034.214844 214.550781 C 1034.386719 214.339844 1034.558594 214.121094 1034.738281 213.914062 C 1035.121094 213.441406 1035.519531 212.972656 1035.914062 212.511719 C 1036.152344 212.238281 1036.378906 211.960938 1036.617188 211.691406 C 1036.960938 211.300781 1037.316406 210.90625 1037.664062 210.519531 C 1038.03125 210.109375 1038.40625 209.703125 1038.777344 209.304688 C 1038.996094 209.070312 1039.21875 208.832031 1039.4375 208.601562 C 1046.269531 201.4375 1053.183594 196.496094 1059.824219 193.148438 C 1054.429688 199.589844 1051.242188 206.1875 1049.421875 211.101562 C 1043.839844 226.148438 1044.183594 242.78125 1050.417969 260.679688 " fill-opacity="1" fill-rule="nonzero"/><path fill="#1a1a1a" d="M 1034.261719 208.84375 C 1034.039062 209.097656 1033.8125 209.351562 1033.585938 209.613281 C 1037.019531 193.070312 1048.066406 179.308594 1062.894531 172.15625 C 1063.125 172.1875 1063.355469 172.214844 1063.574219 172.246094 C 1063.859375 172.285156 1064.136719 172.328125 1064.421875 172.371094 C 1078.152344 174.425781 1088.648438 178.714844 1096.671875 183.976562 C 1093.28125 183.390625 1089.820312 183.09375 1086.300781 183.09375 C 1080.613281 183.09375 1073.988281 183.886719 1066.875 186.25 L 1066.820312 186.269531 C 1066.609375 186.335938 1066.402344 186.410156 1066.195312 186.488281 L 1066.003906 186.546875 C 1054.511719 190.558594 1043.964844 197.9375 1034.527344 208.546875 L 1034.261719 208.84375 " fill-opacity="1" fill-rule="nonzero"/><path fill="#1a1a1a" d="M 1103.121094 271.628906 C 1097.8125 273.394531 1092.132812 274.34375 1086.230469 274.34375 C 1075.019531 274.34375 1064.605469 270.914062 1055.988281 265.035156 C 1055.886719 264.796875 1055.792969 264.566406 1055.703125 264.339844 C 1055.550781 263.96875 1055.402344 263.589844 1055.265625 263.214844 C 1050.277344 250.441406 1048.769531 239.320312 1049.316406 229.816406 C 1052.191406 237.667969 1056.296875 243.6875 1059.628906 247.703125 C 1069.878906 260.074219 1084.476562 268.09375 1103.121094 271.628906 " fill-opacity="1" fill-rule="nonzero"/><path fill="#1a1a1a" d="M 1069.433594 169.519531 C 1074.722656 167.773438 1080.363281 166.835938 1086.230469 166.835938 C 1097.457031 166.835938 1107.878906 170.277344 1116.503906 176.160156 C 1116.578125 176.351562 1116.65625 176.535156 1116.726562 176.71875 C 1116.894531 177.109375 1117.035156 177.488281 1117.183594 177.875 C 1117.878906 179.640625 1118.503906 181.375 1119.0625 183.074219 L 1119.117188 183.222656 C 1122.578125 193.800781 1123.613281 203.15625 1123.144531 211.3125 C 1120.265625 203.464844 1116.164062 197.445312 1112.839844 193.425781 C 1102.597656 181.074219 1088.03125 173.0625 1069.433594 169.519531 " fill-opacity="1" fill-rule="nonzero"/><path fill="#1a1a1a" d="M 1138.15625 232.335938 C 1138.40625 232.0625 1138.644531 231.785156 1138.886719 231.507812 C 1135.472656 248.046875 1124.449219 261.824219 1109.640625 268.992188 C 1109.410156 268.957031 1109.183594 268.925781 1108.957031 268.898438 C 1108.550781 268.839844 1108.144531 268.773438 1107.742188 268.714844 C 1105.863281 268.429688 1104.046875 268.105469 1102.285156 267.742188 L 1102.144531 267.707031 C 1091.246094 265.421875 1082.617188 261.632812 1075.78125 257.15625 C 1079.171875 257.742188 1082.640625 258.039062 1086.160156 258.039062 C 1091.855469 258.039062 1098.492188 257.238281 1105.609375 254.867188 L 1105.699219 254.84375 C 1105.90625 254.773438 1106.121094 254.695312 1106.339844 254.625 L 1106.402344 254.601562 C 1117.9375 250.589844 1128.527344 243.191406 1137.992188 232.519531 L 1138.15625 232.335938 " fill-opacity="1" fill-rule="nonzero"/><path fill="#1a1a1a" d="M 1139.996094 220.59375 C 1139.996094 221.917969 1139.949219 223.242188 1139.851562 224.550781 C 1139.726562 224.714844 1139.605469 224.871094 1139.480469 225.03125 C 1139.082031 225.539062 1138.679688 226.042969 1138.269531 226.539062 C 1138.074219 226.796875 1137.875 227.042969 1137.664062 227.289062 C 1137.308594 227.730469 1136.941406 228.164062 1136.570312 228.589844 C 1136.296875 228.917969 1136.019531 229.238281 1135.738281 229.558594 C 1135.4375 229.898438 1135.128906 230.242188 1134.832031 230.582031 C 1134.375 231.089844 1133.921875 231.582031 1133.457031 232.070312 C 1133.328125 232.21875 1133.191406 232.359375 1133.054688 232.5 C 1126.210938 239.675781 1119.292969 244.628906 1112.636719 247.984375 C 1118.039062 241.542969 1121.21875 234.941406 1123.039062 230.03125 C 1128.617188 215 1128.277344 198.390625 1122.066406 180.523438 C 1133.074219 190.359375 1139.996094 204.667969 1139.996094 220.59375 " fill-opacity="1" fill-rule="nonzero"/><g clip-path="url(#7ffdd83d51)"><path fill="#1a1a1a" d="M 1313.816406 339.339844 C 1313.816406 339.339844 1313.695312 335.539062 1313.488281 328.429688 C 1313.292969 321.316406 1312.914062 310.886719 1312.613281 297.609375 C 1312.304688 284.332031 1311.929688 268.210938 1311.503906 249.71875 C 1311.113281 231.226562 1310.675781 210.359375 1310.34375 187.601562 C 1309.96875 164.84375 1309.558594 140.1875 1309.300781 114.105469 L 1309.269531 111.65625 L 1309.257812 110.429688 L 1309.199219 109.4375 L 1309.121094 108.203125 C 1309.089844 107.789062 1309.015625 107.59375 1308.960938 107.273438 L 1308.820312 106.40625 C 1308.765625 106.113281 1308.648438 105.773438 1308.570312 105.460938 C 1307.882812 102.890625 1306.648438 100.453125 1304.96875 98.355469 C 1301.628906 94.113281 1296.410156 91.429688 1290.980469 91.203125 L 1289.957031 91.164062 L 1288.621094 91.144531 L 1286.027344 91.117188 C 1284.296875 91.085938 1282.570312 91.0625 1280.828125 91.039062 C 1277.363281 90.960938 1273.878906 90.878906 1270.375 90.800781 C 1263.371094 90.613281 1256.292969 90.394531 1249.160156 90.109375 C 1234.886719 89.535156 1220.386719 88.824219 1205.640625 87.578125 C 1198.261719 86.910156 1190.847656 86.191406 1183.261719 84.976562 C 1179.417969 84.238281 1175.640625 83.703125 1171.410156 82.046875 C 1167.5625 80.605469 1163.996094 78.875 1160.46875 76.914062 C 1156.957031 74.929688 1153.535156 72.691406 1150.207031 69.714844 C 1148.570312 68.179688 1146.84375 66.367188 1145.441406 63.902344 L 1142.808594 59.019531 C 1142.003906 57.574219 1141.199219 56.492188 1140.585938 55.910156 C 1139.933594 55.40625 1139.769531 55.289062 1139.050781 55.230469 L 1138.773438 55.210938 C 1138.691406 55.195312 1138.347656 55.207031 1138.144531 55.207031 L 1136.730469 55.207031 L 1133.902344 55.21875 L 1128.230469 55.230469 C 1113.113281 55.257812 1097.941406 55.300781 1082.765625 55.328125 C 1067.585938 55.300781 1052.410156 55.265625 1037.289062 55.234375 L 1028.792969 55.21875 L 1027.375 55.210938 L 1027.019531 55.210938 C 1026.574219 55.21875 1027.226562 55.195312 1027.03125 55.207031 L 1026.328125 55.246094 C 1025.859375 55.292969 1025.550781 55.414062 1024.941406 55.917969 C 1024.328125 56.496094 1023.523438 57.582031 1022.71875 59.027344 L 1020.0625 63.933594 C 1019.019531 65.886719 1016.863281 68.339844 1015.320312 69.714844 C 1011.984375 72.695312 1008.570312 74.933594 1005.058594 76.914062 C 1001.523438 78.882812 997.957031 80.609375 994.117188 82.050781 C 992.226562 82.769531 990.148438 83.4375 987.914062 83.886719 C 986.074219 84.25 984.308594 84.632812 982.429688 84.960938 L 976.628906 85.820312 C 974.695312 86.097656 972.878906 86.261719 971 86.496094 C 967.265625 86.957031 963.574219 87.234375 959.878906 87.597656 C 945.140625 88.835938 930.632812 89.546875 916.363281 90.121094 C 909.226562 90.40625 902.15625 90.625 895.152344 90.8125 C 891.652344 90.898438 888.160156 90.980469 884.6875 91.0625 C 882.957031 91.085938 881.226562 91.109375 879.496094 91.132812 L 876.90625 91.164062 L 875.761719 91.179688 L 874.480469 91.230469 C 873.503906 91.230469 873.042969 91.371094 872.441406 91.441406 C 871.890625 91.472656 871.1875 91.707031 870.539062 91.84375 C 869.230469 92.183594 867.980469 92.699219 866.765625 93.285156 C 864.359375 94.5 862.25 96.277344 860.566406 98.367188 C 858.882812 100.460938 857.65625 102.894531 856.96875 105.460938 C 856.769531 106.101562 856.65625 106.75 856.554688 107.410156 C 856.414062 108.0625 856.382812 108.730469 856.339844 109.394531 C 856.324219 109.742188 856.289062 110.023438 856.28125 110.429688 L 856.265625 111.65625 L 856.234375 114.105469 C 856.074219 127.144531 855.921875 139.832031 855.765625 152.101562 C 855.570312 164.371094 855.375 176.222656 855.191406 187.601562 C 854.859375 210.359375 854.421875 231.226562 854.03125 249.71875 C 853.597656 268.210938 853.222656 284.332031 852.914062 297.609375 C 852.613281 310.886719 852.234375 321.316406 852.039062 328.429688 C 851.824219 335.539062 851.707031 339.339844 851.707031 339.339844 C 851.707031 339.339844 851.59375 335.539062 851.382812 328.429688 C 851.183594 321.316406 850.804688 310.886719 850.503906 297.609375 C 850.191406 284.332031 849.816406 268.210938 849.390625 249.71875 C 848.992188 231.226562 848.554688 210.359375 848.222656 187.601562 C 848.039062 176.222656 847.847656 164.371094 847.648438 152.101562 C 847.5 139.832031 847.339844 127.144531 847.179688 114.105469 L 847.148438 111.65625 L 847.132812 110.429688 C 847.125 110.023438 847.160156 109.476562 847.179688 109.007812 C 847.207031 108.039062 847.246094 107.058594 847.417969 106.089844 C 847.539062 105.117188 847.695312 104.144531 847.960938 103.191406 C 848.886719 99.359375 850.628906 95.691406 853.058594 92.507812 C 857.894531 86.097656 865.574219 81.796875 873.972656 81.246094 C 880.847656 80.980469 887.792969 80.707031 894.804688 80.433594 C 901.761719 80.144531 908.789062 79.828125 915.871094 79.449219 C 930.023438 78.679688 944.414062 77.765625 958.835938 76.34375 C 962.421875 75.941406 966.0625 75.621094 969.625 75.125 C 971.402344 74.882812 973.25 74.679688 974.976562 74.40625 L 980.132812 73.578125 C 981.898438 73.265625 983.753906 72.855469 985.554688 72.496094 C 986.953125 72.203125 988.433594 71.742188 990.011719 71.132812 C 993.132812 69.953125 996.292969 68.40625 999.273438 66.722656 C 1002.253906 65.039062 1005.097656 63.089844 1007.351562 61.058594 C 1008.53125 59.867188 1008.9375 59.535156 1009.75 58.210938 C 1010.574219 56.722656 1011.398438 55.039062 1012.429688 53.195312 C 1013.472656 51.367188 1014.753906 49.269531 1016.867188 47.238281 C 1019.019531 45.199219 1022.285156 43.550781 1025.597656 43.390625 L 1026.308594 43.351562 L 1027.019531 43.324219 L 1028.792969 43.324219 L 1031.625 43.320312 L 1037.289062 43.300781 C 1052.410156 43.273438 1067.585938 43.238281 1082.765625 43.207031 C 1097.941406 43.242188 1113.113281 43.277344 1128.230469 43.3125 L 1133.902344 43.324219 L 1138.144531 43.335938 C 1138.414062 43.335938 1138.542969 43.324219 1138.929688 43.34375 L 1140.066406 43.410156 C 1141.582031 43.523438 1143.222656 43.925781 1144.722656 44.613281 C 1146.257812 45.273438 1147.539062 46.253906 1148.648438 47.242188 C 1150.761719 49.269531 1152.050781 51.371094 1153.082031 53.195312 C 1153.597656 54.113281 1154.070312 55.011719 1154.503906 55.839844 L 1155.78125 58.238281 C 1156.238281 59.050781 1157.082031 60.035156 1158.171875 61.058594 C 1160.417969 63.097656 1163.261719 65.046875 1166.25 66.730469 C 1169.230469 68.410156 1172.386719 69.957031 1175.503906 71.136719 C 1178.195312 72.292969 1181.824219 72.867188 1185.226562 73.566406 C 1192.246094 74.792969 1199.488281 75.609375 1206.679688 76.355469 C 1221.109375 77.777344 1235.5 78.691406 1249.648438 79.460938 C 1256.730469 79.839844 1263.753906 80.160156 1270.71875 80.445312 C 1277.753906 80.722656 1284.714844 80.996094 1291.609375 81.269531 C 1295.726562 81.558594 1299.757812 82.746094 1303.332031 84.695312 C 1306.921875 86.617188 1310.023438 89.34375 1312.445312 92.519531 C 1314.882812 95.695312 1316.617188 99.363281 1317.542969 103.195312 C 1317.65625 103.683594 1317.792969 104.140625 1317.875 104.648438 L 1318.105469 106.222656 C 1318.164062 106.726562 1318.265625 107.332031 1318.277344 107.742188 L 1318.324219 108.972656 L 1318.355469 109.589844 L 1318.367188 109.890625 L 1318.367188 110.429688 L 1318.355469 111.65625 L 1318.324219 114.105469 C 1318.0625 140.1875 1317.660156 164.84375 1317.28125 187.601562 C 1316.957031 210.359375 1316.511719 231.226562 1316.121094 249.71875 C 1315.695312 268.210938 1315.320312 284.332031 1315.019531 297.609375 C 1314.710938 310.886719 1314.335938 321.316406 1314.140625 328.429688 C 1313.925781 335.539062 1313.816406 339.339844 1313.816406 339.339844 " fill-opacity="1" fill-rule="nonzero"/></g><path fill="#1a1a1a" d="M 1086.238281 99.363281 C 1019.371094 99.363281 964.976562 153.746094 964.976562 220.59375 C 964.976562 287.429688 1019.371094 341.808594 1086.238281 341.808594 C 1153.09375 341.808594 1207.484375 287.429688 1207.484375 220.59375 C 1207.484375 153.746094 1153.09375 99.363281 1086.238281 99.363281 Z M 1086.238281 333.125 C 1024.171875 333.125 973.671875 282.636719 973.671875 220.59375 C 973.671875 158.542969 1024.171875 108.054688 1086.238281 108.054688 C 1148.296875 108.054688 1198.789062 158.542969 1198.789062 220.59375 C 1198.789062 282.636719 1148.296875 333.125 1086.238281 333.125 " fill-opacity="1" fill-rule="nonzero"/><g clip-path="url(#421c66b4f0)"><path fill="#1a1a1a" d="M 1078.484375 97.332031 C 1077.230469 97.410156 1076.273438 98.488281 1076.351562 99.742188 C 1076.429688 100.992188 1077.511719 101.945312 1078.761719 101.871094 C 1080.019531 101.792969 1080.972656 100.714844 1080.898438 99.457031 C 1080.8125 98.203125 1079.734375 97.253906 1078.484375 97.332031 Z M 1070.761719 98.054688 C 1069.511719 98.207031 1068.628906 99.347656 1068.789062 100.597656 C 1068.945312 101.839844 1070.082031 102.722656 1071.324219 102.570312 C 1072.578125 102.410156 1073.460938 101.269531 1073.304688 100.027344 C 1073.144531 98.78125 1072.007812 97.894531 1070.761719 98.054688 Z M 1063.101562 99.261719 C 1061.867188 99.492188 1061.054688 100.683594 1061.285156 101.921875 C 1061.523438 103.15625 1062.714844 103.96875 1063.949219 103.730469 C 1065.1875 103.492188 1066 102.308594 1065.761719 101.070312 C 1065.523438 99.835938 1064.332031 99.027344 1063.101562 99.261719 Z M 1055.527344 100.953125 C 1054.3125 101.257812 1053.578125 102.503906 1053.890625 103.71875 C 1054.203125 104.9375 1055.441406 105.667969 1056.660156 105.359375 C 1057.878906 105.046875 1058.613281 103.808594 1058.300781 102.585938 C 1057.984375 101.371094 1056.746094 100.636719 1055.527344 100.953125 Z M 1048.078125 103.113281 C 1046.886719 103.503906 1046.226562 104.789062 1046.617188 105.980469 C 1047.011719 107.179688 1048.296875 107.832031 1049.488281 107.445312 C 1050.683594 107.054688 1051.335938 105.769531 1050.949219 104.578125 C 1050.558594 103.378906 1049.273438 102.730469 1048.078125 103.113281 Z M 1040.769531 105.75 C 1039.601562 106.21875 1039.035156 107.539062 1039.496094 108.707031 C 1039.957031 109.875 1041.285156 110.441406 1042.453125 109.980469 C 1043.621094 109.519531 1044.1875 108.199219 1043.726562 107.023438 C 1043.257812 105.855469 1041.9375 105.289062 1040.769531 105.75 Z M 1033.644531 108.84375 C 1032.507812 109.382812 1032.023438 110.738281 1032.5625 111.875 C 1033.09375 113.007812 1034.453125 113.496094 1035.589844 112.960938 C 1036.726562 112.421875 1037.214844 111.066406 1036.675781 109.933594 C 1036.140625 108.796875 1034.785156 108.308594 1033.644531 108.84375 Z M 1026.734375 112.378906 C 1025.632812 112.992188 1025.230469 114.371094 1025.839844 115.472656 C 1026.445312 116.570312 1027.832031 116.972656 1028.933594 116.367188 L 1028.933594 116.363281 C 1030.03125 115.757812 1030.433594 114.378906 1029.824219 113.273438 C 1029.21875 112.171875 1027.832031 111.777344 1026.734375 112.378906 Z M 1020.058594 116.34375 C 1018.996094 117.019531 1018.683594 118.425781 1019.363281 119.484375 C 1020.039062 120.546875 1021.445312 120.851562 1022.503906 120.175781 C 1023.558594 119.507812 1023.875 118.097656 1023.199219 117.039062 C 1022.523438 115.976562 1021.117188 115.667969 1020.058594 116.34375 Z M 1013.644531 120.710938 C 1012.632812 121.453125 1012.40625 122.875 1013.148438 123.890625 C 1013.886719 124.90625 1015.308594 125.128906 1016.324219 124.390625 C 1017.34375 123.648438 1017.566406 122.226562 1016.828125 121.214844 C 1016.085938 120.195312 1014.664062 119.96875 1013.644531 120.710938 Z M 1007.523438 125.472656 C 1006.550781 126.273438 1006.414062 127.714844 1007.21875 128.679688 C 1008.019531 129.644531 1009.453125 129.78125 1010.425781 128.976562 C 1011.394531 128.175781 1011.523438 126.742188 1010.722656 125.777344 C 1009.921875 124.804688 1008.488281 124.675781 1007.523438 125.472656 Z M 1001.703125 130.605469 C 1000.789062 131.464844 1000.742188 132.902344 1001.601562 133.824219 C 1002.46875 134.742188 1003.90625 134.78125 1004.820312 133.921875 C 1005.738281 133.0625 1005.78125 131.625 1004.921875 130.707031 C 1004.0625 129.792969 1002.621094 129.746094 1001.703125 130.605469 Z M 996.222656 136.09375 C 995.363281 137.003906 995.402344 138.445312 996.320312 139.304688 C 997.234375 140.167969 998.675781 140.121094 999.539062 139.207031 C 1000.398438 138.289062 1000.351562 136.851562 999.4375 135.992188 C 998.519531 135.125 997.082031 135.171875 996.222656 136.09375 Z M 991.089844 141.902344 C 990.289062 142.871094 990.417969 144.304688 991.390625 145.109375 C 992.355469 145.910156 993.792969 145.773438 994.589844 144.808594 C 995.398438 143.835938 995.261719 142.402344 994.296875 141.601562 C 993.324219 140.800781 991.890625 140.933594 991.089844 141.902344 Z M 986.332031 148.023438 C 985.589844 149.039062 985.816406 150.460938 986.828125 151.199219 C 987.847656 151.941406 989.269531 151.714844 990.011719 150.703125 C 990.75 149.683594 990.527344 148.261719 989.511719 147.519531 C 988.492188 146.78125 987.070312 147.003906 986.332031 148.023438 Z M 981.960938 154.421875 C 981.285156 155.484375 981.601562 156.886719 982.660156 157.5625 C 983.722656 158.246094 985.128906 157.929688 985.800781 156.871094 C 986.476562 155.808594 986.164062 154.40625 985.101562 153.730469 C 984.046875 153.054688 982.636719 153.367188 981.960938 154.421875 Z M 978.007812 161.089844 C 977.398438 162.183594 977.796875 163.570312 978.898438 164.183594 C 980 164.785156 981.382812 164.390625 981.992188 163.285156 C 982.597656 162.183594 982.199219 160.804688 981.097656 160.195312 C 980 159.589844 978.613281 159.988281 978.007812 161.089844 Z M 974.476562 167.984375 C 973.9375 169.117188 974.425781 170.472656 975.5625 171.011719 C 976.699219 171.550781 978.058594 171.066406 978.589844 169.929688 C 979.128906 168.792969 978.644531 167.433594 977.503906 166.902344 C 976.375 166.363281 975.015625 166.847656 974.476562 167.984375 Z M 971.390625 175.082031 C 970.925781 176.257812 971.496094 177.578125 972.664062 178.039062 C 973.832031 178.503906 975.152344 177.933594 975.621094 176.765625 C 976.082031 175.597656 975.515625 174.277344 974.347656 173.808594 C 973.171875 173.347656 971.851562 173.917969 971.390625 175.082031 Z M 968.753906 182.382812 C 968.363281 183.574219 969.011719 184.859375 970.210938 185.25 C 971.40625 185.636719 972.6875 184.984375 973.078125 183.792969 C 973.46875 182.597656 972.816406 181.308594 971.621094 180.925781 C 970.429688 180.535156 969.144531 181.1875 968.753906 182.382812 Z M 966.582031 189.824219 C 966.269531 191.046875 967.003906 192.285156 968.21875 192.597656 C 969.433594 192.90625 970.679688 192.175781 970.992188 190.957031 C 971.300781 189.742188 970.570312 188.503906 969.351562 188.1875 C 968.136719 187.875 966.898438 188.609375 966.582031 189.824219 Z M 964.886719 197.390625 C 964.652344 198.628906 965.464844 199.820312 966.695312 200.050781 C 967.929688 200.289062 969.121094 199.480469 969.355469 198.242188 C 969.59375 197.011719 968.78125 195.820312 967.550781 195.582031 C 966.316406 195.347656 965.125 196.160156 964.886719 197.390625 Z M 963.671875 205.050781 C 963.519531 206.296875 964.402344 207.4375 965.648438 207.59375 C 966.898438 207.753906 968.035156 206.871094 968.191406 205.621094 C 968.347656 204.375 967.464844 203.238281 966.214844 203.078125 C 964.972656 202.925781 963.832031 203.808594 963.671875 205.050781 Z M 962.949219 212.773438 C 962.867188 214.023438 963.820312 215.105469 965.078125 215.183594 C 966.328125 215.261719 967.414062 214.3125 967.488281 213.054688 C 967.566406 211.800781 966.613281 210.722656 965.363281 210.644531 C 964.105469 210.5625 963.027344 211.515625 962.949219 212.773438 Z M 962.703125 220.519531 C 962.703125 221.777344 963.722656 222.796875 964.976562 222.796875 C 966.234375 222.796875 967.253906 221.777344 967.253906 220.519531 C 967.253906 219.265625 966.238281 218.246094 964.976562 218.246094 C 963.722656 218.246094 962.703125 219.265625 962.703125 220.519531 Z M 962.9375 228.269531 C 963.015625 229.519531 964.09375 230.476562 965.351562 230.398438 C 966.601562 230.320312 967.554688 229.242188 967.476562 227.988281 L 967.484375 227.988281 C 967.402344 226.738281 966.324219 225.777344 965.070312 225.859375 C 963.816406 225.9375 962.863281 227.015625 962.9375 228.269531 Z M 963.65625 235.992188 C 963.816406 237.234375 964.953125 238.117188 966.199219 237.964844 C 967.449219 237.808594 968.332031 236.671875 968.175781 235.421875 L 968.171875 235.421875 C 968.019531 234.179688 966.878906 233.296875 965.636719 233.449219 C 964.386719 233.601562 963.5 234.742188 963.660156 235.992188 Z M 964.863281 243.652344 C 965.097656 244.882812 966.289062 245.695312 967.519531 245.460938 C 968.757812 245.226562 969.570312 244.039062 969.332031 242.804688 C 969.101562 241.566406 967.910156 240.753906 966.671875 240.992188 C 965.441406 241.222656 964.628906 242.414062 964.863281 243.644531 Z M 966.546875 251.21875 C 966.863281 252.4375 968.101562 253.171875 969.316406 252.859375 C 970.535156 252.546875 971.269531 251.308594 970.957031 250.09375 C 970.644531 248.871094 969.40625 248.136719 968.191406 248.449219 C 966.96875 248.757812 966.234375 250.003906 966.546875 251.21875 Z M 968.710938 258.664062 C 969.097656 259.863281 970.382812 260.515625 971.578125 260.128906 C 972.769531 259.738281 973.429688 258.457031 973.039062 257.261719 C 972.652344 256.066406 971.367188 255.414062 970.167969 255.796875 C 968.976562 256.1875 968.320312 257.476562 968.710938 258.664062 Z M 971.34375 265.976562 C 971.804688 267.144531 973.132812 267.714844 974.300781 267.25 C 975.46875 266.789062 976.035156 265.46875 975.574219 264.300781 C 975.113281 263.132812 973.789062 262.558594 972.621094 263.027344 C 971.449219 263.488281 970.878906 264.808594 971.34375 265.976562 Z M 974.4375 273.097656 C 974.96875 274.234375 976.328125 274.722656 977.464844 274.1875 C 978.601562 273.648438 979.089844 272.292969 978.546875 271.160156 C 978.015625 270.023438 976.660156 269.539062 975.519531 270.070312 C 974.382812 270.609375 973.898438 271.96875 974.4375 273.097656 Z M 977.96875 280.011719 C 978.574219 281.113281 979.960938 281.511719 981.054688 280.90625 C 982.15625 280.304688 982.5625 278.917969 981.949219 277.820312 C 981.347656 276.71875 979.960938 276.316406 978.863281 276.925781 C 977.761719 277.53125 977.359375 278.910156 977.96875 280.011719 Z M 981.925781 286.691406 C 982.597656 287.75 984.007812 288.066406 985.066406 287.390625 C 986.128906 286.714844 986.4375 285.308594 985.765625 284.25 C 985.089844 283.1875 983.6875 282.875 982.625 283.550781 C 981.566406 284.226562 981.25 285.628906 981.925781 286.691406 Z M 986.292969 293.101562 C 987.035156 294.121094 988.457031 294.34375 989.472656 293.605469 C 990.492188 292.863281 990.714844 291.441406 989.976562 290.421875 C 989.234375 289.410156 987.8125 289.183594 986.792969 289.925781 C 985.777344 290.664062 985.554688 292.085938 986.292969 293.105469 Z M 991.054688 299.226562 C 991.851562 300.199219 993.289062 300.328125 994.257812 299.53125 C 995.226562 298.730469 995.355469 297.296875 994.554688 296.332031 C 993.753906 295.359375 992.320312 295.222656 991.355469 296.027344 C 990.382812 296.828125 990.253906 298.261719 991.054688 299.226562 Z M 996.1875 305.046875 C 997.046875 305.964844 998.484375 306.011719 999.398438 305.144531 C 1000.316406 304.289062 1000.363281 302.847656 999.503906 301.929688 C 998.640625 301.015625 997.199219 300.96875 996.285156 301.835938 C 995.367188 302.695312 995.328125 304.132812 996.1875 305.046875 Z M 1001.667969 310.53125 C 1002.582031 311.390625 1004.019531 311.351562 1004.878906 310.429688 C 1005.746094 309.519531 1005.699219 308.078125 1004.785156 307.21875 C 1003.867188 306.355469 1002.425781 306.402344 1001.566406 307.316406 C 1000.707031 308.234375 1000.75 309.671875 1001.660156 310.53125 Z M 1007.476562 315.664062 C 1008.441406 316.46875 1009.875 316.332031 1010.679688 315.367188 C 1011.480469 314.402344 1011.351562 312.96875 1010.386719 312.160156 C 1009.414062 311.363281 1007.980469 311.496094 1007.179688 312.464844 C 1006.375 313.429688 1006.507812 314.863281 1007.476562 315.664062 Z M 1013.597656 320.425781 C 1014.609375 321.167969 1016.03125 320.941406 1016.773438 319.929688 C 1017.515625 318.910156 1017.289062 317.488281 1016.277344 316.746094 C 1015.261719 316.007812 1013.839844 316.230469 1013.097656 317.246094 C 1012.359375 318.265625 1012.578125 319.6875 1013.597656 320.425781 Z M 1019.996094 324.792969 C 1021.058594 325.46875 1022.464844 325.160156 1023.140625 324.101562 C 1023.8125 323.039062 1023.507812 321.636719 1022.445312 320.953125 L 1022.445312 320.960938 C 1021.382812 320.285156 1019.980469 320.59375 1019.304688 321.652344 C 1018.628906 322.714844 1018.9375 324.117188 1019.996094 324.792969 Z M 1026.660156 328.75 C 1027.761719 329.359375 1029.140625 328.964844 1029.753906 327.863281 C 1030.363281 326.761719 1029.960938 325.378906 1028.863281 324.769531 C 1027.761719 324.164062 1026.375 324.5625 1025.769531 325.660156 C 1025.160156 326.761719 1025.558594 328.148438 1026.660156 328.75 Z M 1033.558594 332.289062 C 1034.6875 332.820312 1036.046875 332.335938 1036.585938 331.203125 C 1037.125 330.066406 1036.640625 328.710938 1035.5 328.171875 L 1035.5 328.175781 C 1034.363281 327.636719 1033.011719 328.121094 1032.472656 329.253906 C 1031.933594 330.390625 1032.417969 331.75 1033.558594 332.289062 Z M 1040.65625 335.375 C 1041.824219 335.84375 1043.144531 335.273438 1043.613281 334.101562 C 1044.078125 332.941406 1043.507812 331.613281 1042.339844 331.152344 C 1041.171875 330.683594 1039.851562 331.25 1039.390625 332.417969 C 1038.921875 333.585938 1039.488281 334.914062 1040.65625 335.375 Z M 1047.953125 338.015625 C 1049.144531 338.410156 1050.429688 337.757812 1050.820312 336.558594 C 1051.210938 335.363281 1050.558594 334.082031 1049.367188 333.691406 C 1048.171875 333.300781 1046.886719 333.953125 1046.496094 335.148438 C 1046.101562 336.339844 1046.753906 337.625 1047.953125 338.015625 Z M 1055.394531 340.191406 C 1056.617188 340.507812 1057.855469 339.769531 1058.167969 338.558594 C 1058.484375 337.34375 1057.75 336.097656 1056.535156 335.785156 C 1055.320312 335.46875 1054.074219 336.203125 1053.761719 337.417969 C 1053.445312 338.632812 1054.179688 339.878906 1055.394531 340.191406 Z M 1062.96875 341.886719 C 1064.203125 342.125 1065.394531 341.316406 1065.628906 340.078125 C 1065.867188 338.847656 1065.054688 337.65625 1063.824219 337.417969 C 1062.589844 337.183594 1061.394531 337.992188 1061.15625 339.226562 C 1060.925781 340.457031 1061.730469 341.648438 1062.96875 341.886719 Z M 1070.625 343.105469 C 1071.878906 343.261719 1073.015625 342.378906 1073.167969 341.132812 C 1073.328125 339.882812 1072.445312 338.746094 1071.203125 338.59375 C 1069.949219 338.433594 1068.8125 339.316406 1068.652344 340.558594 C 1068.5 341.808594 1069.382812 342.945312 1070.625 343.105469 Z M 1078.347656 343.835938 C 1079.605469 343.917969 1080.683594 342.964844 1080.761719 341.707031 C 1080.84375 340.453125 1079.890625 339.375 1078.632812 339.296875 C 1077.382812 339.214844 1076.296875 340.167969 1076.222656 341.425781 C 1076.136719 342.675781 1077.09375 343.757812 1078.347656 343.835938 Z M 1086.101562 344.085938 C 1087.355469 344.085938 1088.375 343.070312 1088.375 341.808594 C 1088.382812 340.558594 1087.363281 339.535156 1086.105469 339.535156 C 1084.851562 339.535156 1083.832031 340.546875 1083.824219 341.808594 C 1083.824219 343.066406 1084.84375 344.085938 1086.101562 344.085938 Z M 1093.851562 343.851562 C 1095.101562 343.777344 1096.058594 342.699219 1095.980469 341.441406 C 1095.910156 340.1875 1094.824219 339.230469 1093.574219 339.308594 C 1092.316406 339.386719 1091.363281 340.464844 1091.441406 341.71875 C 1091.515625 342.976562 1092.59375 343.929688 1093.851562 343.851562 Z M 1101.574219 343.136719 C 1102.820312 342.984375 1103.703125 341.84375 1103.546875 340.601562 C 1103.394531 339.351562 1102.253906 338.46875 1101.011719 338.621094 C 1099.761719 338.777344 1098.878906 339.914062 1099.03125 341.15625 C 1099.1875 342.40625 1100.324219 343.289062 1101.574219 343.136719 Z M 1109.238281 341.941406 C 1110.46875 341.703125 1111.28125 340.511719 1111.050781 339.28125 C 1110.8125 338.046875 1109.621094 337.234375 1108.390625 337.464844 C 1107.15625 337.699219 1106.34375 338.886719 1106.574219 340.125 C 1106.808594 341.359375 1108 342.171875 1109.238281 341.941406 Z M 1116.8125 340.257812 C 1118.027344 339.941406 1118.761719 338.703125 1118.445312 337.488281 C 1118.136719 336.269531 1116.898438 335.535156 1115.679688 335.847656 C 1114.464844 336.15625 1113.730469 337.402344 1114.039062 338.617188 C 1114.351562 339.832031 1115.589844 340.570312 1116.8125 340.257812 Z M 1124.261719 338.101562 C 1125.453125 337.714844 1126.109375 336.429688 1125.722656 335.234375 C 1125.332031 334.035156 1124.054688 333.382812 1122.855469 333.769531 C 1121.660156 334.160156 1121.007812 335.441406 1121.390625 336.636719 C 1121.78125 337.832031 1123.0625 338.484375 1124.261719 338.101562 Z M 1131.574219 335.46875 C 1132.742188 335.007812 1133.308594 333.6875 1132.847656 332.519531 C 1132.386719 331.347656 1131.0625 330.777344 1129.894531 331.238281 C 1128.730469 331.703125 1128.152344 333.023438 1128.617188 334.191406 C 1129.078125 335.355469 1130.398438 335.933594 1131.566406 335.46875 Z M 1138.703125 332.382812 C 1139.835938 331.851562 1140.320312 330.492188 1139.789062 329.355469 C 1139.253906 328.21875 1137.898438 327.730469 1136.757812 328.269531 C 1135.621094 328.804688 1135.136719 330.160156 1135.667969 331.296875 C 1136.207031 332.4375 1137.566406 332.921875 1138.703125 332.382812 Z M 1145.617188 328.859375 C 1146.714844 328.253906 1147.117188 326.867188 1146.515625 325.765625 C 1145.902344 324.664062 1144.523438 324.265625 1143.421875 324.871094 C 1142.316406 325.472656 1141.921875 326.859375 1142.523438 327.964844 C 1143.128906 329.066406 1144.515625 329.460938 1145.613281 328.859375 Z M 1152.296875 324.90625 C 1153.359375 324.230469 1153.671875 322.820312 1152.996094 321.757812 C 1152.320312 320.699219 1150.917969 320.386719 1149.855469 321.058594 C 1148.796875 321.734375 1148.480469 323.140625 1149.15625 324.199219 C 1149.828125 325.261719 1151.230469 325.574219 1152.296875 324.90625 Z M 1158.710938 320.539062 C 1159.730469 319.796875 1159.953125 318.375 1159.214844 317.363281 C 1158.480469 316.34375 1157.050781 316.121094 1156.039062 316.859375 C 1155.019531 317.59375 1154.792969 319.023438 1155.535156 320.035156 C 1156.273438 321.054688 1157.695312 321.28125 1158.710938 320.539062 Z M 1164.84375 315.789062 C 1165.808594 314.980469 1165.945312 313.546875 1165.144531 312.582031 C 1164.347656 311.609375 1162.910156 311.472656 1161.941406 312.28125 L 1161.945312 312.28125 C 1160.972656 313.078125 1160.835938 314.511719 1161.636719 315.480469 C 1162.4375 316.449219 1163.871094 316.585938 1164.84375 315.789062 Z M 1170.664062 310.65625 C 1171.582031 309.796875 1171.628906 308.359375 1170.769531 307.445312 C 1169.910156 306.527344 1168.472656 306.480469 1167.550781 307.339844 C 1166.632812 308.199219 1166.585938 309.636719 1167.453125 310.554688 C 1168.304688 311.472656 1169.75 311.515625 1170.664062 310.65625 Z M 1176.15625 305.183594 C 1177.015625 304.261719 1176.976562 302.824219 1176.058594 301.964844 C 1175.144531 301.105469 1173.703125 301.148438 1172.839844 302.058594 C 1171.980469 302.976562 1172.019531 304.417969 1172.9375 305.277344 C 1173.851562 306.140625 1175.292969 306.09375 1176.15625 305.183594 Z M 1181.296875 299.375 C 1182.09375 298.410156 1181.960938 296.96875 1180.992188 296.171875 C 1180.027344 295.363281 1178.59375 295.5 1177.789062 296.464844 L 1177.792969 296.464844 C 1176.988281 297.433594 1177.125 298.867188 1178.089844 299.671875 C 1179.054688 300.472656 1180.488281 300.339844 1181.289062 299.375 Z M 1186.058594 293.261719 C 1186.800781 292.242188 1186.574219 290.820312 1185.5625 290.078125 C 1184.542969 289.339844 1183.121094 289.5625 1182.378906 290.578125 C 1181.640625 291.589844 1181.863281 293.011719 1182.878906 293.753906 C 1183.890625 294.492188 1185.3125 294.273438 1186.058594 293.261719 Z M 1190.429688 286.863281 C 1191.105469 285.800781 1190.796875 284.398438 1189.734375 283.714844 C 1188.679688 283.039062 1187.269531 283.355469 1186.59375 284.410156 C 1185.917969 285.46875 1186.226562 286.878906 1187.285156 287.554688 C 1188.347656 288.230469 1189.753906 287.917969 1190.429688 286.863281 Z M 1194.394531 280.203125 C 1195.003906 279.101562 1194.605469 277.71875 1193.503906 277.109375 C 1192.40625 276.5 1191.019531 276.898438 1190.410156 278 C 1189.800781 279.101562 1190.203125 280.480469 1191.300781 281.089844 C 1192.402344 281.703125 1193.78125 281.296875 1194.394531 280.203125 Z M 1197.929688 273.3125 C 1198.46875 272.175781 1197.984375 270.816406 1196.851562 270.277344 C 1195.714844 269.738281 1194.355469 270.226562 1193.816406 271.363281 C 1193.277344 272.496094 1193.765625 273.851562 1194.902344 274.390625 C 1196.035156 274.929688 1197.390625 274.445312 1197.929688 273.3125 Z M 1201.023438 266.207031 C 1201.492188 265.046875 1200.921875 263.71875 1199.757812 263.25 C 1198.589844 262.789062 1197.265625 263.359375 1196.800781 264.523438 C 1196.335938 265.691406 1196.90625 267.015625 1198.074219 267.480469 C 1199.234375 267.945312 1200.5625 267.375 1201.023438 266.207031 Z M 1203.671875 258.921875 C 1204.066406 257.722656 1203.414062 256.445312 1202.214844 256.046875 C 1201.023438 255.65625 1199.738281 256.308594 1199.347656 257.503906 C 1198.957031 258.703125 1199.609375 259.988281 1200.800781 260.378906 C 1201.996094 260.761719 1203.28125 260.117188 1203.671875 258.921875 Z M 1205.847656 251.480469 C 1206.164062 250.257812 1205.433594 249.019531 1204.210938 248.707031 C 1202.996094 248.390625 1201.753906 249.121094 1201.4375 250.339844 L 1201.445312 250.335938 C 1201.125 251.554688 1201.859375 252.792969 1203.074219 253.109375 C 1204.289062 253.421875 1205.535156 252.695312 1205.847656 251.480469 Z M 1207.550781 243.914062 C 1207.785156 242.675781 1206.980469 241.484375 1205.746094 241.246094 C 1204.507812 241.007812 1203.316406 241.820312 1203.082031 243.054688 C 1202.84375 244.285156 1203.648438 245.476562 1204.886719 245.714844 C 1206.121094 245.949219 1207.3125 245.144531 1207.550781 243.914062 Z M 1208.769531 236.25 C 1208.929688 235.007812 1208.046875 233.863281 1206.800781 233.710938 C 1205.550781 233.550781 1204.414062 234.433594 1204.253906 235.675781 L 1204.261719 235.675781 C 1204.101562 236.925781 1204.976562 238.066406 1206.226562 238.226562 C 1207.472656 238.378906 1208.609375 237.503906 1208.769531 236.25 Z M 1209.511719 228.539062 C 1209.589844 227.28125 1208.632812 226.199219 1207.382812 226.121094 C 1206.128906 226.039062 1205.042969 226.992188 1204.964844 228.246094 C 1204.886719 229.496094 1205.835938 230.582031 1207.09375 230.660156 C 1208.34375 230.742188 1209.429688 229.789062 1209.503906 228.539062 Z M 1209.761719 220.78125 C 1209.761719 219.527344 1208.746094 218.507812 1207.488281 218.507812 C 1206.234375 218.5 1205.207031 219.519531 1205.207031 220.777344 C 1205.207031 222.03125 1206.222656 223.050781 1207.484375 223.058594 C 1208.742188 223.058594 1209.761719 222.039062 1209.761719 220.78125 Z M 1209.535156 213.039062 C 1209.457031 211.78125 1208.378906 210.828125 1207.121094 210.90625 C 1205.867188 210.976562 1204.910156 212.054688 1204.988281 213.3125 C 1205.066406 214.566406 1206.144531 215.519531 1207.402344 215.445312 C 1208.652344 215.371094 1209.613281 214.289062 1209.535156 213.039062 Z M 1208.824219 205.316406 C 1208.667969 204.066406 1207.53125 203.183594 1206.28125 203.339844 C 1205.035156 203.492188 1204.148438 204.628906 1204.300781 205.875 C 1204.457031 207.121094 1205.59375 208.007812 1206.84375 207.855469 C 1208.089844 207.699219 1208.976562 206.5625 1208.824219 205.316406 Z M 1207.625 197.652344 C 1207.390625 196.417969 1206.203125 195.605469 1204.964844 195.839844 C 1203.734375 196.074219 1202.921875 197.261719 1203.152344 198.5 C 1203.382812 199.730469 1204.574219 200.542969 1205.8125 200.3125 C 1207.046875 200.082031 1207.859375 198.890625 1207.625 197.652344 Z M 1205.949219 190.085938 C 1205.636719 188.863281 1204.398438 188.128906 1203.179688 188.4375 C 1201.960938 188.753906 1201.226562 189.992188 1201.539062 191.203125 C 1201.847656 192.425781 1203.085938 193.160156 1204.308594 192.847656 C 1205.523438 192.539062 1206.257812 191.300781 1205.949219 190.085938 Z M 1203.792969 182.632812 C 1203.40625 181.433594 1202.121094 180.777344 1200.929688 181.167969 C 1199.734375 181.554688 1199.074219 182.839844 1199.460938 184.035156 C 1199.851562 185.226562 1201.132812 185.882812 1202.328125 185.5 C 1203.523438 185.109375 1204.183594 183.828125 1203.792969 182.632812 Z M 1201.167969 175.320312 C 1200.703125 174.152344 1199.382812 173.578125 1198.214844 174.039062 C 1197.046875 174.503906 1196.472656 175.824219 1196.933594 176.992188 C 1197.398438 178.164062 1198.71875 178.734375 1199.886719 178.269531 C 1201.054688 177.808594 1201.628906 176.488281 1201.167969 175.320312 Z M 1198.085938 168.191406 C 1197.550781 167.054688 1196.195312 166.570312 1195.054688 167.101562 C 1193.917969 167.636719 1193.433594 168.992188 1193.964844 170.128906 C 1194.5 171.269531 1195.855469 171.753906 1196.996094 171.21875 C 1198.132812 170.6875 1198.617188 169.332031 1198.085938 168.191406 Z M 1194.558594 161.277344 C 1193.953125 160.175781 1192.574219 159.773438 1191.472656 160.378906 C 1190.367188 160.980469 1189.964844 162.367188 1190.570312 163.464844 C 1191.175781 164.566406 1192.5625 164.96875 1193.664062 164.367188 C 1194.765625 163.761719 1195.164062 162.375 1194.558594 161.277344 Z M 1190.605469 154.59375 C 1189.9375 153.535156 1188.527344 153.21875 1187.464844 153.894531 C 1186.402344 154.566406 1186.089844 155.96875 1186.765625 157.035156 C 1187.441406 158.089844 1188.847656 158.410156 1189.90625 157.734375 C 1190.96875 157.058594 1191.28125 155.65625 1190.605469 154.59375 Z M 1186.242188 148.179688 C 1185.507812 147.160156 1184.085938 146.933594 1183.066406 147.675781 C 1182.054688 148.410156 1181.824219 149.835938 1182.5625 150.851562 C 1183.296875 151.871094 1184.726562 152.09375 1185.742188 151.355469 C 1186.757812 150.621094 1186.984375 149.191406 1186.25 148.179688 Z M 1181.496094 142.046875 C 1180.691406 141.074219 1179.257812 140.9375 1178.289062 141.738281 C 1177.320312 142.539062 1177.183594 143.976562 1177.984375 144.945312 C 1178.78125 145.914062 1180.21875 146.050781 1181.1875 145.246094 C 1182.15625 144.445312 1182.292969 143.011719 1181.492188 142.046875 Z M 1176.371094 136.222656 C 1175.511719 135.304688 1174.070312 135.257812 1173.152344 136.121094 C 1172.234375 136.976562 1172.1875 138.414062 1173.046875 139.332031 C 1173.90625 140.25 1175.34375 140.296875 1176.265625 139.4375 C 1177.183594 138.582031 1177.230469 137.140625 1176.371094 136.222656 Z M 1170.894531 130.730469 C 1169.976562 129.871094 1168.535156 129.914062 1167.675781 130.824219 C 1166.8125 131.742188 1166.859375 133.183594 1167.773438 134.042969 C 1168.683594 134.90625 1170.125 134.867188 1170.988281 133.945312 C 1171.847656 133.035156 1171.808594 131.59375 1170.894531 130.730469 Z M 1165.085938 125.59375 C 1164.121094 124.789062 1162.6875 124.921875 1161.878906 125.890625 C 1161.082031 126.855469 1161.210938 128.289062 1162.175781 129.089844 C 1163.144531 129.894531 1164.578125 129.765625 1165.382812 128.796875 C 1166.1875 127.832031 1166.054688 126.398438 1165.085938 125.59375 Z M 1158.976562 120.828125 C 1157.957031 120.082031 1156.535156 120.300781 1155.792969 121.320312 C 1155.054688 122.335938 1155.273438 123.757812 1156.285156 124.496094 C 1157.300781 125.242188 1158.726562 125.019531 1159.46875 124.003906 C 1160.210938 122.992188 1159.992188 121.5625 1158.972656 120.828125 Z M 1152.578125 116.449219 C 1151.515625 115.777344 1150.109375 116.082031 1149.433594 117.144531 C 1148.753906 118.199219 1149.066406 119.609375 1150.121094 120.285156 C 1151.183594 120.960938 1152.59375 120.652344 1153.269531 119.589844 C 1153.945312 118.53125 1153.632812 117.125 1152.578125 116.449219 Z M 1145.921875 112.488281 C 1144.820312 111.875 1143.433594 112.273438 1142.820312 113.371094 C 1142.21875 114.472656 1142.613281 115.851562 1143.710938 116.460938 C 1144.8125 117.074219 1146.195312 116.675781 1146.804688 115.578125 C 1147.414062 114.476562 1147.015625 113.089844 1145.921875 112.488281 Z M 1139.027344 108.945312 C 1137.890625 108.40625 1136.535156 108.890625 1135.996094 110.023438 C 1135.457031 111.160156 1135.941406 112.515625 1137.074219 113.054688 C 1138.210938 113.59375 1139.566406 113.109375 1140.105469 111.976562 C 1140.648438 110.839844 1140.160156 109.484375 1139.027344 108.945312 Z M 1131.929688 105.84375 C 1130.761719 105.378906 1129.433594 105.945312 1128.972656 107.113281 C 1128.503906 108.28125 1129.074219 109.601562 1130.238281 110.070312 C 1131.40625 110.539062 1132.730469 109.96875 1133.195312 108.800781 C 1133.660156 107.632812 1133.097656 106.3125 1131.929688 105.84375 Z M 1124.632812 103.195312 C 1123.441406 102.804688 1122.15625 103.457031 1121.765625 104.648438 C 1121.375 105.84375 1122.027344 107.132812 1123.21875 107.523438 C 1124.414062 107.914062 1125.695312 107.261719 1126.089844 106.070312 C 1126.484375 104.875 1125.832031 103.589844 1124.632812 103.195312 Z M 1117.191406 101.015625 C 1115.976562 100.703125 1114.730469 101.429688 1114.417969 102.644531 C 1114.101562 103.867188 1114.832031 105.105469 1116.050781 105.417969 C 1117.265625 105.738281 1118.503906 105.003906 1118.824219 103.789062 C 1119.140625 102.574219 1118.410156 101.332031 1117.191406 101.015625 Z M 1109.621094 99.308594 C 1108.390625 99.074219 1107.199219 99.878906 1106.960938 101.117188 C 1106.722656 102.351562 1107.53125 103.539062 1108.761719 103.777344 C 1109.996094 104.015625 1111.191406 103.207031 1111.429688 101.976562 C 1111.667969 100.738281 1110.859375 99.546875 1109.628906 99.308594 Z M 1101.964844 98.082031 C 1100.722656 97.921875 1099.578125 98.804688 1099.417969 100.058594 C 1099.261719 101.300781 1100.140625 102.4375 1101.390625 102.597656 C 1102.636719 102.757812 1103.773438 101.875 1103.933594 100.632812 C 1104.09375 99.382812 1103.210938 98.242188 1101.964844 98.082031 Z M 1094.25 97.34375 C 1092.992188 97.265625 1091.910156 98.214844 1091.824219 99.46875 C 1091.75 100.726562 1092.695312 101.804688 1093.953125 101.886719 C 1095.210938 101.964844 1096.289062 101.015625 1096.371094 99.761719 C 1096.449219 98.511719 1095.5 97.425781 1094.242188 97.34375 Z M 1086.496094 97.089844 C 1085.234375 97.089844 1084.214844 98.101562 1084.214844 99.359375 C 1084.210938 100.613281 1085.230469 101.636719 1086.484375 101.636719 C 1087.742188 101.636719 1088.761719 100.625 1088.765625 99.371094 C 1088.765625 98.113281 1087.746094 97.089844 1086.492188 97.089844 Z M 1086.238281 97.089844 C 1084.972656 97.089844 1083.953125 98.109375 1083.953125 99.363281 C 1083.953125 100.621094 1084.972656 101.636719 1086.238281 101.636719 C 1087.492188 101.636719 1088.511719 100.621094 1088.511719 99.363281 C 1088.511719 98.109375 1087.492188 97.089844 1086.238281 97.089844 " fill-opacity="1" fill-rule="nonzero"/></g><path fill="#1a1a1a" d="M 1086.230469 272.53125 C 1057.542969 272.53125 1034.273438 249.28125 1034.273438 220.59375 C 1034.273438 191.902344 1057.542969 168.644531 1086.230469 168.644531 C 1114.921875 168.644531 1138.1875 191.902344 1138.1875 220.59375 C 1138.1875 249.28125 1114.921875 272.53125 1086.230469 272.53125 Z M 1086.238281 149.386719 C 1046.902344 149.386719 1015.015625 181.269531 1015.015625 220.59375 C 1015.015625 259.910156 1046.902344 291.792969 1086.238281 291.792969 C 1125.5625 291.792969 1157.449219 259.910156 1157.449219 220.59375 C 1157.449219 181.269531 1125.5625 149.386719 1086.238281 149.386719 " fill-opacity="1" fill-rule="nonzero"/><path fill="#1a1a1a" d="M 1086.230469 237.796875 C 1076.726562 237.796875 1069.015625 230.097656 1069.015625 220.59375 C 1069.015625 211.082031 1076.726562 203.378906 1086.230469 203.378906 C 1095.730469 203.378906 1103.445312 211.082031 1103.445312 220.59375 C 1103.445312 230.097656 1095.730469 237.796875 1086.230469 237.796875 " fill-opacity="1" fill-rule="nonzero"/><path fill="#1a1a1a" d="M 934.492188 146.625 C 934.492188 153.011719 929.3125 158.191406 922.925781 158.191406 L 899.148438 158.191406 C 892.757812 158.191406 887.578125 153.011719 887.578125 146.625 L 887.578125 122.855469 C 887.578125 116.46875 892.757812 111.289062 899.148438 111.289062 L 922.925781 111.289062 C 929.3125 111.289062 934.492188 116.46875 934.492188 122.855469 L 934.492188 146.625 " fill-opacity="1" fill-rule="nonzero"/><path fill="#1a1a1a" d="M 1136.539062 73.636719 C 1136.539062 76.777344 1133.984375 79.332031 1130.84375 79.332031 L 1033.101562 79.332031 C 1029.960938 79.332031 1027.410156 76.777344 1027.410156 73.636719 C 1027.410156 70.492188 1029.960938 67.945312 1033.101562 67.945312 L 1130.84375 67.945312 C 1133.984375 67.945312 1136.539062 70.492188 1136.539062 73.636719 " fill-opacity="1" fill-rule="nonzero"/><g fill="#1a1a1a" fill-opacity="1"><g transform="translate(47.132058, 252.889229)"><g><path d="M 202.191406 -211.054688 C 202.808594 -213.117188 201.367188 -215.382812 199.304688 -215.792969 C 197.246094 -216.414062 194.976562 -215.175781 194.566406 -212.910156 C 165.296875 -98.3125 111.09375 -58.742188 81.207031 -45.34375 C 72.960938 -41.632812 63.273438 -38.335938 54 -36.6875 C 61.214844 -67.398438 68.429688 -97.695312 74.199219 -121.398438 C 80.175781 -145.925781 85.121094 -167.152344 88.832031 -182.40625 C 89.246094 -184.464844 87.800781 -186.734375 85.742188 -187.144531 C 83.679688 -187.558594 81.414062 -186.320312 81 -184.261719 C 77.496094 -169.007812 72.34375 -147.777344 66.367188 -123.253906 C 60.390625 -98.3125 53.589844 -70.078125 46.992188 -42.046875 C 43.695312 -44.726562 40.398438 -46.785156 36.894531 -48.230469 C 24.734375 -53.589844 15.457031 -53.792969 11.75 -48.847656 C 9.480469 -45.960938 9.6875 -41.839844 12.574219 -38.128906 C 17.105469 -32.566406 26.175781 -28.648438 37.097656 -27.824219 C 39.160156 -27.824219 41.425781 -27.617188 43.695312 -27.824219 C 39.367188 -9.480469 35.246094 8.449219 31.742188 24.9375 C 26.175781 49.878906 22.464844 68.632812 20.199219 82.03125 C 16.488281 104.289062 17.3125 108.824219 21.640625 110.269531 C 22.054688 110.472656 22.671875 110.679688 23.289062 110.679688 C 27.207031 110.679688 30.296875 105.113281 35.449219 93.574219 C 36.273438 91.511719 35.449219 89.246094 33.390625 88.421875 C 31.328125 87.390625 29.0625 88.421875 28.238281 90.480469 C 27.414062 91.925781 26.792969 93.367188 26.175781 94.398438 C 28.855469 73.375 39.777344 23.910156 51.527344 -26.585938 C 62.65625 -13.808594 73.375 4.535156 84.09375 22.671875 C 103.671875 55.648438 123.871094 89.863281 147.984375 95.015625 C 150.046875 95.632812 152.3125 95.839844 154.375 95.839844 C 161.175781 95.839844 167.976562 93.574219 174.574219 89.039062 C 176.222656 87.800781 176.632812 85.328125 175.398438 83.472656 C 174.160156 81.617188 171.6875 81.207031 170.039062 82.441406 C 163.03125 87.183594 156.4375 88.832031 149.632812 87.390625 C 128.816406 82.855469 109.648438 50.085938 90.894531 18.550781 C 80.382812 0.617188 70.078125 -16.695312 59.359375 -29.679688 C 67.398438 -31.328125 75.847656 -34.214844 84.503906 -38.128906 C 115.625 -51.9375 172.304688 -92.953125 202.191406 -211.054688 Z M 21.847656 -40.398438 C 19.375 -42.046875 18.34375 -43.488281 18.136719 -44.105469 C 19.375 -44.726562 23.910156 -45.34375 33.800781 -41.015625 C 36.6875 -39.777344 39.574219 -37.921875 42.457031 -35.65625 C 34.625 -35.449219 27.414062 -36.6875 21.847656 -40.398438 Z M 21.847656 -40.398438 "/></g></g></g><g fill="#1a1a1a" fill-opacity="1"><g transform="translate(213.646557, 252.889229)"><g><path d="M 11.953125 -9.070312 C 7.625 -7.832031 3.503906 -1.03125 8.863281 -0.617188 C 18.34375 0 20.199219 -11.542969 11.953125 -9.070312 Z M 11.953125 -9.070312 "/></g></g></g><g fill="#1a1a1a" fill-opacity="1"><g transform="translate(241.261597, 252.889229)"><g><path d="M 257.839844 -177.664062 C 257.222656 -189.617188 253.511719 -196.007812 246.917969 -196.625 C 226.304688 -199.101562 189 -129.023438 155.40625 -27.617188 C 169.625 -128.40625 160.765625 -145.304688 150.664062 -147.574219 C 145.71875 -148.605469 131.085938 -151.902344 91.304688 -60.390625 C 73.167969 -18.960938 54.414062 32.152344 38.75 82.03125 C 52.558594 14.632812 79.96875 -105.113281 89.039062 -142.832031 C 94.808594 -167.152344 93.574219 -181.582031 85.535156 -186.734375 C 81.207031 -189.414062 73.167969 -190.445312 58.945312 -179.519531 C 44.519531 -168.390625 28.648438 -148.398438 17.3125 -127.582031 C 9.6875 -113.359375 -2.0625 -86.566406 4.742188 -66.367188 C 11.128906 -47.40625 30.917969 -43.078125 46.375 -42.871094 C 48.640625 -42.871094 50.289062 -44.519531 50.289062 -46.785156 C 50.496094 -49.054688 48.640625 -50.703125 46.375 -50.703125 C 27.617188 -51.113281 16.28125 -57.09375 12.160156 -69.046875 C 2.886719 -97.078125 36.6875 -152.109375 63.894531 -173.335938 C 71.726562 -179.3125 78.320312 -181.992188 81.414062 -179.933594 C 83.0625 -178.902344 88.007812 -173.128906 81.207031 -144.6875 C 77.496094 -128.816406 61.625 -60.800781 46.992188 5.566406 C 39.160156 41.632812 32.976562 70.488281 28.855469 91.097656 C 26.585938 103.054688 24.9375 112.328125 23.910156 118.71875 C 22.464844 128.40625 22.054688 132.527344 26.175781 133.765625 C 26.585938 133.96875 27 134.175781 27.617188 134.175781 C 30.917969 134.175781 32.566406 129.640625 34.421875 124.695312 C 34.421875 124.488281 34.421875 124.488281 34.625 124.28125 C 51.734375 62.863281 75.640625 -4.945312 98.519531 -57.296875 C 135.207031 -141.800781 148.398438 -139.945312 149.015625 -139.742188 C 149.222656 -139.742188 155.609375 -137.886719 154.785156 -102.847656 C 153.960938 -74.609375 148.808594 -31.535156 139.328125 24.734375 C 138.917969 26.792969 140.359375 28.855469 142.421875 29.265625 C 144.480469 29.679688 146.542969 28.648438 146.953125 26.585938 C 171.070312 -56.472656 193.121094 -108 207.550781 -136.648438 C 228.367188 -178.078125 241.558594 -188.792969 245.886719 -188.792969 C 245.886719 -188.792969 246.09375 -188.792969 246.09375 -188.792969 C 247.742188 -188.589844 249.597656 -185.085938 250.007812 -177.253906 C 251.65625 -151.28125 239.289062 -83.265625 228.367188 -23.289062 C 209.613281 79.558594 207.757812 98.105469 215.792969 100.992188 C 220.742188 102.847656 224.65625 97.078125 227.957031 91.304688 C 228.984375 89.449219 228.367188 86.976562 226.511719 85.945312 C 224.65625 84.917969 222.183594 85.535156 220.949219 87.390625 C 220.328125 88.625 219.710938 89.65625 219.09375 90.480469 C 218.679688 74.609375 228.367188 21.640625 236.199219 -21.847656 C 247.742188 -85.328125 259.695312 -150.871094 257.839844 -177.664062 Z M 257.839844 -177.664062 "/></g></g></g><g fill="#1a1a1a" fill-opacity="1"><g transform="translate(502.367934, 252.889229)"><g><path d="M 60.183594 -46.785156 C 58.328125 -48.023438 56.0625 -47.40625 54.824219 -45.550781 C 41.015625 -23.289062 17.929688 -2.265625 10.921875 -5.152344 C 10.097656 -5.566406 3.503906 -9.480469 12.574219 -44.3125 C 12.984375 -46.582031 11.75 -48.640625 9.6875 -49.257812 C 7.417969 -49.671875 5.359375 -48.433594 4.742188 -46.375 C -2.679688 -17.3125 -1.648438 -1.855469 7.625 2.0625 C 9.070312 2.679688 10.511719 2.886719 11.953125 2.886719 C 27.414062 2.886719 51.113281 -24.734375 61.625 -41.425781 C 62.65625 -43.28125 62.039062 -45.757812 60.183594 -46.785156 Z M 11.542969 -63.480469 C 22.054688 -62.863281 21.847656 -76.054688 13.398438 -73.167969 C 9.070312 -71.929688 3.503906 -63.894531 11.542969 -63.480469 Z M 11.542969 -63.480469 "/></g></g></g><g fill="#1a1a1a" fill-opacity="1"><g transform="translate(554.506797, 252.889229)"><g><path d="M 173.953125 -121.605469 C 171.277344 -125.3125 159.320312 -127.582031 31.328125 -124.695312 C 35.449219 -141.390625 39.160156 -156.4375 42.457031 -168.597656 C 43.078125 -170.863281 41.839844 -172.925781 39.777344 -173.542969 C 37.71875 -174.160156 35.449219 -172.925781 34.832031 -170.863281 C 31.328125 -157.878906 27.414062 -142.214844 23.085938 -124.488281 C 11.75 -124.28125 -0.617188 -124.078125 -14.015625 -123.664062 C -32.359375 -123.253906 -46.785156 -122.839844 -52.351562 -122.839844 C -54.617188 -122.839844 -56.472656 -120.984375 -56.472656 -118.925781 C -56.472656 -116.65625 -54.617188 -114.800781 -52.351562 -114.800781 C -46.582031 -115.007812 -32.152344 -115.214844 -13.808594 -115.832031 C -4.121094 -116.039062 7.832031 -116.246094 21.230469 -116.65625 C 12.367188 -79.144531 2.265625 -34.214844 -6.800781 9.6875 C -13.398438 41.839844 -18.753906 69.664062 -22.257812 90.070312 C -24.113281 100.785156 -25.351562 109.238281 -25.96875 115.007812 C -26.792969 122.839844 -27.207031 127.375 -23.289062 128.816406 C -22.671875 128.816406 -22.257812 129.023438 -21.640625 129.023438 C -18.136719 129.023438 -16.28125 124.078125 -14.632812 119.542969 C -13.808594 117.480469 -14.839844 115.214844 -16.902344 114.390625 C -17.3125 114.390625 -17.519531 114.183594 -17.929688 114.183594 C -15.871094 98.105469 -9.6875 62.039062 2.265625 5.152344 C 11.128906 -37.921875 20.816406 -81 29.472656 -116.863281 C 86.152344 -118.101562 159.734375 -119.128906 168.183594 -116.246094 C 169.625 -115.007812 171.480469 -115.007812 173.128906 -116.039062 C 174.78125 -117.273438 175.191406 -119.75 173.953125 -121.605469 Z M 173.953125 -121.605469 "/></g></g></g><g fill="#1a1a1a" fill-opacity="1"><g transform="translate(581.915718, 252.889229)"><g><path d="M 68.015625 -46.785156 C 66.160156 -47.816406 63.6875 -47.40625 62.65625 -45.550781 C 48.640625 -24.320312 25.351562 11.128906 10.097656 7.832031 C 7.625 7.214844 5.566406 5.566406 4.121094 2.886719 C 0 -4.535156 0.617188 -19.375 5.359375 -32.359375 C 10.511719 -46.167969 16.695312 -49.671875 17.929688 -49.464844 C 18.136719 -49.257812 19.375 -46.582031 17.726562 -40.191406 C 17.105469 -37.921875 18.34375 -35.863281 20.40625 -35.246094 C 22.671875 -34.832031 24.734375 -36.070312 25.351562 -38.128906 C 29.265625 -52.96875 22.464844 -56.265625 20.40625 -57.09375 C 12.777344 -59.359375 3.503906 -50.289062 -2.0625 -35.039062 C -6.800781 -22.257812 -8.863281 -4.121094 -2.679688 6.800781 C -0.207031 11.542969 3.710938 14.425781 8.449219 15.457031 C 9.6875 15.871094 10.921875 15.871094 12.160156 15.871094 C 30.089844 15.871094 49.464844 -11.128906 69.253906 -41.222656 C 70.488281 -43.078125 69.871094 -45.550781 68.015625 -46.785156 Z M 68.015625 -46.785156 "/></g></g></g><g fill="#1a1a1a" fill-opacity="1"><g transform="translate(642.916062, 252.889229)"><g><path d="M 97.488281 -46.992188 C 95.632812 -48.230469 93.160156 -47.609375 92.128906 -45.757812 C 62.863281 1.441406 52.558594 0.414062 51.527344 0.207031 C 49.464844 -0.414062 47.199219 -4.535156 46.582031 -14.632812 C 46.375 -19.167969 45.34375 -32.769531 36.273438 -34.007812 C 25.761719 -35.449219 13.191406 -17.105469 1.855469 6.59375 C 8.863281 -24.734375 18.960938 -67.808594 26.382812 -98.3125 C 54 -147.984375 68.015625 -185.289062 62.246094 -193.328125 C 61.007812 -195.183594 58.945312 -195.800781 56.886719 -195.390625 C 48.023438 -193.742188 34.214844 -163.648438 24.9375 -125.519531 C 24.527344 -124.078125 -12.367188 26.585938 -13.601562 45.136719 C -13.601562 47.199219 -12.367188 48.847656 -10.304688 49.257812 C -10.097656 49.257812 -9.894531 49.257812 -9.6875 49.257812 C -8.039062 49.257812 -6.390625 48.230469 -5.769531 46.785156 C 12.160156 -4.742188 29.679688 -26.175781 34.832031 -26.175781 C 35.039062 -26.175781 35.039062 -26.175781 35.039062 -26.175781 C 35.863281 -26.175781 38.128906 -23.703125 38.75 -14.222656 C 38.953125 -9.273438 39.984375 5.359375 49.464844 7.832031 C 53.589844 8.863281 65.75 11.953125 98.726562 -41.632812 C 99.960938 -43.488281 99.34375 -45.960938 97.488281 -46.992188 Z M 55.441406 -184.054688 C 53.792969 -175.808594 48.023438 -158.085938 34.214844 -130.261719 C 42.046875 -159.941406 50.496094 -177.046875 55.441406 -184.054688 Z M 55.441406 -184.054688 "/></g></g></g><g fill="#1a1a1a" fill-opacity="1"><g transform="translate(731.737565, 252.889229)"><g><path d="M 69.664062 -45.960938 C 67.808594 -47.199219 65.335938 -46.785156 64.097656 -44.929688 C 48.640625 -23.289062 36.070312 -9.6875 23.703125 -0.824219 C 17.519531 3.503906 11.542969 4.328125 7.625 1.441406 C 5.152344 -0.414062 -2.472656 -8.65625 6.390625 -37.511719 C 26.382812 -54 37.304688 -69.664062 34.421875 -77.910156 C 33.390625 -80.382812 30.917969 -82.03125 28.238281 -82.03125 C 19.992188 -81.824219 7.417969 -67.601562 -0.824219 -41.015625 C -10.921875 -8.246094 -2.679688 3.710938 3.089844 7.832031 C 5.976562 10.097656 9.273438 11.128906 12.984375 11.128906 C 17.726562 11.128906 23.085938 9.273438 28.238281 5.566406 C 41.425781 -3.917969 54.414062 -17.929688 70.488281 -40.398438 C 71.726562 -42.253906 71.3125 -44.726562 69.664062 -45.960938 Z M 26.585938 -73.375 C 25.761719 -70.078125 22.257812 -63.480469 12.574219 -53.589844 C 17.929688 -65.542969 23.703125 -71.3125 26.585938 -73.375 Z M 26.585938 -73.375 "/></g></g></g><g fill="#1a1a1a" fill-opacity="1"><g transform="translate(791.707528, 252.889229)"><g><path d="M 60.59375 -193.121094 C 59.152344 -194.976562 57.09375 -195.800781 55.03125 -195.597656 C 43.28125 -193.535156 30.710938 -149.632812 27.207031 -136.238281 C 16.902344 -96.871094 3.917969 -41.015625 -6.59375 9.070312 C -11.542969 32.769531 -15.457031 52.761719 -17.929688 67.191406 C -22.054688 91.511719 -21.433594 94.601562 -17.519531 95.632812 C -17.105469 95.839844 -16.695312 95.839844 -16.28125 95.839844 C -12.574219 95.839844 -10.71875 90.894531 -8.863281 85.535156 C -8.246094 83.472656 -9.273438 81.207031 -11.335938 80.589844 C -11.542969 80.382812 -11.75 80.382812 -11.953125 80.382812 C -7.625 50.703125 10.097656 -35.65625 28.238281 -108 C 28.238281 -108.207031 28.441406 -108.414062 28.648438 -108.617188 C 55.441406 -151.078125 65.953125 -184.878906 60.59375 -193.121094 Z M 35.246094 -135.824219 C 43.078125 -164.886719 50.085938 -178.902344 53.792969 -184.671875 C 52.96875 -177.046875 48.433594 -160.558594 35.246094 -135.824219 Z M 35.246094 -135.824219 "/></g></g></g><g fill="#1a1a1a" fill-opacity="1"><g transform="translate(823.032069, 252.889229)"><g><path d="M 60.59375 -193.121094 C 59.152344 -194.976562 57.09375 -195.800781 55.03125 -195.597656 C 43.28125 -193.535156 30.710938 -149.632812 27.207031 -136.238281 C 16.902344 -96.871094 3.917969 -41.015625 -6.59375 9.070312 C -11.542969 32.769531 -15.457031 52.761719 -17.929688 67.191406 C -22.054688 91.511719 -21.433594 94.601562 -17.519531 95.632812 C -17.105469 95.839844 -16.695312 95.839844 -16.28125 95.839844 C -12.574219 95.839844 -10.71875 90.894531 -8.863281 85.535156 C -8.246094 83.472656 -9.273438 81.207031 -11.335938 80.589844 C -11.542969 80.382812 -11.75 80.382812 -11.953125 80.382812 C -7.625 50.703125 10.097656 -35.65625 28.238281 -108 C 28.238281 -108.207031 28.441406 -108.414062 28.648438 -108.617188 C 55.441406 -151.078125 65.953125 -184.878906 60.59375 -193.121094 Z M 35.246094 -135.824219 C 43.078125 -164.886719 50.085938 -178.902344 53.792969 -184.671875 C 52.96875 -177.046875 48.433594 -160.558594 35.246094 -135.824219 Z M 35.246094 -135.824219 "/></g></g></g><g fill="#1a1a1a" fill-opacity="1"><g transform="translate(150.106389, 471.715315)"><g><path d="M 30.421875 -56.640625 C 37.648438 -56.640625 43.3125 -54.910156 47.40625 -51.453125 C 51.507812 -48.003906 53.5625 -43.257812 53.5625 -37.21875 C 53.5625 -31.175781 51.507812 -26.441406 47.40625 -23.015625 C 43.3125 -19.585938 37.648438 -17.875 30.421875 -17.875 L 15.203125 -17.875 L 15.203125 0 L 9.21875 0 L 9.21875 -56.640625 Z M 30.265625 -23.140625 C 35.867188 -23.140625 40.15625 -24.363281 43.125 -26.8125 C 46.09375 -29.269531 47.578125 -32.738281 47.578125 -37.21875 C 47.578125 -41.800781 46.09375 -45.316406 43.125 -47.765625 C 40.15625 -50.222656 35.867188 -51.453125 30.265625 -51.453125 L 15.203125 -51.453125 L 15.203125 -23.140625 Z M 30.265625 -23.140625 "/></g></g></g><g fill="#1a1a1a" fill-opacity="1"><g transform="translate(248.638421, 471.715315)"><g><path d="M 56.546875 -56.640625 L 56.546875 0 L 50.640625 0 L 50.640625 -26.125 L 15.203125 -26.125 L 15.203125 0 L 9.21875 0 L 9.21875 -56.640625 L 15.203125 -56.640625 L 15.203125 -31.390625 L 50.640625 -31.390625 L 50.640625 -56.640625 Z M 56.546875 -56.640625 "/></g></g></g><g fill="#1a1a1a" fill-opacity="1"><g transform="translate(354.851536, 471.715315)"><g><path d="M 33.984375 0.484375 C 28.367188 0.484375 23.28125 -0.765625 18.71875 -3.265625 C 14.164062 -5.773438 10.609375 -9.210938 8.046875 -13.578125 C 5.484375 -17.953125 4.203125 -22.863281 4.203125 -28.3125 C 4.203125 -33.757812 5.484375 -38.664062 8.046875 -43.03125 C 10.609375 -47.40625 14.164062 -50.847656 18.71875 -53.359375 C 23.28125 -55.867188 28.367188 -57.125 33.984375 -57.125 C 39.585938 -57.125 44.640625 -55.878906 49.140625 -53.390625 C 53.648438 -50.910156 57.195312 -47.472656 59.78125 -43.078125 C 62.375 -38.679688 63.671875 -33.757812 63.671875 -28.3125 C 63.671875 -22.863281 62.375 -17.941406 59.78125 -13.546875 C 57.195312 -9.148438 53.648438 -5.710938 49.140625 -3.234375 C 44.640625 -0.753906 39.585938 0.484375 33.984375 0.484375 Z M 33.984375 -4.859375 C 38.460938 -4.859375 42.503906 -5.867188 46.109375 -7.890625 C 49.722656 -9.910156 52.554688 -12.710938 54.609375 -16.296875 C 56.660156 -19.890625 57.6875 -23.894531 57.6875 -28.3125 C 57.6875 -32.738281 56.660156 -36.742188 54.609375 -40.328125 C 52.554688 -43.921875 49.722656 -46.726562 46.109375 -48.75 C 42.503906 -50.769531 38.460938 -51.78125 33.984375 -51.78125 C 29.503906 -51.78125 25.441406 -50.769531 21.796875 -48.75 C 18.160156 -46.726562 15.300781 -43.921875 13.21875 -40.328125 C 11.144531 -36.742188 10.109375 -32.738281 10.109375 -28.3125 C 10.109375 -23.894531 11.144531 -19.890625 13.21875 -16.296875 C 15.300781 -12.710938 18.160156 -9.910156 21.796875 -7.890625 C 25.441406 -5.867188 29.503906 -4.859375 33.984375 -4.859375 Z M 33.984375 -4.859375 "/></g></g></g><g fill="#1a1a1a" fill-opacity="1"><g transform="translate(463.166872, 471.715315)"><g><path d="M 20.21875 -51.453125 L 0.328125 -51.453125 L 0.328125 -56.640625 L 46.109375 -56.640625 L 46.109375 -51.453125 L 26.21875 -51.453125 L 26.21875 0 L 20.21875 0 Z M 20.21875 -51.453125 "/></g></g></g><g fill="#1a1a1a" fill-opacity="1"><g transform="translate(550.055884, 471.715315)"><g><path d="M 33.984375 0.484375 C 28.367188 0.484375 23.28125 -0.765625 18.71875 -3.265625 C 14.164062 -5.773438 10.609375 -9.210938 8.046875 -13.578125 C 5.484375 -17.953125 4.203125 -22.863281 4.203125 -28.3125 C 4.203125 -33.757812 5.484375 -38.664062 8.046875 -43.03125 C 10.609375 -47.40625 14.164062 -50.847656 18.71875 -53.359375 C 23.28125 -55.867188 28.367188 -57.125 33.984375 -57.125 C 39.585938 -57.125 44.640625 -55.878906 49.140625 -53.390625 C 53.648438 -50.910156 57.195312 -47.472656 59.78125 -43.078125 C 62.375 -38.679688 63.671875 -33.757812 63.671875 -28.3125 C 63.671875 -22.863281 62.375 -17.941406 59.78125 -13.546875 C 57.195312 -9.148438 53.648438 -5.710938 49.140625 -3.234375 C 44.640625 -0.753906 39.585938 0.484375 33.984375 0.484375 Z M 33.984375 -4.859375 C 38.460938 -4.859375 42.503906 -5.867188 46.109375 -7.890625 C 49.722656 -9.910156 52.554688 -12.710938 54.609375 -16.296875 C 56.660156 -19.890625 57.6875 -23.894531 57.6875 -28.3125 C 57.6875 -32.738281 56.660156 -36.742188 54.609375 -40.328125 C 52.554688 -43.921875 49.722656 -46.726562 46.109375 -48.75 C 42.503906 -50.769531 38.460938 -51.78125 33.984375 -51.78125 C 29.503906 -51.78125 25.441406 -50.769531 21.796875 -48.75 C 18.160156 -46.726562 15.300781 -43.921875 13.21875 -40.328125 C 11.144531 -36.742188 10.109375 -32.738281 10.109375 -28.3125 C 10.109375 -23.894531 11.144531 -19.890625 13.21875 -16.296875 C 15.300781 -12.710938 18.160156 -9.910156 21.796875 -7.890625 C 25.441406 -5.867188 29.503906 -4.859375 33.984375 -4.859375 Z M 33.984375 -4.859375 "/></g></g></g><g fill="#1a1a1a" fill-opacity="1"><g transform="translate(658.371244, 471.715315)"><g><path d="M 49.109375 -28.3125 L 54.859375 -28.3125 L 54.859375 -6.71875 C 52.210938 -4.394531 49.082031 -2.613281 45.46875 -1.375 C 41.851562 -0.132812 38.050781 0.484375 34.0625 0.484375 C 28.394531 0.484375 23.296875 -0.753906 18.765625 -3.234375 C 14.234375 -5.710938 10.671875 -9.148438 8.078125 -13.546875 C 5.492188 -17.941406 4.203125 -22.863281 4.203125 -28.3125 C 4.203125 -33.757812 5.492188 -38.679688 8.078125 -43.078125 C 10.671875 -47.472656 14.234375 -50.910156 18.765625 -53.390625 C 23.296875 -55.878906 28.421875 -57.125 34.140625 -57.125 C 38.453125 -57.125 42.414062 -56.4375 46.03125 -55.0625 C 49.644531 -53.6875 52.691406 -51.648438 55.171875 -48.953125 L 51.453125 -45.140625 C 46.972656 -49.566406 41.285156 -51.78125 34.390625 -51.78125 C 29.804688 -51.78125 25.664062 -50.769531 21.96875 -48.75 C 18.269531 -46.726562 15.367188 -43.921875 13.265625 -40.328125 C 11.160156 -36.742188 10.109375 -32.738281 10.109375 -28.3125 C 10.109375 -23.894531 11.160156 -19.90625 13.265625 -16.34375 C 15.367188 -12.78125 18.253906 -9.972656 21.921875 -7.921875 C 25.585938 -5.878906 29.710938 -4.859375 34.296875 -4.859375 C 40.128906 -4.859375 45.066406 -6.3125 49.109375 -9.21875 Z M 49.109375 -28.3125 "/></g></g></g><g fill="#1a1a1a" fill-opacity="1"><g transform="translate(761.350257, 471.715315)"><g><path d="M 47.890625 0 L 34.953125 -18.203125 C 33.492188 -18.046875 31.984375 -17.96875 30.421875 -17.96875 L 15.203125 -17.96875 L 15.203125 0 L 9.21875 0 L 9.21875 -56.640625 L 30.421875 -56.640625 C 37.648438 -56.640625 43.3125 -54.910156 47.40625 -51.453125 C 51.507812 -48.003906 53.5625 -43.257812 53.5625 -37.21875 C 53.5625 -32.789062 52.441406 -29.050781 50.203125 -26 C 47.960938 -22.957031 44.765625 -20.765625 40.609375 -19.421875 L 54.453125 0 Z M 30.265625 -23.0625 C 35.867188 -23.0625 40.15625 -24.300781 43.125 -26.78125 C 46.09375 -29.257812 47.578125 -32.738281 47.578125 -37.21875 C 47.578125 -41.800781 46.09375 -45.316406 43.125 -47.765625 C 40.15625 -50.222656 35.867188 -51.453125 30.265625 -51.453125 L 15.203125 -51.453125 L 15.203125 -23.0625 Z M 30.265625 -23.0625 "/></g></g></g><g fill="#1a1a1a" fill-opacity="1"><g transform="translate(860.28659, 471.715315)"><g><path d="M 44.734375 -15.125 L 13.1875 -15.125 L 6.390625 0 L 0.15625 0 L 26.046875 -56.640625 L 31.953125 -56.640625 L 57.84375 0 L 51.53125 0 Z M 42.5625 -19.984375 L 28.96875 -50.40625 L 15.375 -19.984375 Z M 42.5625 -19.984375 "/></g></g></g><g fill="#1a1a1a" fill-opacity="1"><g transform="translate(958.737715, 471.715315)"><g><path d="M 30.421875 -56.640625 C 37.648438 -56.640625 43.3125 -54.910156 47.40625 -51.453125 C 51.507812 -48.003906 53.5625 -43.257812 53.5625 -37.21875 C 53.5625 -31.175781 51.507812 -26.441406 47.40625 -23.015625 C 43.3125 -19.585938 37.648438 -17.875 30.421875 -17.875 L 15.203125 -17.875 L 15.203125 0 L 9.21875 0 L 9.21875 -56.640625 Z M 30.265625 -23.140625 C 35.867188 -23.140625 40.15625 -24.363281 43.125 -26.8125 C 46.09375 -29.269531 47.578125 -32.738281 47.578125 -37.21875 C 47.578125 -41.800781 46.09375 -45.316406 43.125 -47.765625 C 40.15625 -50.222656 35.867188 -51.453125 30.265625 -51.453125 L 15.203125 -51.453125 L 15.203125 -23.140625 Z M 30.265625 -23.140625 "/></g></g></g><g fill="#1a1a1a" fill-opacity="1"><g transform="translate(1057.269771, 471.715315)"><g><path d="M 56.546875 -56.640625 L 56.546875 0 L 50.640625 0 L 50.640625 -26.125 L 15.203125 -26.125 L 15.203125 0 L 9.21875 0 L 9.21875 -56.640625 L 15.203125 -56.640625 L 15.203125 -31.390625 L 50.640625 -31.390625 L 50.640625 -56.640625 Z M 56.546875 -56.640625 "/></g></g></g><g fill="#1a1a1a" fill-opacity="1"><g transform="translate(1163.482911, 471.715315)"><g><path d="M 28.640625 -19.578125 L 28.640625 0 L 22.734375 0 L 22.734375 -19.578125 L 0.078125 -56.640625 L 6.46875 -56.640625 L 25.890625 -24.84375 L 45.3125 -56.640625 L 51.296875 -56.640625 Z M 28.640625 -19.578125 "/></g></g></g></svg>